<svg id="Capa_1" enable-background="new 0 0 512 512" height="512" viewBox="0 0 512 512" width="512" xmlns="http://www.w3.org/2000/svg"><g><g><g><g><path d="m379.655 170.335c-5.522 0-10-4.478-10-10v-68.379c0-5.522 4.478-10 10-10s10 4.478 10 10v68.379c0 5.522-4.477 10-10 10z"/></g></g><g><g><circle cx="379.612" cy="59.778" r="10"/></g></g><g><path d="m484.648 105.057c0-57.929-47.119-105.057-105.037-105.057-23.973 0-46.095 8.074-63.793 21.646h-252.073c-20.067 0-36.393 16.325-36.393 36.393v363.773c0 20.067 16.326 36.394 36.393 36.394h31.731v17.4c0 20.067 16.326 36.394 36.393 36.394h261.461c20.067 0 36.393-16.326 36.393-36.394v-138.702c0-5.522-4.478-10-10-10s-10 4.478-10 10v138.702c0 9.039-7.354 16.394-16.393 16.394h-261.461c-9.039 0-16.393-7.354-16.393-16.394v-17.4h209.731c20.067 0 36.394-16.326 36.394-36.394v-213.244c5.854 1.016 11.871 1.546 18.011 1.546 10.461 0 20.57-1.538 30.112-4.399v40.778c0 5.522 4.478 10 10 10s10-4.478 10-10v-49.125c32.692-17.826 54.924-52.52 54.924-92.311zm-143.047 316.756c0 9.039-7.354 16.394-16.394 16.394h-261.462c-9.039 0-16.393-7.354-16.393-16.394v-363.774c0-9.039 7.354-16.393 16.393-16.393h232.171c-12.552 16.533-20.326 36.883-21.248 58.974h-170.291c-5.522 0-10 4.478-10 10v42.234c0 5.522 4.478 10 10 10h180.198c2.273 0 4.369-.759 6.049-2.037 11.946 19.004 29.806 33.931 50.977 42.179zm-67.026-301.193v22.234h-160.198v-22.234zm105.036 69.493c-46.889 0-85.036-38.156-85.036-85.057 0-46.9 38.147-85.057 85.036-85.057 46.89 0 85.037 38.156 85.037 85.057s-38.147 85.057-85.037 85.057z"/><g><g><path d="m419.72 301.52c-4.12 0-7.897-2.637-9.349-6.482-1.491-3.946-.27-8.586 3.009-11.255 3.285-2.673 8.014-2.994 11.617-.758 3.596 2.232 5.437 6.635 4.464 10.764-1.053 4.466-5.146 7.731-9.741 7.731z"/></g></g></g><g><g><g><g><path d="m284.575 217.633h-180.198c-5.522 0-10-4.477-10-10 0-5.522 4.478-10 10-10h180.198c5.522 0 10 4.478 10 10s-4.477 10-10 10z"/></g></g><g><g><path d="m284.575 265.063h-180.198c-5.522 0-10-4.478-10-10 0-5.523 4.478-10 10-10h180.198c5.522 0 10 4.477 10 10 0 5.522-4.477 10-10 10z"/></g></g><g><g><path d="m284.575 312.493h-180.198c-5.522 0-10-4.478-10-10s4.478-10 10-10h180.198c5.522 0 10 4.478 10 10 0 5.523-4.477 10-10 10z"/></g></g><g><g><path d="m284.575 359.923h-180.198c-5.522 0-10-4.478-10-10 0-5.523 4.478-10 10-10h180.198c5.522 0 10 4.477 10 10 0 5.522-4.477 10-10 10z"/></g></g></g></g></g></g></svg>