<?xml version="1.0" encoding="utf-8"?>
<!-- Generator: Adobe Illustrator 27.0.1, SVG Export Plug-In . SVG Version: 6.00 Build 0)  -->
<svg version="1.1" id="Слой_1" xmlns="http://www.w3.org/2000/svg" xmlns:xlink="http://www.w3.org/1999/xlink" x="0px" y="0px"
	 viewBox="0 0 512 512" style="enable-background:new 0 0 512 512;" xml:space="preserve">
<style type="text/css">
	.st0{stroke:#000000;stroke-width:0.5;stroke-miterlimit:10;}
</style>
<g>
	<path fill="currentColor" class="st0" d="M179.1,143.7c0-16.8-13.7-30.5-30.5-30.5c-16.8,0-30.5,13.7-30.5,30.5c0,16.8,13.7,30.5,30.5,30.5
		C165.4,174.2,179.1,160.5,179.1,143.7z M148.5,165.9c-12.3,0-22.3-10-22.3-22.3c0-12.3,10-22.3,22.3-22.3c12.3,0,22.3,10,22.3,22.3
		C170.8,156,160.8,165.9,148.5,165.9z"/>
	<path fill="currentColor" class="st0" d="M83.5,52.1c9.5,0,17.2-7.7,17.2-17.2c0-9.5-7.7-17.2-17.2-17.2c-9.5,0-17.2,7.7-17.2,17.2
		C66.2,44.4,74,52.1,83.5,52.1z M83.5,26c4.9,0,8.9,4,8.9,8.9c0,4.9-4,8.9-8.9,8.9c-4.9,0-8.9-4-8.9-8.9C74.5,30,78.5,26,83.5,26z"
		/>
	<path fill="currentColor" class="st0" d="M35.2,141.1c9.5,0,17.2-7.7,17.2-17.2c0-9.5-7.7-17.2-17.2-17.2c-9.5,0-17.2,7.7-17.2,17.2
		C18,133.4,25.7,141.1,35.2,141.1z M35.2,115c4.9,0,8.9,4,8.9,8.9c0,4.9-4,8.9-8.9,8.9c-4.9,0-8.9-4-8.9-8.9
		C26.3,119,30.3,115,35.2,115L35.2,115z"/>
	<path fill="currentColor" class="st0" d="M204.8,63.4c0,9.8,8,17.8,17.8,17.8c9.8,0,17.8-8,17.8-17.8c0-9.8-8-17.8-17.8-17.8
		C212.7,45.6,204.8,53.6,204.8,63.4z M222.6,53.9c5.2,0,9.5,4.3,9.5,9.5c0,5.2-4.3,9.5-9.5,9.5s-9.5-4.3-9.5-9.5
		C213,58.2,217.3,53.9,222.6,53.9z"/>
	<path fill="currentColor" class="st0" d="M149.4,229.7c12.8,12.5,25.6,21.6,37.2,26.2c0.5,0.2,19.7,7.2,22.3,7.2c4.8,0,5.6-7.1,1-8.2
		c-8.3-2-20.1-6.7-20.2-6.7c-10.6-4.2-22.5-12.8-34.6-24.5c8-8.8,15.8-18.8,23.3-29.7c3.8-0.4,36-5.9,37.7-6.3
		c3.3-0.8,6.8-2.2,5.7-6.4c-0.1-0.3-14.8-37.7-14.9-37.9c5.4-12.1,9.9-24,13.3-35.4c20,5.1,35.7,12.5,44.2,21.4
		c1.1,1.2,2.9,1.6,4.5,1c2.7-1,3.5-4.6,1.5-6.7c-9.4-9.8-26.5-18-48-23.5c0.8-3.1,1.5-6.1,2.1-9.1c0.4-2.1-1-4.3-3.1-4.8
		c-2.2-0.5-4.6,1-5,3.2c-0.6,2.9-1.3,5.8-2,8.8c-11.6-2.5-24.2-4.4-37.5-5.4c-7.6-10.6-15.6-20.3-23.7-28.7c4.1-4.2,8.2-8,12.3-11.4
		c17.9-15,33.5-20.5,42.9-15.2c1.3,0.7,2.6,1.7,3.7,2.9c1.6,1.7,4.2,1.8,5.8,0.2c1.7-1.5,1.8-4.2,0.2-5.8c-1.7-1.8-3.6-3.4-5.7-4.5
		c-12.7-7.2-31.3-1.4-52.3,16.1c-4.3,3.6-8.5,7.6-12.8,11.9c-11.2-10.9-22.4-19.4-32.7-24.4c-2-1-4.5-0.1-5.5,1.9
		c-1,2.1-0.1,4.5,1.9,5.5c9.6,4.7,20.1,12.6,30.7,22.9c-7.9,8.7-15.6,18.6-23,29.3c-13.2,1.3-25.7,3.4-37.2,6.2
		c-3.8-13.4-5.7-25.8-5.5-36.1c0.1-5.3-8.1-5.6-8.3-0.2c-0.3,11.2,1.7,24.2,5.7,38.4c-6.3,1.8-12.2,3.8-17.6,6
		c-4.9,2-1.9,9.7,3.1,7.7c5.2-2.1,10.9-4,16.9-5.8c3.6,11.3,8.3,23.1,14.1,35c-5.4,11.9-9.7,23.7-13,34.9
		c-31.5-8.1-50.2-21.5-50.4-34.4c-0.1-5.2-8.3-5.3-8.3,0.1c0.2,18,22.4,33.4,56.5,42.3c-1.5,5.8-2.6,11.4-3.4,16.8
		c-4.1,27,0.7,45.9,13.4,53c3.6,2,7.6,3,12,3c11.3,0,25.1-6.5,40.2-19.1C141.1,237.8,145.3,233.9,149.4,229.7L149.4,229.7z
		 M149.3,217.8c-6.4-6.7-12.7-14.2-18.9-22.4c4.8,0.2,31.2,0,37.3-0.4C161.7,203.2,155.5,210.9,149.3,217.8z M124.1,186.7
		c-4.6-6.6-9.1-13.5-13.4-20.7c-4.2-7.1-8.1-14.3-11.7-21.5c3.4-7.4,7.2-14.8,11.4-22.2c4.1-7.3,8.4-14.4,12.9-21.1
		c8-0.7,16.3-1.1,24.7-1.2c8.3-0.1,16.4,0.1,24.4,0.6c4.7,6.6,9.2,13.6,13.5,20.8c4.3,7.3,8.3,14.6,11.9,21.9
		c-3.4,7.2-7.1,14.5-11.1,21.7c-4.1,7.3-8.4,14.3-12.9,21C165.7,186.8,132.1,187.2,124.1,186.7L124.1,186.7z M212.7,179.9
		c-8.9,2.1-18.4,3.9-28.4,5.1c3.3-5.1,6.4-10.4,9.5-15.9c3-5.3,5.8-10.7,8.4-16.1C206.4,162.1,209.9,171.2,212.7,179.9L212.7,179.9z
		 M212.1,105.9c-2.7,9-6,18.3-10,27.7c-2.9-5.5-5.9-11-9.1-16.4c-3.2-5.4-6.5-10.6-10-15.7C193.3,102.5,203,104,212.1,105.9z
		 M147.5,69.9c6.3,6.6,12.5,14,18.6,22.1c-6-0.3-12-0.4-18.2-0.3c-6.3,0.1-12.4,0.3-18.5,0.7C135.3,84.3,141.3,76.7,147.5,69.9z
		 M83.8,107.5c9-2.2,18.7-3.9,28.9-5.2c-3.3,5.1-6.4,10.4-9.5,15.9c-3.1,5.5-6,11.1-8.7,16.6C90.3,125.5,86.7,116.3,83.8,107.5z
		 M94.7,154.3c2.8,5.3,5.7,10.6,8.9,15.9c3.2,5.4,6.5,10.6,9.8,15.6c-10.3-1-19.8-2.5-28.5-4.4C87.5,172.7,90.8,163.6,94.7,154.3z
		 M131.7,234.9c-17.9,15-33.5,20.5-42.9,15.2c-9.4-5.3-12.8-21.5-9.3-44.6c0.8-5.2,1.9-10.6,3.3-16.2c11.3,2.5,23.6,4.3,36.8,5.3
		c7.8,10.8,15.9,20.6,24,29.1C139.6,227.8,135.6,231.6,131.7,234.9z"/>
	<path fill="currentColor" class="st0" d="M227.8,214.7l-12.9,11.9c-5,4.7-5.3,12.5-0.7,17.5l23.4,25.3c2.5,2.6,5.8,4,9.1,4c3,0,6-1.1,8.3-3.2l13.8-12.2
		c2.5,1.3,5.3,2,8.2,2c4.4,0,8.7-1.6,12.2-4.8l111.5-103.2c14.3,12.7,23,31.1,23,50.8V239c0,36.6-29.2,66.4-65.5,67.5
		c-2.6-4.5-7.5-7.6-13.1-7.6h-46.7c-6.7,0-12.4,4.3-14.4,10.3H222c-9.5,0-17.2,7.7-17.2,17.2c0,9.5,7.7,17.2,17.2,17.2h63.1
		c2.6,4.5,7.5,7.6,13.1,7.6H345c4.3,0,8.2-1.8,11-4.8c55.8,0,101.3-45.4,101.3-101.3v-49c0-26.6-10.6-51.7-28.6-70.4l12.8-11.8
		c3.5-3.3,5.6-7.7,5.7-12.5c0.2-4-1-7.8-3.2-11l5.1-4.7c11.1-10.3,11.8-28.1,1.5-39.2c-10.4-11.2-28-11.9-39.2-1.5l-5.2,4.8
		c-2.9-2.1-6.3-3.3-9.9-3.5c-4.8-0.2-9.4,1.5-12.9,4.8L231,192.4C224.7,198.3,223.6,207.6,227.8,214.7L227.8,214.7z M249.5,264.1
		c-1.7,1.5-4.3,1.5-5.8-0.2l-23.4-25.3c-1.5-1.7-1.4-4.3,0.2-5.8l12.6-11.7l29.3,31.6L249.5,264.1z M213,326.5c0-4.9,4-9,9-9h61.1
		v17.9H222C217.1,335.5,213,331.5,213,326.5L213,326.5z M345,343.1h-46.7c-3.8,0-6.9-3.1-6.9-6.9v-22.1c0-3.8,3.1-6.9,6.9-6.9H345
		c3.8,0,6.9,3.1,6.9,6.9v22.1C351.9,340,348.8,343.1,345,343.1z M449,245.4c0,49.9-39.6,90.7-89,92.8c0.1-0.7,0.1-23.5,0.1-23.5
		c39.9-2.2,71.7-35.3,71.7-75.7v-36.2c0-27-14.6-52-37.7-65.5c0.5,0.3,9.6-9.9,8.4-21.2c28.4,16.5,46.4,47.1,46.4,80.4L449,245.4
		L449,245.4z M375,136.8c-10.6,0-19.3-8.7-19.3-19.3s8.7-19.3,19.3-19.3c7.7,0,14.7,4.6,17.8,11.7c1,2.4,1.6,5,1.6,7.6
		C394.4,128.1,385.7,136.8,375,136.8z M444.5,52.4c7.3,7.9,6.8,20.2-1.1,27.5l-5,4.6L412,56l5-4.6C424.9,44.1,437.3,44.6,444.5,52.4
		L444.5,52.4z M236.7,198.5L389,57.5c1.9-1.8,4.4-2.6,6.9-2.6c2.6,0.1,5,1.2,6.7,3.1l33.7,36.5c1.8,1.9,2.7,4.4,2.6,6.9
		s-1.2,5-3.1,6.7l-13.2,12.2c-6.9-6-14.6-11.2-23.1-15.2c-4.7-9.3-14.1-15.2-24.6-15.2c-15.2,0-27.6,12.4-27.6,27.6
		S359.8,145,375,145c4.1,0,8-0.9,11.5-2.5c2.6,1.3,5.1,2.8,7.5,4.4L283.5,249.1c-3.9,3.6-10,3.4-13.6-0.5l-33.7-36.5
		C232.5,208.3,232.7,202.1,236.7,198.5L236.7,198.5z"/>
	<path fill="currentColor" class="st0" d="M105.1,326.1c13.6,0,24.6-11,24.6-24.6c0-3.4-0.7-6.6-2-9.7c-3.9-9-12.8-14.9-22.6-14.9
		c-13.6,0-24.6,11-24.6,24.6c0,6.4,2.5,12.2,6.5,16.6l-34.5,43.4c-3-1.3-6.2-2-9.6-2c-13.6,0-24.6,11-24.6,24.6s11,24.6,24.6,24.6
		c2,0,4-0.3,5.8-0.7l35.1,48.8c-2.1,3.6-3.3,7.8-3.3,12.3c0,13.6,11,24.6,24.6,24.6c13.6,0,24.6-11,24.6-24.6c0-3.4-0.7-6.6-2-9.7
		c-3.9-9-12.8-14.9-22.6-14.9c-6,0-11.5,2.2-15.8,5.8l-32.8-45.7c6.6-4.4,11-12,11-20.5c0-3.4-0.7-6.6-2-9.7c-1.4-3.3-3.5-6.1-6-8.4
		l34.1-42.8C97,325.1,100.9,326.1,105.1,326.1L105.1,326.1z M105.1,452.8c6.5,0,12.4,3.9,15,9.9c0.9,2,1.3,4.2,1.3,6.5
		c0,9-7.3,16.3-16.3,16.3s-16.3-7.3-16.3-16.3C88.8,460.2,96.1,452.8,105.1,452.8L105.1,452.8z M105.1,285.1c6.5,0,12.4,3.9,15,9.9
		c0.9,2,1.3,4.2,1.3,6.5c0,9-7.3,16.3-16.3,16.3s-16.3-7.3-16.3-16.3S96.1,285.1,105.1,285.1L105.1,285.1z M42.8,400.5
		c-9,0-16.3-7.3-16.3-16.3c0-9,7.3-16.3,16.3-16.3c6.5,0,12.4,3.9,15,9.9c0.9,2,1.3,4.2,1.3,6.5C59.2,393.2,51.9,400.5,42.8,400.5z"
		/>
	<path fill="currentColor" class="st0" d="M477.1,398.7l-36.2-0.7c-17.4-23-48.7-37.2-82.3-37.2c-25.4,0-49.1,10.6-68.5,30.5h-31
		c-14.4,0-25.4,9.9-26.1,23.3l-36.6-36.1c-5.9-5.9-13.7-9.1-22.1-9.1c-8.4,0-16.2,3.2-22.1,9.1c-5.9,5.8-9.1,13.6-9.1,21.9
		c0,8.3,3.3,16.1,9.1,21.9l61.9,61.3c7.1,7.1,16.2,10.8,26.2,10.8H477c9.4,0,17-7.5,17-16.7v-62.2
		C494,406.2,486.4,398.7,477.1,398.7L477.1,398.7z M485.7,477.6c0,4.6-3.9,8.4-8.7,8.4H240.3c-7.9,0-14.7-2.8-20.4-8.4L158,416.3
		c-4.3-4.3-6.7-10-6.7-16s2.4-11.7,6.7-16c4.3-4.3,10.1-6.7,16.2-6.7c6.2,0,11.9,2.4,16.2,6.7l48.2,47.5c4.7,5.5,12,8.9,20.4,8.9
		h86.2c2.3,0,4.1-1.9,4.1-4.1s-1.9-4.1-4.1-4.1h-86.2c-10.2,0-17.9-7.1-17.9-16.4s7.7-16.4,17.9-16.4h32.7c1.1,0,2.2-0.5,3-1.3
		c18.1-19.1,40.1-29.2,63.7-29.2c16.2,0,32.5,3.6,47,11c12.4,6.3,25.1,15.4,31.2,28.2c3.6,7.5,5.2,15.8,5.2,24.1
		c0,2.3,1.9,4.1,4.1,4.1c2.3,0,4.1-1.9,4.1-4.1c0-10.7-2.4-19.4-5.3-26L477,407c4.8,0,8.7,3.8,8.7,8.4L485.7,477.6L485.7,477.6z"/>
</g>
</svg>
