<svg id="Слой_1" enable-background="new 0 0 300 300" height="512" viewBox="0 0 300 300" width="512" xmlns="http://www.w3.org/2000/svg"><g><path d="m104.618 83.672c0-9.849-8.012-17.861-17.858-17.861-9.848 0-17.859 8.012-17.859 17.861 0 9.846 8.012 17.856 17.859 17.856 9.846 0 17.858-8.01 17.858-17.856zm-17.858 13.015c-7.178 0-13.018-5.839-13.018-13.015 0-7.18 5.84-13.02 13.018-13.02s13.017 5.84 13.017 13.02c0 7.177-5.839 13.015-13.017 13.015z"/><path d="m48.707 30.137c5.552 0 10.068-4.516 10.068-10.067 0-5.552-4.516-10.07-10.068-10.07-5.55 0-10.067 4.518-10.067 10.07.001 5.55 4.517 10.067 10.067 10.067zm0-15.296c2.882 0 5.227 2.345 5.227 5.229 0 2.881-2.345 5.226-5.227 5.226-2.881 0-5.226-2.345-5.226-5.226.001-2.884 2.346-5.229 5.226-5.229z"/><path d="m20.506 82.175c5.552 0 10.068-4.515 10.068-10.065 0-5.552-4.516-10.07-10.068-10.07-5.55 0-10.067 4.518-10.067 10.07 0 5.55 4.516 10.065 10.067 10.065zm0-15.294c2.882 0 5.227 2.345 5.227 5.229 0 2.881-2.345 5.224-5.227 5.224-2.881 0-5.226-2.343-5.226-5.224 0-2.884 2.345-5.229 5.226-5.229z"/><path d="m119.645 36.739c0 5.736 4.668 10.404 10.406 10.404s10.405-4.668 10.405-10.404c0-5.738-4.668-10.407-10.405-10.407-5.738 0-10.406 4.67-10.406 10.407zm10.406-5.566c3.068 0 5.564 2.496 5.564 5.566 0 3.067-2.496 5.563-5.564 5.563s-5.564-2.496-5.564-5.563c-.001-3.069 2.496-5.566 5.564-5.566z"/><path d="m87.259 133.978c7.512 7.291 14.987 12.625 21.773 15.303.295.118 11.51 4.215 13.037 4.215 2.778.001 3.277-4.126.561-4.775-4.832-1.154-11.729-3.907-11.81-3.94-6.173-2.436-13.144-7.461-20.211-14.338 4.67-5.127 9.256-10.975 13.618-17.354 2.196-.222 21.079-3.468 22.068-3.711 1.951-.48 3.981-1.294 3.309-3.771-.055-.202-8.666-22.045-8.734-22.188 3.181-7.053 5.816-14.048 7.78-20.73 11.7 2.985 20.883 7.293 25.865 12.512.662.693 1.705.932 2.603.594 1.598-.601 2.076-2.704.898-3.938-5.497-5.758-15.485-10.51-28.087-13.767.457-1.803.862-3.577 1.212-5.315.251-1.249-.58-2.53-1.814-2.83-1.306-.318-2.668.561-2.932 1.875-.339 1.683-.731 3.401-1.175 5.148-6.764-1.478-14.158-2.544-21.923-3.141-4.47-6.187-9.143-11.85-13.853-16.797 2.391-2.443 4.792-4.691 7.184-6.694 10.451-8.752 19.596-12.007 25.09-8.912.785.438 1.507 1.013 2.145 1.708.908.985 2.439 1.048 3.421.143.983-.905 1.048-2.436.143-3.421-.986-1.073-2.113-1.967-3.342-2.654-7.451-4.186-18.305-.837-30.564 9.422-2.494 2.088-4.994 4.428-7.481 6.967-6.571-6.401-13.117-11.346-19.15-14.267-1.198-.586-2.651-.08-3.232 1.124-.583 1.202-.08 2.651 1.124 3.232 5.629 2.727 11.763 7.373 17.952 13.41-4.607 5.078-9.129 10.858-13.435 17.153-7.698.771-15.028 1.993-21.765 3.637-2.197-7.854-3.333-15.071-3.191-21.084.073-3.098-4.766-3.248-4.841-.114-.154 6.527 1.02 14.178 3.32 22.45-3.657 1.045-7.118 2.214-10.321 3.515-2.867 1.165-1.092 5.666 1.822 4.485 3.064-1.245 6.381-2.364 9.888-3.365 2.106 6.58 4.881 13.48 8.254 20.488-3.129 6.96-5.7 13.835-7.627 20.415-18.405-4.75-29.376-12.547-29.468-20.146-.037-3.058-4.878-3.095-4.841.057.127 10.547 13.074 19.52 33.054 24.709-.854 3.388-1.536 6.686-2.013 9.851-2.381 15.809.411 26.818 7.864 31.002 2.094 1.177 4.458 1.759 7.046 1.759 6.619 0 14.706-3.804 23.52-11.182 2.419-2.025 4.845-4.288 7.259-6.74zm-.047-6.987c-3.73-3.926-7.454-8.329-11.072-13.114 2.8.121 18.245-.011 21.809-.25-3.483 4.852-7.085 9.34-10.737 13.364zm-14.736-18.144c-2.709-3.855-5.339-7.901-7.835-12.109-2.471-4.163-4.749-8.372-6.823-12.565 2.01-4.324 4.238-8.677 6.67-13.008 2.403-4.279 4.928-8.4 7.539-12.325 4.691-.409 9.516-.65 14.427-.708 4.851-.056 9.619.069 14.249.36 2.72 3.872 5.358 7.946 7.868 12.176 2.52 4.247 4.835 8.541 6.951 12.825-1.976 4.238-4.133 8.486-6.491 12.685-2.398 4.271-4.918 8.386-7.525 12.303-4.719.417-24.377.658-29.03.366zm51.81-3.983c-5.226 1.25-10.784 2.256-16.59 2.974 1.91-3.004 3.768-6.105 5.557-9.29 1.754-3.125 3.384-6.281 4.937-9.439 2.411 5.347 4.444 10.63 6.096 15.755zm-.351-43.279c-1.551 5.237-3.528 10.679-5.868 16.195-1.668-3.207-3.448-6.408-5.332-9.583-1.875-3.159-3.827-6.227-5.829-9.204 6.012.588 11.733 1.462 17.029 2.592zm-37.799-21.047c3.669 3.873 7.324 8.211 10.881 12.916-3.489-.149-7.034-.208-10.62-.163-3.66.043-7.273.189-10.826.425 3.428-4.777 6.972-9.203 10.565-13.178zm-37.2 21.98c5.285-1.279 10.955-2.291 16.893-3.022-1.912 3.007-3.771 6.11-5.561 9.298-1.816 3.234-3.522 6.482-5.113 9.725-2.467-5.461-4.554-10.838-6.219-16.001zm6.348 27.365c1.625 3.107 3.351 6.221 5.194 9.325 1.863 3.141 3.789 6.19 5.76 9.134-6.006-.592-11.588-1.463-16.686-2.561 1.516-5.141 3.441-10.476 5.732-15.898zm21.608 47.125c-10.453 8.751-19.598 11.997-25.088 8.915-5.492-3.084-7.478-12.582-5.446-26.062.457-3.033 1.112-6.196 1.933-9.449 6.593 1.442 13.828 2.497 21.541 3.091 4.541 6.316 9.269 12.049 14.025 17.035-2.319 2.355-4.646 4.528-6.965 6.47z"/><path d="m133.091 125.189-7.547 6.983c-2.937 2.723-3.114 7.326-.396 10.261l13.686 14.79c1.434 1.548 3.39 2.329 5.345 2.329 1.752 0 3.505-.629 4.876-1.897l8.043-7.122c1.491.759 3.126 1.153 4.769 1.153 2.55 0 5.106-.922 7.12-2.786l65.185-60.33c8.39 7.409 13.449 18.206 13.449 29.683v21.147c0 21.392-17.084 38.856-38.322 39.5-1.539-2.642-4.396-4.426-7.667-4.426h-27.302c-3.905 0-7.223 2.54-8.407 6.051h-36.192c-5.561 0-10.086 4.524-10.086 10.086s4.524 10.086 10.086 10.086h36.925c1.538 2.648 4.398 4.438 7.674 4.438h27.304c2.532 0 4.815-1.072 6.455-2.78 32.654 0 59.218-26.565 59.218-59.215v-28.627c0-15.578-6.2-30.263-16.705-41.148l7.485-6.926c2.057-1.902 3.248-4.493 3.357-7.293.089-2.321-.585-4.55-1.899-6.417 0 0 2.991-2.768 2.991-2.768 6.487-6.004 6.886-16.451.887-22.932-6.077-6.564-16.369-6.961-22.932-.884l-3.051 2.824c-1.675-1.234-3.676-1.943-5.8-2.025-2.802-.12-5.475.878-7.531 2.785l-89.097 82.459c-3.68 3.402-4.36 8.846-1.921 13.001zm12.717 28.876c-.979.906-2.514.848-3.421-.131l-13.686-14.79c-.906-.977-.846-2.512.132-3.42l7.362-6.814 17.124 18.503zm-21.322 36.546c0-2.892 2.353-5.245 5.245-5.245h35.723v10.489h-35.723c-2.892 0-5.245-2.352-5.245-5.244zm77.147 9.682h-27.303c-2.225 0-4.034-1.809-4.034-4.034v-12.91c0-2.225 1.809-4.034 4.034-4.034h27.304c2.225 0 4.034 1.809 4.034 4.034v12.91c0 2.225-1.809 4.034-4.035 4.034zm60.832-57.154c0 29.198-23.141 53.065-52.044 54.295.052-.386.087-13.756.087-13.756 23.343-1.263 41.954-20.625 41.954-44.279v-21.148c0-15.796-8.544-30.435-22.047-38.328.295.172 5.623-5.784 4.903-12.417 16.622 9.657 27.146 27.563 27.146 47.005v28.628zm-43.242-63.517c-6.228 0-11.296-5.068-11.296-11.296s5.068-11.296 11.296-11.296c4.52 0 8.595 2.684 10.382 6.835.607 1.414.914 2.915.914 4.461 0 6.228-5.068 11.296-11.296 11.296zm40.647-49.306c4.264 4.608 3.985 11.825-.622 16.091l-2.914 2.697-15.468-16.715 2.911-2.694c4.608-4.264 11.827-3.984 16.093.621zm-121.573 85.422 89.097-82.459c1.109-1.024 2.556-1.541 4.056-1.5 1.508.058 2.903.7 3.927 1.808l19.728 21.317c1.024 1.108 1.557 2.548 1.499 4.056s-.7 2.903-1.806 3.927l-7.691 7.117c-4.013-3.531-8.55-6.532-13.503-8.912-2.733-5.425-8.254-8.902-14.381-8.902-8.897 0-16.137 7.24-16.137 16.137s7.24 16.137 16.137 16.137c2.391 0 4.654-.537 6.697-1.474 1.521.771 2.984 1.627 4.373 2.575l-64.593 59.782c-2.29 2.115-5.869 1.975-7.982-.307l-19.73-21.317c-2.114-2.287-1.977-5.869.309-7.985z"/><path d="m61.363 190.356c7.939 0 14.397-6.46 14.397-14.399 0-1.975-.392-3.888-1.166-5.686-2.279-5.292-7.471-8.711-13.231-8.711-7.939 0-14.397 6.458-14.397 14.397 0 3.749 1.451 7.156 3.807 9.721l-20.2 25.4c-1.747-.742-3.644-1.17-5.619-1.17-7.939 0-14.397 6.458-14.397 14.397s6.458 14.399 14.397 14.399c1.175 0 2.311-.157 3.405-.424l20.543 28.567c-1.224 2.116-1.937 4.564-1.937 7.18 0 7.939 6.458 14.399 14.397 14.399s14.397-6.46 14.397-14.399c0-1.971-.392-3.883-1.166-5.686-2.279-5.292-7.471-8.711-13.231-8.711-3.522 0-6.749 1.276-9.254 3.383l-19.208-26.712c3.884-2.582 6.452-6.993 6.452-11.996 0-1.971-.392-3.883-1.166-5.686-.823-1.913-2.037-3.571-3.511-4.921l19.915-25.042c2.02 1.082 4.325 1.7 6.773 1.7zm0 74.115c3.823 0 7.271 2.271 8.784 5.782.512 1.195.772 2.463.772 3.774 0 5.27-4.286 9.558-9.556 9.558s-9.556-4.288-9.556-9.558 4.287-9.556 9.556-9.556zm0-98.07c3.823 0 7.271 2.271 8.784 5.783.512 1.19.772 2.46.772 3.773 0 5.27-4.286 9.558-9.556 9.558s-9.556-4.288-9.556-9.558 4.287-9.556 9.556-9.556zm-36.409 67.461c-5.27 0-9.556-4.288-9.556-9.558s4.286-9.556 9.556-9.556c3.825 0 7.273 2.271 8.784 5.782.512 1.195.772 2.463.772 3.774 0 5.27-4.286 9.558-9.556 9.558z"/><path d="m278.886 232.791-21.178-.432c-10.186-13.445-28.501-21.75-48.143-21.75-14.86 0-28.695 6.17-40.07 17.856h-18.102c-8.415 0-14.832 5.799-15.261 13.622l-21.426-21.131c-3.435-3.426-8.021-5.312-12.91-5.312-4.887 0-9.473 1.886-12.905 5.306-3.45 3.415-5.349 7.961-5.349 12.802 0 4.84 1.901 9.386 5.349 12.799l36.199 35.84c4.178 4.137 9.469 6.322 15.308 6.322h138.437c5.482 0 9.944-4.381 9.944-9.767v-36.385c.002-5.388-4.459-9.77-9.893-9.77zm5.054 46.156c0 2.717-2.29 4.926-5.103 4.926h-138.437c-4.6 0-8.604-1.656-11.901-4.92l-36.201-35.843c-2.523-2.498-3.913-5.82-3.913-9.358s1.39-6.863 3.919-9.367c2.525-2.515 5.895-3.9 9.493-3.9 3.599 0 6.97 1.385 9.501 3.91l28.172 27.783c2.756 3.216 6.997 5.204 11.923 5.204h50.437c1.336 0 2.421-1.084 2.421-2.421s-1.084-2.421-2.421-2.421h-50.437c-5.952 0-10.442-4.135-10.442-9.618s4.49-9.616 10.442-9.616h19.134c.665 0 1.302-.274 1.759-.758 10.574-11.186 23.465-17.098 37.279-17.098 9.484 0 19.015 2.128 27.491 6.414 7.238 3.66 14.687 9.008 18.25 16.51 2.082 4.383 3.038 9.237 3.038 14.077 0 1.336 1.084 2.421 2.421 2.421s2.421-1.084 2.421-2.421c0-6.268-1.398-11.32-3.108-15.202l18.76.383c2.813 0 5.103 2.211 5.103 4.929v36.386z"/></g></svg>