<svg id="Capa_1" enable-background="new 0 0 512 512" height="512" viewBox="0 0 512 512" width="512" xmlns="http://www.w3.org/2000/svg"><g id="XMLID_235_"><g id="XMLID_164_"><path fill="currentColor" id="XMLID_196_" d="m463.955 106.685c5.056-6.935 8.05-15.465 8.05-24.685 0-23.159-18.841-42-42-42-9.22 0-17.75 2.994-24.685 8.05-43.669-31.456-95.116-48.05-149.32-48.05-53.173 0-104.162 16.152-147.457 46.709-4.512 3.185-5.588 9.424-2.403 13.937 3.185 4.512 9.425 5.588 13.937 2.403 28.92-20.412 61.573-33.843 96.018-39.694-4.009 5.094-8.037 11.225-12.012 18.609-12.132 22.539-22.144 53.578-29.123 90.158-18.36 1.32-33.485 14.484-37.751 31.878h-98.602c5.812-13.719 12.944-26.926 21.362-39.453 3.08-4.584 1.86-10.797-2.724-13.877-4.584-3.081-10.797-1.861-13.877 2.723-28.372 42.224-43.368 91.537-43.368 142.607 0 54.185 16.595 105.645 48.047 149.319-5.054 6.934-8.047 15.463-8.047 24.681 0 23.159 18.841 42 42 42 9.219 0 17.748-2.993 24.682-8.048 43.672 31.454 95.128 48.048 149.318 48.048 68.38 0 132.667-26.629 181.02-74.981 48.351-48.351 74.98-112.639 74.98-181.019 0-54.198-16.592-105.645-48.045-149.315zm16.799 221.315h-106.637c-3.425-13.965-13.849-25.201-27.328-29.775.789-13.892 1.211-28.047 1.211-42.225 0-24.726-1.198-48.92-3.507-71.999h136.385c7.347 22.995 11.122 47.184 11.122 71.999 0 25.1-3.954 49.291-11.246 72zm-224.754 164c-16.755 0-34.884-24.379-48.496-65.214-7.629-22.889-13.531-49.627-17.514-78.785h102.551c3.202 13.054 12.516 23.73 24.729 28.803-15.213 79.485-41.445 115.196-61.27 115.196zm-174-104c-6.687 0-13.01 1.579-18.627 4.371-9.944-13.999-18.239-28.853-24.823-44.371h131.276c4.156 31.467 10.463 60.387 18.704 85.11 7.924 23.774 17.152 42.371 27.431 55.531-34.639-5.875-67.324-19.407-96.332-40.013 2.792-5.618 4.371-11.941 4.371-18.628 0-23.159-18.841-42-42-42zm102-132c0-13.645.4-27.26 1.15-40.622 16.475-2.841 29.691-15.303 33.633-31.378h105.614c2.371 22.992 3.603 47.199 3.603 72 0 13.6-.398 27.174-1.144 40.5-16.792 2.609-30.318 15.203-34.315 31.5h-104.939c-2.369-22.991-3.602-47.198-3.602-72zm149.329 104c-12.131 0-22-9.869-22-22s9.869-22 22-22 22 9.869 22 22-9.869 22-22 22zm-9.859-281.11c-7.925-23.775-17.153-42.373-27.433-55.533 34.645 5.875 67.33 19.405 96.339 40.015-2.792 5.618-4.371 11.941-4.371 18.628 0 23.159 18.841 42 42 42 6.687 0 13.009-1.579 18.627-4.37 9.945 13.998 18.237 28.854 24.82 44.371h-131.278c-4.156-31.468-10.464-60.388-18.704-85.111zm128.535 3.11c0 12.131-9.869 22-22 22s-22-9.869-22-22 9.869-22 22-22 22 9.869 22 22zm-196.005-62c16.755 0 34.884 24.379 48.496 65.214 7.629 22.889 13.531 49.628 17.514 78.786h-103.226c-3.147-12.831-12.2-23.362-24.105-28.536 15.2-79.668 41.457-115.464 61.321-115.464zm-78.004 132.001c12.131 0 22 9.869 22 22s-9.869 22-22 22-22-9.869-22-22 9.869-22 22-22zm-40.787 32c3.481 14.193 14.189 25.573 27.989 29.999-.78 13.818-1.198 27.896-1.198 42 0 24.727 1.198 48.921 3.507 72h-136.38c-7.349-22.999-11.127-47.189-11.127-72 0-24.684 3.805-48.918 11.187-71.999zm-77.209 245.999c0-12.131 9.869-22 22-22s22 9.869 22 22-9.869 22-22 22-22-9.869-22-22zm235.937 58.604c3.974-5.055 7.967-11.128 11.908-18.432 12.169-22.557 22.213-53.668 29.207-90.346 18.051-1.594 32.853-14.649 37.065-31.826h99.209c-30.915 72.752-97.337 126.901-177.389 140.604z"/><path fill="currentColor" id="XMLID_1702_" d="m80.06 94.06c2.641 0 5.21-1.06 7.08-2.93 1.86-1.86 2.92-4.44 2.92-7.07s-1.06-5.2-2.92-7.07c-1.87-1.86-4.439-2.93-7.08-2.93-2.63 0-5.21 1.07-7.069 2.93-1.86 1.87-2.931 4.44-2.931 7.07s1.07 5.21 2.931 7.07c1.859 1.87 4.439 2.93 7.069 2.93z"/></g></g></svg>
