<?xml version="1.0" standalone="no"?>
<!DOCTYPE svg PUBLIC "-//W3C//DTD SVG 20010904//EN"
 "http://www.w3.org/TR/2001/REC-SVG-20010904/DTD/svg10.dtd">
<svg version="1.0" xmlns="http://www.w3.org/2000/svg"
 width="512.000000pt" height="512.000000pt" viewBox="0 0 512.000000 512.000000"
 preserveAspectRatio="xMidYMid meet">

<g transform="translate(0.000000,512.000000) scale(0.100000,-0.100000)"
fill="#000000" stroke="none">
<path d="M2475 5075 c-30 -29 -32 -64 -4 -98 l20 -27 1097 -2 1097 -3 53 -22
c108 -44 187 -135 217 -248 12 -49 15 -138 15 -538 l0 -478 26 -26 c20 -20 31
-24 57 -19 69 13 67 -6 67 537 0 313 -4 507 -11 541 -39 190 -207 358 -397
397 -36 8 -392 11 -1133 11 l-1080 0 -24 -25z"/>
<path d="M2185 5067 c-96 -38 -182 -105 -236 -184 l-30 -43 -747 -2 -747 -3
-51 -27 c-65 -34 -134 -111 -157 -174 -16 -46 -17 -135 -15 -1499 l3 -1450 27
-51 c15 -28 49 -71 76 -95 l48 -43 -175 -270 c-150 -232 -175 -276 -178 -315
-4 -52 23 -110 69 -144 37 -28 116 -34 158 -12 18 9 237 172 487 361 393 298
458 344 488 344 l35 0 0 -348 c0 -346 0 -349 23 -393 13 -24 43 -57 66 -74
l43 -30 898 -3 897 -2 124 -268 c68 -147 135 -279 150 -294 50 -51 110 -49
166 7 l33 33 0 261 0 261 73 0 c86 0 138 21 184 73 18 20 37 53 42 74 7 25 11
258 11 665 l0 627 398 -302 c218 -165 413 -309 432 -319 73 -38 166 -6 208 73
42 79 35 97 -148 379 -89 138 -161 252 -159 254 2 2 31 11 64 21 164 47 280
154 346 320 24 60 24 63 27 497 l3 438 -25 25 c-30 30 -64 32 -99 5 l-26 -21
-3 -427 -3 -427 -31 -65 c-38 -80 -101 -145 -174 -179 l-55 -26 -1190 -3
c-655 -1 -1205 0 -1222 3 l-33 6 -2 1152 c-3 1098 -4 1154 -22 1192 -24 53
-79 120 -116 142 -17 9 -30 21 -30 26 0 17 68 70 132 103 49 25 69 41 74 59
10 39 -4 73 -36 90 -34 17 -35 17 -75 2z m-182 -391 c42 -17 83 -66 97 -114
14 -51 14 -2773 0 -2824 -14 -48 -55 -97 -97 -114 -26 -11 -170 -14 -776 -14
l-743 0 -44 23 c-30 14 -53 36 -67 62 l-23 40 0 1415 0 1415 23 40 c14 26 37
48 67 63 l44 22 743 0 c606 0 750 -3 776 -14z m1083 -2546 l704 0 0 -675 c0
-656 -1 -675 -19 -685 -13 -7 -399 -10 -1178 -10 -1032 0 -1161 2 -1181 16
-22 15 -22 15 -22 350 l0 334 305 0 c287 0 308 1 362 21 98 37 180 139 198
247 l7 42 618 0 c609 0 618 0 644 21 34 27 36 79 4 109 -21 20 -32 20 -645 20
l-623 0 0 111 0 112 61 -7 c34 -3 379 -6 765 -6z m1564 -237 c85 -131 165
-255 178 -276 31 -47 24 -56 -20 -25 -31 21 -528 397 -655 496 l-55 42 199 0
200 0 153 -237z m-3770 -461 c-185 -147 -716 -539 -718 -532 -2 6 70 124 160
262 89 138 170 261 178 274 15 24 15 24 215 24 l200 0 -35 -28z m2610 -984 c0
-89 -2 -159 -4 -157 -6 5 -146 309 -146 315 0 2 34 4 75 4 l75 0 0 -162z"/>
<path d="M720 3825 c-75 -22 -136 -59 -170 -106 -57 -79 -46 -166 23 -188 46
-15 74 -3 116 49 40 49 83 70 147 70 97 0 150 -48 141 -128 -5 -44 -11 -52
-106 -142 -108 -102 -133 -143 -146 -236 -8 -62 8 -130 35 -144 40 -21 121 -7
142 24 4 6 8 29 8 51 0 84 17 114 115 208 109 104 154 178 162 266 10 111 -64
216 -186 262 -74 28 -206 35 -281 14z"/>
<path d="M1470 3825 c-146 -41 -237 -155 -199 -246 14 -36 66 -63 103 -53 14
3 43 27 65 54 48 57 91 74 166 68 67 -6 112 -37 121 -83 11 -62 -3 -86 -106
-185 -109 -104 -133 -145 -145 -242 -8 -65 7 -123 35 -138 40 -21 121 -7 142
24 4 6 8 29 8 51 0 83 16 111 124 218 124 124 150 170 150 272 0 53 -5 80 -21
111 -30 56 -94 109 -162 135 -74 28 -206 34 -281 14z"/>
<path d="M734 2837 c-64 -58 -55 -152 19 -197 80 -49 187 9 187 102 0 79 -49
128 -130 128 -32 0 -48 -7 -76 -33z"/>
<path d="M1498 2852 c-56 -34 -73 -112 -38 -169 38 -63 112 -80 171 -40 58 39
76 106 44 167 -29 57 -120 78 -177 42z"/>
<path d="M1651 1354 c-12 -15 -21 -33 -21 -40 0 -26 23 -62 47 -73 17 -8 204
-11 618 -11 l594 0 27 23 c33 28 37 76 9 107 -18 20 -29 20 -636 20 l-618 0
-20 -26z"/>
<path d="M3120 1360 c-25 -25 -26 -71 -1 -101 19 -23 24 -24 200 -27 l181 -3
25 25 c31 31 33 78 5 106 -19 19 -33 20 -205 20 -172 0 -186 -1 -205 -20z"/>
<path d="M3329 4776 c-115 -41 -192 -151 -193 -276 0 -81 15 -127 64 -189 57
-71 132 -106 230 -106 90 0 149 24 207 82 123 123 117 318 -13 432 -25 22 -66
47 -91 55 -56 19 -154 20 -204 2z m167 -152 c94 -45 99 -191 8 -250 -35 -23
-113 -23 -148 0 -40 26 -66 75 -66 125 0 107 107 172 206 125z"/>
<path d="M3129 4097 c-56 -37 -69 -76 -69 -205 0 -73 5 -124 14 -146 15 -35
63 -76 90 -76 14 0 16 -38 16 -375 0 -371 0 -375 -20 -375 -29 0 -70 -23 -100
-55 -24 -25 -25 -33 -28 -170 -4 -159 4 -192 56 -230 26 -19 45 -20 387 -23
328 -2 363 -1 394 15 63 33 75 61 79 184 3 60 1 129 -2 154 -10 61 -58 112
-114 121 l-42 7 0 556 c0 538 -1 557 -20 589 -11 18 -32 37 -46 42 -14 6 -143
10 -293 10 -262 0 -269 -1 -302 -23z m511 -688 c0 -393 3 -567 11 -582 19 -38
52 -57 97 -57 l42 0 0 -90 0 -90 -305 0 -305 0 0 90 0 90 31 0 c40 0 82 25
105 64 18 29 19 57 19 456 0 485 2 475 -81 511 l-44 20 0 74 0 75 215 0 215 0
0 -561z"/>
</g>
</svg>
