<?xml version="1.0" standalone="no"?>
<!DOCTYPE svg PUBLIC "-//W3C//DTD SVG 20010904//EN"
 "http://www.w3.org/TR/2001/REC-SVG-20010904/DTD/svg10.dtd">
<svg version="1.0" xmlns="http://www.w3.org/2000/svg"
 width="512.000000pt" height="512.000000pt" viewBox="0 0 512.000000 512.000000"
 preserveAspectRatio="xMidYMid meet">

<g transform="translate(0.000000,512.000000) scale(0.100000,-0.100000)"
fill="#000000" stroke="none">
<path d="M2865 5114 c-390 -56 -656 -183 -905 -433 -215 -216 -348 -459 -412
-754 -19 -85 -22 -134 -22 -297 -1 -213 9 -280 66 -460 141 -447 505 -812 954
-959 173 -56 241 -66 464 -66 178 0 219 3 310 23 627 140 1087 642 1171 1277
16 123 6 362 -21 487 -63 299 -213 565 -437 778 -203 194 -456 325 -732 381
-92 19 -366 33 -436 23z m425 -213 c520 -120 914 -533 1005 -1055 20 -115 19
-317 -1 -437 -82 -478 -431 -877 -893 -1023 -248 -78 -550 -77 -793 4 -266 89
-517 274 -666 492 -81 118 -158 288 -194 425 -40 154 -49 363 -24 523 89 562
532 1000 1101 1090 97 15 367 4 465 -19z"/>
<path d="M2951 4574 c-29 -24 -31 -30 -31 -99 l0 -72 -84 -5 c-69 -4 -96 -10
-149 -36 -77 -38 -138 -101 -175 -180 -26 -55 -27 -63 -27 -232 0 -165 1 -178
24 -225 30 -59 94 -126 148 -153 63 -33 145 -42 361 -42 199 0 207 -1 246 -24
24 -14 51 -42 66 -68 22 -38 25 -55 25 -148 0 -89 -4 -111 -22 -147 -46 -86
-99 -103 -323 -103 -171 0 -226 8 -273 42 -36 26 -67 88 -67 135 0 57 -18 111
-43 128 -35 25 -90 19 -122 -12 -26 -27 -27 -31 -23 -118 5 -112 37 -182 115
-256 71 -67 128 -91 233 -98 l85 -6 5 -78 c6 -92 25 -117 90 -117 65 0 84 25
90 117 l5 78 87 6 c109 7 175 38 247 114 87 92 96 122 96 315 l0 165 -34 63
c-41 75 -103 135 -179 170 -56 26 -62 27 -307 32 -277 6 -285 7 -325 73 -17
27 -20 51 -20 160 0 139 6 161 57 209 46 44 72 48 283 48 211 0 237 -4 283
-48 42 -39 55 -71 63 -146 11 -104 63 -148 133 -112 45 24 53 48 49 140 -9
198 -149 340 -350 355 l-83 6 -3 72 c-3 66 -5 74 -33 97 -39 33 -79 33 -118 0z"/>
<path d="M4509 2478 c-37 -13 -84 -37 -105 -53 -37 -28 -639 -533 -830 -697
l-92 -78 -43 35 c-24 19 -69 45 -99 57 -52 21 -74 22 -435 28 -440 6 -410 -1
-539 118 -181 166 -305 201 -716 202 -243 0 -394 -13 -487 -41 -95 -29 -228
-101 -299 -162 -85 -73 -750 -779 -759 -806 -23 -73 55 -143 129 -115 8 3 175
175 370 382 196 208 375 392 398 410 55 43 188 106 258 123 41 10 141 14 385
14 321 0 332 -1 395 -23 83 -30 118 -52 199 -125 80 -72 137 -110 211 -139 53
-22 72 -23 436 -28 l381 -5 41 -28 c23 -15 51 -45 62 -67 24 -46 27 -128 6
-168 -19 -36 -65 -78 -99 -91 -19 -7 -242 -11 -673 -11 -556 0 -649 -2 -674
-15 -59 -30 -68 -98 -21 -146 l30 -30 683 3 683 3 66 32 c79 39 140 102 177
181 23 49 27 70 27 151 l0 94 475 400 c261 220 490 406 509 414 87 37 201 -8
249 -97 20 -37 23 -55 19 -102 -3 -33 -14 -72 -26 -90 -11 -18 -363 -376 -783
-794 -725 -724 -766 -763 -821 -783 -57 -21 -68 -21 -840 -21 -859 0 -847 0
-970 -61 -41 -21 -93 -62 -154 -123 -85 -84 -93 -95 -93 -130 0 -70 72 -116
133 -85 12 6 56 44 97 85 43 42 96 83 125 96 l50 23 825 5 c816 5 826 5 877
27 29 11 72 32 95 46 24 14 399 383 834 819 756 758 793 796 814 853 30 78 33
197 7 273 -37 104 -146 213 -245 242 -77 24 -172 22 -243 -2z"/>
</g>
</svg>
