<?xml version="1.0" standalone="no"?>
<!DOCTYPE svg PUBLIC "-//W3C//DTD SVG 20010904//EN"
 "http://www.w3.org/TR/2001/REC-SVG-20010904/DTD/svg10.dtd">
<svg version="1.0" xmlns="http://www.w3.org/2000/svg"
 width="512.000000pt" height="512.000000pt" viewBox="0 0 512.000000 512.000000"
 preserveAspectRatio="xMidYMid meet">

<g transform="translate(0.000000,512.000000) scale(0.100000,-0.100000)"
fill="#000000" stroke="none">
<path d="M1175 4473 c-279 -39 -529 -245 -619 -511 -86 -252 -39 -520 128
-728 l55 -68 -57 -31 c-374 -200 -616 -553 -672 -978 -14 -112 -13 -672 2
-700 25 -47 19 -46 486 -47 l442 0 0 -357 c1 -377 1 -377 47 -401 31 -17 3115
-17 3146 0 46 24 46 24 47 401 l0 357 443 0 c466 1 460 0 485 47 15 28 16 584
2 701 -52 411 -299 775 -658 970 l-71 38 55 68 c239 298 225 718 -33 997 -209
225 -520 304 -810 205 -133 -45 -193 -90 -193 -143 0 -30 51 -83 80 -83 11 0
38 9 60 20 194 99 385 104 565 14 300 -148 417 -515 259 -815 -66 -125 -194
-233 -332 -281 -56 -19 -87 -23 -187 -23 -66 0 -143 4 -172 9 -48 8 -53 7 -77
-17 -18 -18 -26 -37 -26 -62 0 -64 50 -90 198 -104 136 -13 239 5 414 74 l46
19 65 -28 c159 -67 344 -219 450 -367 55 -78 117 -199 146 -287 48 -141 53
-185 58 -490 l5 -292 -391 0 c-215 0 -391 4 -391 9 0 22 -33 192 -46 241 -83
294 -227 535 -447 747 -105 101 -277 225 -388 279 l-57 27 64 80 c251 318 268
766 41 1102 -111 164 -281 296 -465 360 -501 175 -1046 -97 -1206 -602 -92
-293 -32 -619 158 -860 l64 -80 -37 -17 c-20 -10 -74 -41 -121 -68 -281 -169
-494 -403 -635 -702 -65 -136 -99 -242 -127 -397 l-22 -119 -388 0 -388 0 0
248 c0 363 23 483 133 694 116 224 330 420 549 503 l47 17 88 -35 c112 -45
180 -58 293 -58 138 0 249 28 264 66 13 36 6 76 -20 102 -24 24 -29 25 -77 17
-29 -5 -106 -9 -172 -9 -146 0 -217 21 -331 97 -167 112 -258 287 -257 498 1
224 127 425 328 524 180 90 371 85 565 -14 53 -27 76 -25 111 9 70 71 10 141
-171 199 -112 36 -240 49 -345 35z m1504 -174 c162 -26 306 -101 426 -223 95
-97 153 -194 191 -321 36 -122 39 -292 6 -408 -63 -222 -205 -394 -407 -492
-117 -57 -203 -77 -335 -77 -132 0 -218 20 -335 77 -202 98 -344 270 -407 492
-33 116 -30 286 6 408 38 127 96 224 191 321 180 182 421 263 664 223z m-546
-1589 c142 -75 256 -102 427 -102 170 0 285 27 427 101 l95 50 56 -23 c162
-68 303 -166 448 -311 185 -184 313 -408 375 -652 43 -170 49 -248 49 -620 l0
-343 -1450 0 -1450 0 0 343 c0 190 5 381 11 428 44 342 191 635 435 869 115
111 201 170 353 247 68 35 124 63 126 63 1 0 45 -23 98 -50z"/>
</g>
</svg>
