<?xml version="1.0" standalone="no"?>
<!DOCTYPE svg PUBLIC "-//W3C//DTD SVG 20010904//EN"
 "http://www.w3.org/TR/2001/REC-SVG-20010904/DTD/svg10.dtd">
<svg version="1.0" xmlns="http://www.w3.org/2000/svg"
 width="512.000000pt" height="512.000000pt" viewBox="0 0 512.000000 512.000000"
 preserveAspectRatio="xMidYMid meet">

<g transform="translate(0.000000,512.000000) scale(0.100000,-0.100000)"
fill="#000000" stroke="none">
<path d="M3617 5105 c-149 -28 -290 -86 -409 -166 l-56 -39 -1309 -2 -1308 -3
-63 -34 c-78 -42 -144 -114 -174 -189 l-23 -57 -3 -1859 c-1 -1228 1 -1878 8
-1915 22 -118 92 -211 198 -263 l66 -33 202 -3 201 -3 6 -123 c8 -180 48 -270
154 -346 106 -75 14 -71 1548 -68 l1370 3 57 27 c108 50 187 154 209 272 6 32
8 338 7 770 l-3 718 -33 29 c-41 37 -89 39 -129 5 l-28 -24 -5 -744 -5 -743
-23 -37 c-13 -21 -40 -45 -66 -57 -42 -21 -47 -21 -1379 -21 -1463 0 -1377 -4
-1430 59 -36 43 -42 69 -42 181 l0 95 1095 5 1095 5 67 33 c108 53 179 150
199 271 5 31 9 521 9 1116 l0 1060 168 1 c122 0 185 5 235 17 38 9 70 17 73
17 2 0 4 -99 4 -219 l0 -219 26 -31 c21 -25 33 -31 66 -31 100 0 108 25 108
337 l0 248 79 53 c150 99 291 263 366 426 242 523 27 1131 -490 1387 -139 69
-266 100 -430 105 -88 2 -155 -1 -208 -11z m396 -214 c240 -63 444 -235 552
-464 57 -119 77 -213 77 -357 0 -144 -20 -238 -77 -359 -197 -415 -678 -600
-1100 -424 -141 59 -300 192 -383 321 -166 261 -178 607 -30 872 119 213 329
369 567 421 111 24 281 20 394 -10z m-1063 -195 c0 -3 -14 -25 -30 -50 -82
-122 -151 -311 -167 -461 l-8 -70 -865 -2 c-631 -2 -871 -6 -887 -14 -47 -25
-53 -61 -53 -296 0 -239 7 -274 60 -300 31 -16 1843 -19 1883 -4 23 9 28 5 52
-31 81 -122 272 -282 423 -352 l62 -30 -2 -1115 -3 -1116 -24 -38 c-12 -21
-40 -46 -62 -57 -37 -20 -65 -20 -1384 -20 -1319 0 -1347 0 -1384 20 -22 11
-50 36 -62 57 l-24 38 -3 1844 c-1 1222 1 1856 8 1881 13 48 41 83 82 103 30
15 145 17 1211 17 647 0 1177 -2 1177 -4z m-202 -893 l-3 -108 -802 -3 -803
-2 0 110 0 110 805 0 806 0 -3 -107z"/>
<path d="M3729 4591 c-78 -79 8 -205 108 -157 65 31 76 114 21 161 -42 35 -91
34 -129 -4z"/>
<path d="M3754 4290 c-54 -21 -54 -25 -54 -433 l0 -379 29 -29 c58 -57 151
-26 166 55 3 17 5 190 3 384 l-3 354 -33 29 c-33 30 -67 36 -108 19z"/>
<path d="M977 3115 c-34 -34 -40 -67 -23 -110 29 -68 -16 -65 993 -65 844 0
910 1 943 18 60 30 72 108 23 157 l-26 25 -942 0 -942 0 -26 -25z"/>
<path d="M1003 2660 c-32 -13 -57 -57 -56 -98 1 -27 9 -43 32 -64 l31 -28 933
0 c1036 0 963 -5 994 67 12 31 12 38 -4 71 -10 20 -29 42 -43 49 -19 10 -231
13 -945 12 -507 0 -930 -4 -942 -9z"/>
<path d="M1010 2187 c-49 -17 -76 -72 -60 -122 23 -70 -46 -65 995 -65 876 0
942 2 962 18 48 37 46 127 -4 159 -25 17 -89 18 -943 20 -692 2 -924 -1 -950
-10z"/>
<path d="M979 1692 c-23 -21 -31 -37 -32 -64 -1 -42 24 -85 59 -98 41 -16
1853 -13 1884 3 14 7 33 29 43 49 16 33 16 40 4 71 -31 72 42 67 -994 67
l-933 0 -31 -28z"/>
<path d="M4126 2269 c-17 -19 -26 -43 -26 -64 0 -21 9 -45 26 -64 21 -25 33
-31 66 -31 53 0 77 14 94 57 12 27 13 42 4 69 -15 44 -45 64 -96 64 -35 0 -47
-5 -68 -31z"/>
</g>
</svg>
