<?xml version="1.0" standalone="no"?>
<!DOCTYPE svg PUBLIC "-//W3C//DTD SVG 20010904//EN"
 "http://www.w3.org/TR/2001/REC-SVG-20010904/DTD/svg10.dtd">
<svg version="1.0" xmlns="http://www.w3.org/2000/svg"
 width="512.000000pt" height="512.000000pt" viewBox="0 0 512.000000 512.000000"
 preserveAspectRatio="xMidYMid meet">

<g transform="translate(0.000000,512.000000) scale(0.100000,-0.100000)"
fill="#000000" stroke="none">
<path d="M1410 4427 l0 -504 -23 -21 c-23 -22 -24 -22 -525 -22 l-502 0 0
-1787 c0 -1682 1 -1790 18 -1823 9 -19 32 -45 51 -57 l34 -23 1616 0 c1546 0
1618 1 1650 18 19 10 43 34 53 53 17 32 18 124 18 2299 0 2178 -1 2267 -18
2300 -40 75 47 70 -1229 70 l-1143 0 0 -503z m1539 -953 c28 -35 26 -69 -4
-99 l-24 -25 -835 0 c-459 0 -842 3 -851 6 -24 10 -46 60 -39 89 14 57 -25 55
890 55 l843 0 20 -26z m388 -546 c30 -28 30 -74 1 -105 l-21 -23 -1233 0
c-1189 0 -1233 1 -1255 19 -17 13 -23 29 -23 56 0 27 6 43 23 56 22 18 66 19
1254 19 l1231 0 23 -22z m-2 -553 c31 -30 32 -71 3 -102 l-21 -23 -1234 0
-1234 0 -26 26 c-20 20 -24 31 -19 57 3 18 16 40 27 50 20 16 94 17 1251 17
l1229 0 24 -25z m0 -550 c32 -31 33 -74 2 -103 l-23 -22 -1239 2 -1238 3 -20
27 c-23 30 -18 67 13 98 20 20 39 20 1250 20 l1231 0 24 -25z m0 -550 c31 -30
33 -77 5 -105 -20 -20 -33 -20 -1259 -20 l-1240 0 -20 26 c-12 15 -21 33 -21
40 0 25 22 62 44 72 14 7 423 11 1244 11 l1223 1 24 -25z m-1145 -435 c19 -5
65 -31 102 -56 91 -63 125 -63 216 0 76 52 115 66 187 66 72 0 111 -14 187
-66 91 -63 125 -63 216 0 103 70 193 87 239 44 50 -47 18 -114 -61 -129 -27
-5 -64 -21 -84 -38 -74 -57 -121 -75 -202 -75 -82 0 -129 18 -203 78 -33 26
-48 31 -92 31 -44 0 -59 -5 -92 -31 -74 -60 -121 -78 -203 -78 -81 0 -128 18
-202 75 -20 16 -57 33 -82 38 -26 5 -56 17 -66 26 -27 24 -26 73 2 102 24 26
77 31 138 13z"/>
<path d="M845 4440 l-410 -410 413 0 412 0 0 410 c0 226 -1 410 -3 410 -1 0
-187 -184 -412 -410z"/>
<path d="M4193 4369 c-17 -5 -41 -21 -52 -35 -20 -25 -21 -40 -21 -235 l0
-209 320 0 320 0 0 196 c0 153 -3 203 -15 228 -28 59 -37 61 -290 63 -126 1
-244 -2 -262 -8z"/>
<path d="M4120 2375 l0 -1355 120 0 120 0 0 1355 0 1355 -120 0 -120 0 0
-1355z"/>
<path d="M4512 2378 l3 -1353 123 -3 122 -3 0 1356 0 1355 -125 0 -125 0 2
-1352z"/>
<path d="M4144 818 c112 -250 251 -536 267 -550 43 -37 55 -18 205 301 l142
301 -319 0 -319 0 24 -52z"/>
</g>
</svg>
