<?xml version="1.0" standalone="no"?>
<!DOCTYPE svg PUBLIC "-//W3C//DTD SVG 20010904//EN"
 "http://www.w3.org/TR/2001/REC-SVG-20010904/DTD/svg10.dtd">
<svg version="1.0" xmlns="http://www.w3.org/2000/svg"
 width="512.000000pt" height="512.000000pt" viewBox="0 0 512.000000 512.000000"
 preserveAspectRatio="xMidYMid meet">

<g transform="translate(0.000000,512.000000) scale(0.100000,-0.100000)"
fill="#000000" stroke="none">
<path d="M73 4989 c-17 -5 -41 -21 -52 -35 l-21 -27 0 -2053 c0 -1570 3 -2059
12 -2079 23 -52 44 -55 333 -55 l265 0 0 -262 c0 -303 4 -323 74 -346 30 -10
370 -12 1633 -10 l1595 3 29 33 29 32 0 601 0 600 31 17 c17 9 64 40 104 68
l73 52 33 -34 33 -34 -22 -23 c-45 -48 -40 -54 251 -344 149 -149 286 -278
302 -286 52 -25 110 -30 167 -13 135 39 207 174 163 307 -16 49 -41 77 -289
327 -294 295 -300 300 -353 250 l-23 -22 -30 29 c-17 16 -30 32 -30 36 0 5 25
46 57 91 148 217 218 449 217 728 0 170 -14 261 -64 412 -97 289 -311 552
-572 703 l-48 27 0 320 0 320 -29 29 -29 29 -276 0 -275 0 -3 279 c-3 312 -3
310 -77 331 -47 13 -3163 12 -3208 -1z m3165 -361 l2 -248 -1280 0 -1280 0
-32 -29 -33 -29 -3 -1731 -2 -1731 -245 0 -245 0 0 2010 0 2010 1558 -2 1557
-3 3 -247z m612 -628 c0 -143 -1 -260 -3 -260 -2 0 -35 11 -73 23 -135 47
-238 62 -409 62 -130 -1 -180 -5 -265 -24 -510 -112 -894 -501 -1001 -1014
-28 -132 -30 -351 -5 -480 102 -528 493 -927 1019 -1038 201 -43 469 -27 661
40 33 12 63 21 68 21 4 0 8 -245 8 -545 l0 -545 -1557 2 -1558 3 -3 2008 -2
2007 1560 0 1560 0 0 -260z m-300 -305 c483 -79 861 -440 966 -925 25 -112 25
-361 0 -468 -54 -241 -163 -439 -332 -604 -166 -162 -358 -264 -591 -314 -98
-21 -320 -24 -423 -5 -246 44 -454 153 -631 330 -172 171 -273 360 -325 603
-24 111 -24 342 0 451 50 230 145 413 301 576 273 287 653 417 1035 356z m775
-2095 c23 -24 26 -33 17 -42 -10 -10 -19 -6 -43 19 -18 17 -28 36 -25 42 11
17 20 14 51 -19z m215 -74 c0 -6 -36 -47 -80 -91 -76 -75 -81 -78 -97 -62 -17
16 -13 22 67 102 64 65 87 82 97 73 7 -6 13 -16 13 -22z m285 -446 l-85 -85
-137 137 -138 138 85 85 85 85 137 -137 138 -138 -85 -85z m172 -68 c-8 -72
-77 -124 -144 -107 -26 6 -25 7 52 85 43 43 83 76 88 73 5 -3 7 -26 4 -51z"/>
<path d="M980 3883 c-39 -14 -53 -69 -24 -97 14 -14 73 -16 499 -16 478 0 484
0 495 20 18 33 8 73 -20 87 -19 10 -133 13 -480 12 -250 0 -462 -3 -470 -6z"/>
<path d="M962 3564 c-27 -19 -29 -64 -4 -87 17 -15 66 -17 494 -17 447 0 476
1 491 18 22 24 21 65 -1 85 -17 15 -65 17 -488 17 -409 0 -472 -2 -492 -16z"/>
<path d="M956 3254 c-20 -19 -20 -54 -2 -80 14 -18 32 -19 487 -22 522 -3 519
-3 519 58 0 62 16 60 -510 60 -422 0 -480 -2 -494 -16z"/>
<path d="M962 2954 c-27 -19 -29 -64 -4 -87 17 -15 66 -17 495 -17 523 0 507
-2 507 60 0 60 3 60 -510 60 -405 0 -468 -2 -488 -16z"/>
<path d="M1384 1640 c-124 -18 -236 -79 -316 -169 -181 -207 -170 -514 26
-706 64 -63 158 -116 236 -134 75 -17 201 -13 271 9 35 10 64 18 64 17 13 -24
122 -176 133 -184 12 -10 101 -13 364 -13 l349 0 25 25 c18 19 23 31 19 48
-14 46 -20 47 -365 47 l-327 0 -48 70 -48 70 55 58 c242 253 169 657 -147 815
-88 44 -197 61 -291 47z m201 -139 c135 -48 235 -170 258 -313 l6 -38 -190 0
-189 0 0 185 0 185 30 0 c17 0 55 -9 85 -19z m-235 -185 l0 -194 -115 -97
c-63 -53 -119 -94 -125 -90 -5 3 -19 38 -31 77 -57 186 25 383 194 468 33 16
64 30 69 30 4 0 8 -87 8 -194z m475 -313 c-10 -41 -48 -103 -90 -146 l-36 -37
-52 72 c-57 80 -91 96 -128 62 -29 -26 -23 -54 26 -125 l45 -64 -28 -12 c-34
-15 -164 -16 -217 -2 -41 11 -145 68 -145 80 0 4 51 50 113 103 l112 96 204 0
203 0 -7 -27z"/>
<path d="M2052 1234 c-27 -19 -29 -64 -4 -87 17 -15 55 -17 344 -17 302 0 326
1 341 18 24 26 21 68 -5 86 -34 24 -642 24 -676 0z"/>
<path d="M2402 924 c-26 -18 -30 -65 -6 -88 14 -14 82 -16 604 -16 647 0 620
-3 620 60 0 61 14 60 -620 60 -505 0 -578 -2 -598 -16z"/>
<path d="M2916 604 c-20 -19 -20 -54 -2 -80 14 -18 31 -19 333 -22 355 -2 366
-1 371 56 6 63 13 62 -354 62 -289 0 -335 -2 -348 -16z"/>
<path d="M3257 3529 c-223 -23 -435 -126 -598 -288 -126 -126 -213 -277 -261
-451 -20 -74 -23 -108 -23 -255 0 -134 4 -184 19 -235 33 -121 77 -220 138
-312 146 -223 380 -379 647 -433 125 -26 334 -17 456 19 409 121 690 462 725
879 24 295 -79 578 -289 788 -166 166 -368 262 -604 288 -53 6 -104 10 -114
10 -10 -1 -53 -5 -96 -10z m273 -130 c232 -43 445 -186 575 -388 98 -151 140
-300 138 -486 -1 -149 -23 -241 -92 -380 -201 -407 -679 -591 -1107 -426 -220
85 -410 274 -494 494 -51 132 -63 203 -57 357 6 161 21 221 87 355 90 181 219
310 395 395 187 91 357 115 555 79z"/>
</g>
</svg>
