<?xml version="1.0" standalone="no"?>
<!DOCTYPE svg PUBLIC "-//W3C//DTD SVG 20010904//EN"
 "http://www.w3.org/TR/2001/REC-SVG-20010904/DTD/svg10.dtd">
<svg version="1.0" xmlns="http://www.w3.org/2000/svg"
 width="512.000000pt" height="512.000000pt" viewBox="0 0 512.000000 512.000000"
 preserveAspectRatio="xMidYMid meet">

<g transform="translate(0.000000,512.000000) scale(0.100000,-0.100000)"
fill="#000000" stroke="none">
<path d="M2520 5014 c-334 -29 -603 -97 -866 -219 l-90 -42 -38 33 c-54 47
-123 68 -205 62 -113 -8 -199 -67 -251 -170 -33 -67 -39 -147 -17 -222 l12
-38 -122 -123 c-110 -111 -123 -127 -123 -159 0 -25 7 -40 26 -55 49 -38 65
-30 193 99 l119 120 54 -25 c73 -34 181 -35 253 -1 51 23 108 72 136 115 l15
24 100 -33 c205 -68 443 -172 591 -258 l72 -42 -6 -53 c-4 -35 0 -73 11 -109
l16 -56 -168 -169 c-92 -92 -211 -222 -264 -288 l-95 -120 -78 3 c-70 3 -83 1
-141 -28 -37 -18 -76 -46 -92 -67 -15 -19 -34 -43 -42 -53 -13 -16 -42 -20
-215 -30 -227 -13 -376 -29 -589 -66 -144 -25 -149 -25 -159 -7 -14 24 -67 77
-91 90 -19 10 -18 16 28 156 41 127 133 329 221 488 31 55 23 89 -24 113 -60
32 -90 1 -195 -204 -64 -125 -136 -304 -166 -416 l-23 -82 -56 -11 c-160 -32
-263 -167 -248 -326 11 -114 80 -209 182 -252 l42 -17 6 -146 c24 -599 308
-1225 745 -1642 79 -76 81 -78 70 -109 -16 -46 -5 -157 21 -207 45 -88 138
-155 233 -168 69 -10 129 3 190 40 l55 33 59 -30 c211 -107 509 -194 779 -228
129 -16 451 -16 580 0 270 34 575 124 795 236 l45 23 34 -29 c75 -62 205 -78
297 -35 111 51 175 141 182 254 3 34 -1 82 -8 105 l-11 43 103 105 c381 387
611 846 694 1389 22 142 25 518 6 655 -47 327 -143 630 -277 867 -40 72 -44
83 -31 97 53 59 72 191 40 284 -21 62 -92 139 -156 171 -58 29 -150 35 -219
15 l-38 -12 -79 72 -80 72 5 83 c4 62 1 96 -11 134 -35 103 -144 189 -256 199
-79 7 -116 -1 -185 -42 l-58 -36 -111 47 c-221 93 -424 150 -646 180 -106 14
-398 25 -480 18z m477 -169 c207 -30 409 -87 590 -167 l93 -40 -6 -42 c-4 -22
-8 -42 -9 -44 -2 -2 -62 -23 -134 -48 -204 -69 -417 -166 -597 -270 l-40 -24
-42 31 c-105 77 -253 77 -359 0 l-40 -29 -44 25 c-176 102 -495 241 -681 297
-85 26 -88 28 -88 56 0 27 7 33 68 64 210 105 534 189 812 210 102 7 367 -3
477 -19z m-1587 -163 c105 -52 108 -207 6 -268 -47 -28 -117 -24 -160 10 -51
38 -69 79 -64 138 3 27 14 62 25 76 25 35 79 62 123 62 19 0 51 -8 70 -18z
m2638 -2 c96 -59 97 -207 2 -263 -34 -20 -100 -24 -141 -9 -59 23 -99 105 -85
173 19 98 139 151 224 99z m-297 -334 c61 -66 127 -97 213 -98 67 -1 126 14
169 44 15 11 31 18 36 16 5 -2 37 -30 71 -62 l62 -59 -24 -50 c-18 -41 -23
-67 -22 -131 0 -99 29 -162 101 -225 l47 -42 -38 -117 c-86 -263 -205 -536
-343 -785 -75 -136 -78 -139 -106 -133 -16 3 -46 6 -66 6 -36 0 -36 1 -91 107
-174 340 -435 686 -708 942 l-106 100 14 38 c7 21 14 72 14 113 l1 74 40 24
c77 45 275 142 362 178 85 36 299 112 316 113 5 1 31 -23 58 -53z m877 -206
c130 -80 74 -280 -79 -280 -82 0 -149 68 -149 150 0 115 130 189 228 130z
m-1878 -12 c54 -37 72 -70 72 -127 0 -90 -60 -154 -146 -154 -115 0 -187 113
-137 215 39 82 141 113 211 66z m-194 -409 c66 -30 160 -29 237 0 l57 23 94
-86 c94 -87 227 -231 331 -361 94 -116 266 -382 335 -517 62 -121 64 -128 48
-145 -17 -16 -22 -15 -110 26 -333 155 -669 272 -998 346 -129 29 -400 75
-442 75 -21 0 -31 8 -44 33 -9 17 -27 46 -39 63 l-23 30 91 115 c90 112 386
419 405 419 5 0 31 -10 58 -21z m2156 -94 c116 -219 198 -482 240 -770 20
-136 17 -493 -5 -635 -20 -123 -75 -349 -102 -418 l-17 -42 -77 70 c-138 127
-354 306 -476 394 l-119 86 3 83 c2 74 -1 88 -26 137 -16 30 -35 64 -42 76
-12 18 -6 34 68 166 135 243 258 525 349 800 l45 137 41 4 c22 2 48 3 56 3 8
-1 36 -42 62 -91z m-2845 -505 c37 -22 73 -86 73 -127 0 -46 -41 -114 -80
-135 -71 -37 -162 -15 -202 50 -43 70 -22 167 48 213 39 26 118 25 161 -1z
m-1486 -116 c42 -21 69 -73 69 -131 0 -193 -279 -206 -298 -13 -12 125 114
204 229 144z m1112 -80 c4 -22 22 -65 40 -95 l33 -54 -47 -100 c-137 -295
-234 -636 -286 -1005 -14 -99 -18 -193 -18 -456 l0 -332 -33 -21 c-30 -20 -34
-20 -57 -5 -37 24 -176 181 -254 288 -277 374 -465 882 -488 1316 l-6 115 53
24 c96 43 159 127 168 223 5 55 -17 47 237 82 240 33 545 64 615 62 32 -1 35
-4 43 -42z m847 -30 c373 -68 771 -195 1108 -355 l114 -54 1 -80 c2 -63 7 -91
28 -132 l25 -51 -104 -124 c-196 -230 -480 -500 -718 -680 -310 -235 -698
-454 -1062 -599 l-132 -53 -31 37 c-35 43 -96 81 -155 96 l-41 11 -6 82 c-10
128 -8 420 4 548 32 351 124 706 265 1027 l56 128 92 0 c76 0 98 4 135 23 63
34 128 105 148 164 l18 50 60 -7 c33 -3 121 -17 195 -31z m1610 -364 c89 -63
78 -207 -20 -257 -54 -28 -82 -29 -135 -3 -107 52 -114 203 -11 266 51 31 117
29 166 -6z m223 -417 c183 -132 379 -298 512 -432 l79 -81 -37 -76 c-112 -226
-314 -496 -484 -648 l-42 -37 -41 21 c-39 20 -42 24 -36 53 4 18 9 116 13 218
l6 187 -26 26 c-32 32 -71 33 -101 3 -21 -22 -23 -33 -30 -212 -3 -105 -9
-201 -12 -215 -4 -20 -17 -30 -57 -44 -37 -13 -69 -35 -108 -75 -68 -70 -92
-129 -88 -227 l2 -67 -57 -29 c-86 -43 -247 -104 -366 -138 -518 -149 -1094
-105 -1580 121 l-88 41 5 57 c3 31 8 59 12 62 3 4 71 32 151 64 482 192 952
480 1340 822 155 137 387 374 503 514 l88 106 52 -14 c28 -7 61 -13 73 -13 20
0 25 -10 44 -91 11 -50 30 -137 40 -193 23 -126 25 -132 59 -146 31 -12 68 -2
90 24 19 23 9 116 -33 301 l-34 150 21 17 c12 10 25 18 30 18 4 0 49 -30 100
-67z m-2763 -1376 c108 -57 108 -211 0 -268 -70 -38 -158 -11 -199 61 -36 64
-24 136 31 187 50 47 105 54 168 20z m2706 -27 c37 -36 54 -73 54 -122 0 -150
-200 -204 -281 -76 -16 26 -19 45 -16 92 3 54 7 62 46 99 42 39 44 39 106 35
51 -3 70 -9 91 -28z"/>
</g>
</svg>
