<svg xmlns="http://www.w3.org/2000/svg" id="Capa_1" enable-background="new 0 0 512 512" height="512" viewBox="0 0 512 512" width="512" class="icon"><g><g><g><path fill="currentColor" d="m348.229 279.91c-4.182 0-7.995-2.711-9.405-6.636-1.391-3.874-.2-8.32 2.936-10.986 3.271-2.781 8.098-3.143 11.746-.874 3.497 2.176 5.338 6.404 4.533 10.445-.918 4.614-5.102 8.051-9.81 8.051z"/></g><path fill="currentColor" d="m512 411.139-.085-371.092c-.003-16.267-13.239-29.504-29.506-29.509l-66.434-.021h-.009c-7.884 0-15.295 3.07-20.87 8.644-5.577 5.577-8.648 12.992-8.646 20.878l.084 371.071c0 .167.588 5.417 1.688 7.062l52.757 78.869c1.855 2.775 4.975 4.44 8.313 4.44 3.339 0 6.457-1.667 8.313-4.442l52.708-78.837c1.1-1.643 1.687-6.895 1.687-7.063zm-105.534-303.752 32.758.01v275.175l-6.575-6.576c-1.875-1.875-4.419-2.929-7.071-2.929s-5.195 1.054-7.071 2.929l-11.976 11.976zm52.758 275.269v-275.253l32.707.01.064 280.58-11.983-11.983c-3.906-3.904-10.236-3.904-14.143 0zm-49.986-349.351c1.798-1.798 4.188-2.787 6.728-2.787h.003l66.434.021c5.244.001 9.511 4.268 9.512 9.513l.012 46.362-42.7-.013-42.765-.013-.01-46.352c-.002-2.543.988-4.933 2.786-6.731zm40.052 440.188-8.917-13.33 8.807.002 9.018.003zm22.277-33.321-44.576-.013-17.782-26.582 16.367-16.366 16.617 16.618c1.875 1.875 4.419 2.929 7.071 2.929s5.195-1.054 7.071-2.929l16.603-16.604 16.386 16.386z"/><g><path fill="currentColor" d="m284.173 442.764h-90.747c-5.522 0-10-4.478-10-10v-43.245c0-5.522 4.478-10 10-10h90.747c5.522 0 10 4.478 10 10v43.245c0 5.522-4.478 10-10 10zm-80.747-20h70.747v-23.245h-70.747z"/></g><g><g><g><path fill="currentColor" d="m284.173 190.316h-210.112c-5.522 0-10-4.478-10-10 0-5.523 4.478-10 10-10h210.112c5.522 0 10 4.477 10 10s-4.478 10-10 10z"/></g></g><g><g><path fill="currentColor" d="m284.173 242.726h-210.112c-5.522 0-10-4.478-10-10 0-5.523 4.478-10 10-10h210.112c5.522 0 10 4.477 10 10 0 5.522-4.478 10-10 10z"/></g></g><g><g><path fill="currentColor" d="m284.173 295.134h-210.112c-5.522 0-10-4.477-10-10 0-5.522 4.478-10 10-10h210.112c5.522 0 10 4.478 10 10s-4.478 10-10 10z"/></g></g><g><g><path fill="currentColor" d="m284.173 347.543h-210.112c-5.522 0-10-4.478-10-10s4.478-10 10-10h210.112c5.522 0 10 4.478 10 10s-4.478 10-10 10z"/></g></g></g><g><path fill="currentColor" d="m284.173 138.789h-210.112c-5.522 0-10-4.478-10-10v-46.667c0-5.522 4.478-10 10-10h210.112c5.522 0 10 4.478 10 10v46.667c0 5.522-4.478 10-10 10zm-200.112-20h190.112v-26.667h-190.112z"/></g><g><path fill="currentColor" d="m319.069 495.142h-279.905c-21.595 0-39.164-17.57-39.164-39.164v-401.956c0-21.595 17.569-39.164 39.164-39.164h279.905c21.595 0 39.163 17.569 39.163 39.164v170.495c0 5.522-4.477 10-10 10-5.522 0-10-4.478-10-10v-170.495c0-10.567-8.597-19.164-19.163-19.164h-279.905c-10.567 0-19.164 8.597-19.164 19.164v401.955c0 10.567 8.597 19.164 19.164 19.164h279.905c10.566 0 19.163-8.597 19.163-19.164v-141.047c0-5.522 4.478-10 10-10 5.523 0 10 4.478 10 10v141.048c0 21.594-17.568 39.164-39.163 39.164z"/></g></g></g></svg>