<?xml version="1.0" encoding="utf-8"?>
<!-- Generator: Adobe Illustrator 22.0.1, SVG Export Plug-In . SVG Version: 6.00 Build 0)  -->
<svg version="1.1" id="Layer_1" xmlns="http://www.w3.org/2000/svg" xmlns:xlink="http://www.w3.org/1999/xlink" x="0px" y="0px"
	 viewBox="0 0 229 40.6" style="enable-background:new 0 0 229 40.6;" xml:space="preserve">
<style type="text/css">
	.st0{fill:#273572;}
	.st1{fill:#4D4C4E;}
	.st2{fill:#3576BC;}
	.st3{fill:#70A9DB;}
</style>
<title>DMPTool_logo_blue_shades_v1b3b_no_tag</title>
<path class="st0" d="M163.1,8.9h9.6v25.3h2.6V8.9h9.6V6.6h-21.8V8.9z M191.1,13.7c-6.1,0-9.4,4.8-9.4,10.5s3.3,10.5,9.4,10.5
	s9.4-4.8,9.4-10.5S197.2,13.7,191.1,13.7z M191.1,15.7c4.7,0,7,4.2,7,8.5s-2.3,8.5-7,8.5s-7-4.2-7-8.5S186.4,15.7,191.1,15.7z
	 M212.5,13.7c-6.1,0-9.4,4.8-9.4,10.5s3.3,10.5,9.4,10.5s9.4-4.8,9.4-10.5S218.6,13.7,212.5,13.7z M212.5,15.7c4.7,0,7,4.2,7,8.5
	s-2.3,8.5-7,8.5s-7-4.2-7-8.5S207.8,15.7,212.5,15.7z M225.6,34.1h2.4V6.6h-2.4L225.6,34.1L225.6,34.1z"/>
<path class="st1" d="M76.8,34.4h11.9c8.4,0,12.5-5.9,12.5-13.9c0-9.1-5.4-13.6-12.5-13.6H76.8V34.4z M82.8,12h4.3
	c6,0,7.9,3.6,7.9,9.1c0,6.1-3.3,8.2-6.9,8.2h-5.3L82.8,12L82.8,12z M105.3,34.4h5.7V15.1l0,0l6.7,19.3h4.7l6.7-19.5h0.1v19.5h5.7
	V6.9h-8.5l-6.1,18.9h-0.1l-6.4-18.9h-8.5L105.3,34.4L105.3,34.4z M140.2,34.4h6v-9.9h6.4c6.9,0,9.5-4.4,9.5-8.8s-2.7-8.8-9.5-8.8
	h-12.4L140.2,34.4L140.2,34.4z M146.2,11.6h4.8c2.8,0,5.3,0.6,5.3,4.1s-2.5,4.1-5.3,4.1h-4.7v-8.2L146.2,11.6z"/>
<path class="st0" d="M2.2,23l1.1-0.4l35,14.4l25.2-11.5l0.9,0.3c0.6,0.2,1.1,0.7,1.2,1.3c0,0.6-0.4,1.2-1,1.4l-25,11.5
	c-0.8,0.3-1.7,0.3-2.5,0L2.1,25.7C1.5,25.5,1,25,1,24.4C1.1,23.7,1.6,23.2,2.2,23z"/>
<path class="st2" d="M2.2,16.8l1.3-0.5c2.9,1.3,34.8,13.9,34.8,13.9l24.9-11l1.2,0.4c0.6,0.2,1.1,0.7,1.2,1.3c0,0.6-0.4,1.2-1,1.4
	l-25,11.1c-0.4,0.2-0.8,0.3-1.2,0.2c-0.4,0-0.8-0.1-1.1-0.2L2.1,19.5c-0.6-0.2-1.1-0.7-1.1-1.4C1.1,17.5,1.6,17,2.2,16.8z"/>
<path class="st3" d="M64.7,15.8c-0.1,0-2.2,1.1-8.8,4c-1.4,0.6-3,1-4.5,1H24.2c-2,0-3.9-0.3-5.8-1C9.5,16.4,2.3,13.1,2,13
	c-0.6-0.2-1-0.8-1-1.4c0.1-0.6,0.6-1.1,1.2-1.3l25.5-9.2c0.7-0.2,1.4-0.2,2.1,0l34.6,12c0.6,0.2,1.1,0.6,1.2,1.3
	C65.7,15.1,65.3,15.6,64.7,15.8L64.7,15.8z M28.8,4.3l-21,7.5c2.9,1.3,7.6,3.2,12.8,5.2c1.2,0.4,2.4,0.6,3.6,0.6
	c6.3,0,12.5-4.7,12.5-4.8c0.5-0.4,1.1-0.5,1.7-0.5l0,0c0.6,0,1.2,0.2,1.7,0.5c1.7,1.3,7,4.7,11.1,4.7c0.8,0,1.5-0.1,2.2-0.4
	c2.4-1,4.2-1.8,5.5-2.4L28.8,4.3z"/>
</svg>
