<?xml version="1.0" standalone="no"?>
<!DOCTYPE svg PUBLIC "-//W3C//DTD SVG 20010904//EN"
 "http://www.w3.org/TR/2001/REC-SVG-20010904/DTD/svg10.dtd">
<svg version="1.0" xmlns="http://www.w3.org/2000/svg"
 width="270.000000pt" height="270.000000pt" viewBox="0 0 270.000000 270.000000"
 preserveAspectRatio="xMidYMid meet">
<metadata>
Created by potrace 1.11, written by Peter Selinger 2001-2013
</metadata>
<g transform="translate(0.000000,270.000000) scale(0.100000,-0.100000)"
fill="#000000" stroke="none">
<path d="M277 2673 c-7 -15 0 -1817 7 -1873 28 -210 73 -339 168 -478 33 -48
141 -156 178 -177 135 -78 244 -114 348 -115 l52 0 0 385 c0 212 3 386 8 386
4 1 138 3 297 5 160 2 304 5 320 7 91 13 125 21 204 43 391 113 586 429 575
935 -11 534 -248 823 -720 878 -96 11 -1431 14 -1437 4z m1133 -487 c99 -23
178 -106 208 -221 21 -78 24 -101 26 -215 4 -190 -37 -335 -117 -406 -68 -62
-90 -67 -302 -67 l-190 -1 -3 450 c-1 247 0 454 2 459 4 12 323 12 376 1z"/>
<path d="M1841 620 c-7 -6 -9 -599 -1 -601 3 -1 141 -3 307 -4 l301 -1 0 298
c0 237 -3 301 -13 304 -17 7 -585 10 -594 4z"/>
</g>
</svg>
