<?xml version="1.0" encoding="UTF-8"?>
<svg width="231px" height="33px" viewBox="0 0 231 33" version="1.1" xmlns="http://www.w3.org/2000/svg" xmlns:xlink="http://www.w3.org/1999/xlink">
    <title>Group 10</title>
    <g id="Home-page" stroke="none" stroke-width="1" fill="none" fill-rule="evenodd">
        <g id="Group-10" transform="translate(0.000000, 0.033874)" fill="#FFFFFF" fill-rule="nonzero">
            <path d="M53.9328047,31.5764183 L53.9328047,0.865107352 L65.3981806,0.865107352 C68.7666923,0.865107352 71.5844867,1.54998401 73.8515635,2.91973731 C76.1186404,4.28949062 77.8255378,6.13505297 78.9722556,8.45642436 C80.1189734,10.7777958 80.6923323,13.3514901 80.6923323,16.1775075 C80.6923323,19.2918939 80.0612996,22.0025636 78.7992341,24.3095166 C77.5371687,26.6164695 75.7603193,28.404358 73.468686,29.6731822 C71.1770526,30.9420063 68.4868842,31.5764183 65.3981806,31.5764183 L53.9328047,31.5764183 Z M73.4896378,16.1775075 C73.4896378,14.3792557 73.17108,12.7948026 72.5339645,11.4241481 C71.896849,10.0534936 70.9744057,8.98562675 69.7666348,8.22054744 C68.5588638,7.45546812 67.1027124,7.07292846 65.3981806,7.07292846 L61.031416,7.07292846 L61.031416,25.3685972 L65.3981806,25.3685972 C67.1315493,25.3685972 68.5970502,24.9694989 69.7946832,24.1713022 C70.9923162,23.3731055 71.9075502,22.2764017 72.5403852,20.8811908 C73.1732203,19.4859799 73.4896378,17.9180854 73.4896378,16.1775075 Z M107.525755,31.5764183 L107.525755,13.2611495 L100.914442,26.5966441 L97.0397073,26.5966441 L90.4162291,13.2611495 L90.4162291,31.5764183 L83.3176178,31.5764183 L83.3176178,0.865107352 L91.0292388,0.865107352 L98.9706539,16.9283936 L106.955324,0.865107352 L114.624366,0.865107352 L114.624366,31.5764183 L107.525755,31.5764183 Z M118.926187,31.5764183 L118.926187,0.865107352 L132.035267,0.865107352 C133.491982,0.865107352 134.833912,1.16271329 136.061058,1.75792517 C137.288204,2.35313705 138.3501,3.14874294 139.246748,4.14474284 C140.143396,5.14074274 140.837734,6.25828571 141.329764,7.49737176 C141.821794,8.73645781 142.067809,9.99581981 142.067809,11.2754578 C142.067809,13.0367623 141.657334,14.7113307 140.836383,16.2991632 C140.015432,17.8869956 138.873783,19.1800383 137.411436,20.178291 C135.949089,21.1765438 134.233181,21.6756702 132.26371,21.6756702 L126.024799,21.6756702 L126.024799,31.5764183 L118.926187,31.5764183 Z M126.024799,15.4678491 L131.803445,15.4678491 C132.36171,15.4678491 132.869397,15.3117243 133.326507,14.9994746 C133.783618,14.6872249 134.154217,14.213894 134.438306,13.579482 C134.722394,12.9450699 134.864439,12.1721055 134.864439,11.2605887 C134.864439,10.2959039 134.701668,9.50356472 134.376126,8.88357112 C134.050584,8.26357752 133.637518,7.80680534 133.136927,7.51325459 C132.636337,7.21970384 132.11547,7.07292846 131.574327,7.07292846 L126.024799,7.07292846 L126.024799,15.4678491 Z" id="Combined-Shape"></path>
            <polygon id="Path" points="174.681511 4.32553676 164.083946 4.32553676 164.083946 31.5764183 160.190963 31.5764183 160.190963 4.32553676 149.593398 4.32553676 149.593398 0.865107352 174.681511 0.865107352"></polygon>
            <path d="M182.251201,32.008972 C180.549823,32.008972 179.007048,31.6989752 177.622876,31.0789816 C176.238705,30.458988 175.041973,29.6082991 174.032681,28.5269149 C173.023389,27.4455307 172.244792,26.2009251 171.696891,24.7930981 C171.14899,23.385271 170.875039,21.8975793 170.875039,20.3300228 C170.875039,18.7336294 171.14899,17.2315191 171.696891,15.8236921 C172.244792,14.415865 173.023389,13.1712594 174.032681,12.0898752 C175.041973,11.008491 176.245914,10.1578022 177.644504,9.53780855 C179.043094,8.91781495 180.585869,8.60781815 182.272828,8.60781815 C183.959788,8.60781815 185.495353,8.91781495 186.879525,9.53780855 C188.263697,10.1578022 189.467638,11.008491 190.491348,12.0898752 C191.515059,13.1712594 192.300864,14.415865 192.848766,15.8236921 C193.396667,17.2315191 193.670618,18.7336294 193.670618,20.3300228 C193.670618,21.8975793 193.396667,23.385271 192.848766,24.7930981 C192.300864,26.2009251 191.522268,27.4455307 190.512976,28.5269149 C189.503684,29.6082991 188.299743,30.458988 186.901153,31.0789816 C185.502563,31.6989752 183.952579,32.008972 182.251201,32.008972 Z M174.768022,20.3692229 C174.768022,21.9291196 175.106856,23.34348 175.784523,24.6123042 C176.462191,25.8811283 177.363344,26.883211 178.487984,27.6185522 C179.612623,28.3538935 180.867029,28.7215641 182.251201,28.7215641 C183.635372,28.7215641 184.896987,28.3466842 186.036045,27.5969245 C187.175103,26.8471648 188.083466,25.8306637 188.761134,24.5474211 C189.438801,23.2641785 189.777635,21.8439606 189.777635,20.2867674 C189.777635,18.7295742 189.438801,17.3165655 188.761134,16.0477414 C188.083466,14.7789173 187.173076,13.7696253 186.029963,13.0198656 C184.886849,12.2701059 183.627262,11.8952261 182.251201,11.8952261 C180.867029,11.8952261 179.61037,12.2784416 178.481225,13.0448727 C177.35208,13.8113037 176.450926,14.8278048 175.777765,16.0943761 C175.104603,17.3609473 174.768022,18.7858963 174.768022,20.3692229 Z" id="Shape"></path>
            <path d="M206.863505,32.008972 C205.162127,32.008972 203.619352,31.6989752 202.235181,31.0789816 C200.851009,30.458988 199.654277,29.6082991 198.644985,28.5269149 C197.635693,27.4455307 196.857097,26.2009251 196.309195,24.7930981 C195.761294,23.385271 195.487343,21.8975793 195.487343,20.3300228 C195.487343,18.7336294 195.761294,17.2315191 196.309195,15.8236921 C196.857097,14.415865 197.635693,13.1712594 198.644985,12.0898752 C199.654277,11.008491 200.858218,10.1578022 202.256808,9.53780855 C203.655398,8.91781495 205.198173,8.60781815 206.885133,8.60781815 C208.572092,8.60781815 210.107657,8.91781495 211.491829,9.53780855 C212.876001,10.1578022 214.079942,11.008491 215.103652,12.0898752 C216.127363,13.1712594 216.913169,14.415865 217.46107,15.8236921 C218.008971,17.2315191 218.282922,18.7336294 218.282922,20.3300228 C218.282922,21.8975793 218.008971,23.385271 217.46107,24.7930981 C216.913169,26.2009251 216.134572,27.4455307 215.12528,28.5269149 C214.115988,29.6082991 212.912047,30.458988 211.513457,31.0789816 C210.114867,31.6989752 208.564883,32.008972 206.863505,32.008972 Z M199.380326,20.3692229 C199.380326,21.9291196 199.71916,23.34348 200.396827,24.6123042 C201.074495,25.8811283 201.975648,26.883211 203.100288,27.6185522 C204.224927,28.3538935 205.479333,28.7215641 206.863505,28.7215641 C208.247677,28.7215641 209.509292,28.3466842 210.64835,27.5969245 C211.787408,26.8471648 212.69577,25.8306637 213.373438,24.5474211 C214.051105,23.2641785 214.389939,21.8439606 214.389939,20.2867674 C214.389939,18.7295742 214.051105,17.3165655 213.373438,16.0477414 C212.69577,14.7789173 211.78538,13.7696253 210.642267,13.0198656 C209.499154,12.2701059 208.239566,11.8952261 206.863505,11.8952261 C205.479333,11.8952261 204.222675,12.2784416 203.093529,13.0448727 C201.964384,13.8113037 201.06323,14.8278048 200.390069,16.0943761 C199.716907,17.3609473 199.380326,18.7858963 199.380326,20.3692229 Z" id="Shape"></path>
            <path d="M221.700096,0 L225.506568,0 L225.506568,25.7369437 C225.506568,26.9769309 225.67959,27.7411091 226.025633,28.0294782 C226.371676,28.3178473 226.789811,28.4620319 227.280038,28.4620319 C227.885614,28.4620319 228.462352,28.3971488 229.010253,28.2673827 C229.558154,28.1376166 230.019545,28.0006413 230.394425,27.8564567 L231,30.9708432 C230.365588,31.2303754 229.615828,31.4466522 228.750721,31.6196737 C227.885614,31.7926952 227.121435,31.8792059 226.458186,31.8792059 C224.987504,31.8792059 223.826818,31.4610707 222.976129,30.6248002 C222.12544,29.7885298 221.700096,28.6206349 221.700096,27.1211155 L221.700096,0 Z" id="Path"></path>
            <path d="M29.1194869,1.19505952 C29.5302737,1.19505952 29.9259183,1.3419255 30.2362201,1.60657952 L30.3363969,1.69912015 L44.03393,15.3966532 C44.6754617,16.0381849 44.7046223,17.0601953 44.1214116,17.736316 L44.03393,17.8304733 L30.3363969,31.5280063 C29.6643161,32.2000872 28.5746577,32.2000872 27.9025769,31.5280063 C27.2610452,30.8864746 27.2318846,29.8644642 27.8150953,29.1883435 L27.9025769,29.0941863 L40.3827154,16.6129448 L28.4067459,4.6369754 L19.5768836,4.6369754 L30.3363969,15.3966532 C30.9779287,16.0381849 31.0070892,17.0601953 30.4238785,17.736316 L30.3363969,17.8304733 L16.6388639,31.5280063 C16.3483937,31.8184765 15.9647809,31.9943895 15.5582257,32.0266674 L15.4219538,32.032067 L1.72442078,32.032067 C0.229530202,32.032067 -0.537769921,30.2698652 0.429654935,29.1768996 L0.507510759,29.0941863 L12.9876492,16.6129448 L0.507510759,4.13294019 C-0.134020958,3.49140848 -0.163181491,2.46939809 0.420029161,1.7932774 L0.507510759,1.69912015 C1.14904248,1.05758844 2.17105287,1.0284279 2.84717356,1.61163856 L2.9413308,1.69912015 L16.6388639,15.3966532 C17.2803956,16.0381849 17.3095561,17.0601953 16.7263455,17.736316 L16.6388639,17.8304733 L5.87862959,28.5896352 L14.708492,28.5896352 L26.6851823,16.6129448 L14.2050438,4.13294019 C13.1479966,3.07589293 13.8514982,1.28726501 15.3084143,1.19849427 L15.4219538,1.19505952 L29.1194869,1.19505952 Z" id="Path-4"></path>
        </g>
    </g>
</svg>