<?xml version="1.0" encoding="UTF-8"?>
<svg width="289px" height="41px" viewBox="0 0 289 41" version="1.1" xmlns="http://www.w3.org/2000/svg" xmlns:xlink="http://www.w3.org/1999/xlink">
    <title>Group 8</title>
    <defs>
        <linearGradient x1="50%" y1="18.6148113%" x2="50%" y2="92.9644444%" id="linearGradient-1">
            <stop stop-color="#24B5F4" offset="0%"></stop>
            <stop stop-color="#3470E7" offset="100%"></stop>
        </linearGradient>
        <linearGradient x1="50%" y1="18.6148113%" x2="50%" y2="92.9644444%" id="linearGradient-2">
            <stop stop-color="#24B5F4" offset="0%"></stop>
            <stop stop-color="#3470E7" offset="100%"></stop>
        </linearGradient>
    </defs>
    <g id="Home-page" stroke="none" stroke-width="1" fill="none" fill-rule="evenodd">
        <g id="Home-page-Copy-7" transform="translate(-110.000000, -29.000000)">
            <g id="Group-8" transform="translate(112.000000, 29.507524)">
                <path d="M65.2421876,39.4594595 L65.2421876,1.08108108 L79.5698903,1.08108108 C83.7793498,1.08108108 87.3006054,1.93693694 90.1336572,3.64864865 C92.966709,5.36036036 95.0997327,7.66666667 96.5327281,10.5675676 C97.9657236,13.4684685 98.6822214,16.6846847 98.6822214,20.2162162 C98.6822214,24.1081081 97.8936516,27.4954955 96.3165119,30.3783784 C94.7393723,33.2612613 92.5189331,35.4954955 89.6551944,37.0810811 C86.7914556,38.6666667 83.4296876,39.4594595 79.5698903,39.4594595 L65.2421876,39.4594595 Z M89.6813768,20.2162162 C89.6813768,17.9690315 89.2832912,15.9890203 88.48712,14.2761824 C87.6909489,12.5633446 86.538218,11.2288851 85.0289275,10.2728041 C83.5196369,9.31672297 81.6999579,8.83868243 79.5698903,8.83868243 L74.1129646,8.83868243 L74.1129646,31.7018581 L79.5698903,31.7018581 C81.7359939,31.7018581 83.5673565,31.203125 85.0639781,30.2056588 C86.5605998,29.2081926 87.7043216,27.8376971 88.4951437,26.0941723 C89.2859658,24.3506475 89.6813768,22.3913288 89.6813768,20.2162162 Z M132.214598,39.4594595 L132.214598,16.5717905 L123.952773,33.2364865 L119.110712,33.2364865 L110.833685,16.5717905 L110.833685,39.4594595 L101.962908,39.4594595 L101.962908,1.08108108 L111.599733,1.08108108 L121.523719,21.1545608 L131.50176,1.08108108 L141.085375,1.08108108 L141.085375,39.4594595 L132.214598,39.4594595 Z M146.461144,39.4594595 L146.461144,1.08108108 L162.842901,1.08108108 C164.663284,1.08108108 166.340226,1.45298423 167.873729,2.19679054 C169.407231,2.94059685 170.73423,3.93482545 171.854725,5.17947635 C172.975221,6.42412725 173.842901,7.82066441 174.457766,9.36908784 C175.072631,10.9175113 175.380063,12.4912725 175.380063,14.0903716 C175.380063,16.2913851 174.867113,18.384009 173.841212,20.3682432 C172.815311,22.3524775 171.38865,23.9683277 169.561229,25.2157939 C167.733807,26.4632601 165.589522,27.0869932 163.128374,27.0869932 L155.331921,27.0869932 L155.331921,39.4594595 L146.461144,39.4594595 Z M155.331921,19.3293919 L162.553205,19.3293919 C163.25084,19.3293919 163.885271,19.1342905 164.456499,18.7440878 C165.027726,18.3538851 165.490846,17.7623874 165.845857,16.9695946 C166.200868,16.1768018 166.378374,15.2108671 166.378374,14.0717905 C166.378374,12.8662725 166.174967,11.8761261 165.768154,11.1013514 C165.361341,10.3265766 164.845153,9.7557714 164.21959,9.38893581 C163.594027,9.02210023 162.943126,8.83868243 162.266887,8.83868243 L155.331921,8.83868243 L155.331921,19.3293919 Z" id="Combined-Shape" fill="url(#linearGradient-1)" fill-rule="nonzero"></path>
                <g id="Group-2" transform="translate(184.784413, 0.000000)" fill="#444444" fill-rule="nonzero">
                    <polygon id="Path" points="31.3513514 5.40540541 18.1081081 5.40540541 18.1081081 39.4594595 13.2432432 39.4594595 13.2432432 5.40540541 0 5.40540541 0 1.08108108 31.3513514 1.08108108"></polygon>
                    <path d="M40.8108108,40 C38.6846847,40 36.7567568,39.6126126 35.027027,38.8378378 C33.2972973,38.0630631 31.8018018,37 30.5405405,35.6486486 C29.2792793,34.2972973 28.3063063,32.7419764 27.6216216,30.9826858 C26.9369369,29.2233953 26.5945946,27.3643018 26.5945946,25.4054054 C26.5945946,23.410473 26.9369369,21.5333615 27.6216216,19.7740709 C28.3063063,18.0147804 29.2792793,16.4594595 30.5405405,15.1081081 C31.8018018,13.7567568 33.3063063,12.6936937 35.0540541,11.9189189 C36.8018018,11.1441441 38.7297297,10.7567568 40.8378378,10.7567568 C42.9459459,10.7567568 44.8648649,11.1441441 46.5945946,11.9189189 C48.3243243,12.6936937 49.8288288,13.7567568 51.1081081,15.1081081 C52.3873874,16.4594595 53.3693694,18.0147804 54.0540541,19.7740709 C54.7387387,21.5333615 55.0810811,23.410473 55.0810811,25.4054054 C55.0810811,27.3643018 54.7387387,29.2233953 54.0540541,30.9826858 C53.3693694,32.7419764 52.3963964,34.2972973 51.1351351,35.6486486 C49.8738739,37 48.3693694,38.0630631 46.6216216,38.8378378 C44.8738739,39.6126126 42.9369369,40 40.8108108,40 Z M31.4594595,25.4543919 C31.4594595,27.4037162 31.8828829,29.1711712 32.7297297,30.7567568 C33.5765766,32.3423423 34.7027027,33.5945946 36.1081081,34.5135135 C37.5135135,35.4324324 39.0810811,35.8918919 40.8108108,35.8918919 C42.5405405,35.8918919 44.1171171,35.4234234 45.5405405,34.4864865 C46.963964,33.5495495 48.0990991,32.2792793 48.9459459,30.6756757 C49.7927928,29.0720721 50.2162162,27.2972973 50.2162162,25.3513514 C50.2162162,23.4054054 49.7927928,21.6396396 48.9459459,20.0540541 C48.0990991,18.4684685 46.9614302,17.2072072 45.5329392,16.2702703 C44.1044482,15.3333333 42.5304054,14.8648649 40.8108108,14.8648649 C39.0810811,14.8648649 37.5106982,15.34375 36.0996622,16.3015203 C34.6886261,17.2592905 33.5625,18.5295608 32.7212838,20.1123311 C31.8800676,21.6951014 31.4594595,23.4757883 31.4594595,25.4543919 Z" id="Shape"></path>
                    <path d="M71.5675676,40 C69.4414414,40 67.5135135,39.6126126 65.7837838,38.8378378 C64.0540541,38.0630631 62.5585586,37 61.2972973,35.6486486 C60.036036,34.2972973 59.0630631,32.7419764 58.3783784,30.9826858 C57.6936937,29.2233953 57.3513514,27.3643018 57.3513514,25.4054054 C57.3513514,23.410473 57.6936937,21.5333615 58.3783784,19.7740709 C59.0630631,18.0147804 60.036036,16.4594595 61.2972973,15.1081081 C62.5585586,13.7567568 64.0630631,12.6936937 65.8108108,11.9189189 C67.5585586,11.1441441 69.4864865,10.7567568 71.5945946,10.7567568 C73.7027027,10.7567568 75.6216216,11.1441441 77.3513514,11.9189189 C79.0810811,12.6936937 80.5855856,13.7567568 81.8648649,15.1081081 C83.1441441,16.4594595 84.1261261,18.0147804 84.8108108,19.7740709 C85.4954955,21.5333615 85.8378378,23.410473 85.8378378,25.4054054 C85.8378378,27.3643018 85.4954955,29.2233953 84.8108108,30.9826858 C84.1261261,32.7419764 83.1531532,34.2972973 81.8918919,35.6486486 C80.6306306,37 79.1261261,38.0630631 77.3783784,38.8378378 C75.6306306,39.6126126 73.6936937,40 71.5675676,40 Z M62.2162162,25.4543919 C62.2162162,27.4037162 62.6396396,29.1711712 63.4864865,30.7567568 C64.3333333,32.3423423 65.4594595,33.5945946 66.8648649,34.5135135 C68.2702703,35.4324324 69.8378378,35.8918919 71.5675676,35.8918919 C73.2972973,35.8918919 74.8738739,35.4234234 76.2972973,34.4864865 C77.7207207,33.5495495 78.8558559,32.2792793 79.7027027,30.6756757 C80.5495495,29.0720721 80.972973,27.2972973 80.972973,25.3513514 C80.972973,23.4054054 80.5495495,21.6396396 79.7027027,20.0540541 C78.8558559,18.4684685 77.7181869,17.2072072 76.2896959,16.2702703 C74.861205,15.3333333 73.2871622,14.8648649 71.5675676,14.8648649 C69.8378378,14.8648649 68.267455,15.34375 66.8564189,16.3015203 C65.4453829,17.2592905 64.3192568,18.5295608 63.4780405,20.1123311 C62.6368243,21.6951014 62.2162162,23.4757883 62.2162162,25.4543919 Z" id="Shape"></path>
                    <path d="M90.1081081,0 L94.8648649,0 L94.8648649,32.1621622 C94.8648649,33.7117117 95.0810811,34.6666667 95.5135135,35.027027 C95.9459459,35.3873874 96.4684685,35.5675676 97.0810811,35.5675676 C97.8378378,35.5675676 98.5585586,35.4864865 99.2432432,35.3243243 C99.9279279,35.1621622 100.504505,34.990991 100.972973,34.8108108 L101.72973,38.7027027 C100.936937,39.027027 100,39.2972973 98.9189189,39.5135135 C97.8378378,39.7297297 96.8828829,39.8378378 96.0540541,39.8378378 C94.2162162,39.8378378 92.7657658,39.3153153 91.7027027,38.2702703 C90.6396396,37.2252252 90.1081081,35.7657658 90.1081081,33.8918919 L90.1081081,0 Z" id="Path"></path>
                </g>
                <polyline id="Path-4" stroke="url(#linearGradient-2)" stroke-width="3.44040919" stroke-linecap="round" stroke-linejoin="round" points="-5.68434189e-14 3.64401603 17.1171171 20.7611331 -5.68434189e-14 37.8782503 17.1171171 37.8782503 34.2342342 20.7611331 17.1171171 3.64401603 34.2342342 3.64401603 51.3513514 20.7611331 34.2342342 37.8782503"></polyline>
            </g>
        </g>
    </g>
</svg>