<svg id="Layer_1" data-name="Layer 1" xmlns="http://www.w3.org/2000/svg" viewBox="0 0 229 61.5"><defs><style>.cls-1{fill:#273572;}.cls-2{fill:#4d4c4e;}.cls-3{fill:#6d6f71;}.cls-4{fill:#3576bc;}.cls-5{fill:#70a9db;}</style></defs><title>DMPTool_logo_blue_shades_v1b3b</title><path class="cls-1" d="M163.08,8.88h9.59V34.14h2.61V8.88h9.6V6.64h-21.8V8.88Zm28,4.81c-6.08,0-9.39,4.82-9.39,10.52s3.31,10.51,9.39,10.51,9.4-4.81,9.4-10.51-3.31-10.52-9.4-10.52Zm0,2c4.66,0,7,4.24,7,8.48s-2.31,8.47-7,8.47-7-4.24-7-8.47,2.31-8.48,7-8.48Zm21.42-2c-6.09,0-9.4,4.82-9.4,10.52s3.31,10.51,9.4,10.51,9.39-4.81,9.39-10.51-3.31-10.52-9.39-10.52Zm0,2c4.66,0,7,4.24,7,8.48s-2.31,8.47-7,8.47-7-4.24-7-8.47,2.31-8.48,7-8.48Zm13.05,18.41H228V6.64h-2.43v27.5Z"/><path class="cls-2" d="M76.77,34.43H88.63c8.39,0,12.48-5.93,12.48-13.9,0-9.13-5.36-13.6-12.48-13.6H76.77v27.5Zm6-22.42h4.32c6,0,7.93,3.55,7.93,9.09,0,6.09-3.35,8.25-6.86,8.25H82.81V12Zm22.5,22.42H111V15.13H111l6.74,19.3h4.66l6.74-19.49h.08V34.43h5.66V6.93h-8.51l-6.08,18.91h-.08L113.82,6.93h-8.51v27.5Zm34.93,0h6V24.57h6.36c6.85,0,9.51-4.35,9.51-8.82s-2.66-8.82-9.51-8.82h-12.4v27.5Zm6-22.8H151c2.81,0,5.32.62,5.32,4.12s-2.51,4.12-5.32,4.12h-4.7V11.63Z"/><path class="cls-3" d="M5,53.05H7.94c1.48,0,2.34.58,2.34,1.72,0,1.42-1.08,1.84-2.34,1.83H5V53.05Zm-.84,4.27H7.94c2.89,0,3.19-1.68,3.19-2.53a2.09,2.09,0,0,0-1.88-2.17v0a2,2,0,0,0,1.54-2c0-1.65-1.36-2.17-2.85-2.17H4.18v8.89ZM5,49.15H7.94c1.32,0,2,.56,2,1.67,0,.83-.64,1.5-2,1.5H5V49.15Zm13.92,1.74h-.79v3.38c0,1.31-.58,2.58-1.93,2.58s-1.68-.61-1.72-1.77V50.89h-.78v4.18c0,1.49.63,2.44,2.25,2.44a2.4,2.4,0,0,0,2.22-1.35h0v1.16h.72V50.89Zm2.89,6.43h.78V50.89h-.78v6.43Zm0-7.64h.78V48.43h-.78v1.25Zm3.7,7.64h.78V48.43h-.78v8.89Zm4.2-3.21c0-1.34.61-2.75,2.1-2.75,1.67,0,2.26,1.41,2.26,2.75s-.59,2.74-2.26,2.74c-1.49,0-2.1-1.41-2.1-2.74Zm5.14-5.68h-.78v3.68h0a2.28,2.28,0,0,0-2.23-1.4c-1.95,0-2.89,1.58-2.89,3.4s.94,3.4,2.89,3.4a2.57,2.57,0,0,0,2.3-1.41h0v1.22h.72V48.43Zm9.6,8.87-.28.73c-.26.6-.42,1-1.12,1a2.46,2.46,0,0,1-.53-.06v.66a1.89,1.89,0,0,0,.59.06c1,0,1.25-.31,1.7-1.39l2.79-7.42h-.79l-2,5.49-2.11-5.49H41.9l2.57,6.41Zm8-6.59c-2,0-3,1.55-3,3.4s1.07,3.4,3,3.4,3-1.56,3-3.4-1.07-3.4-3-3.4Zm0,.65c1.51,0,2.26,1.38,2.26,2.75S54,56.85,52.5,56.85s-2.25-1.37-2.25-2.74.74-2.75,2.25-2.75Zm10.82-.47h-.79v3.38c0,1.31-.58,2.58-1.93,2.58s-1.68-.61-1.72-1.77V50.89H58.1v4.18c0,1.49.63,2.44,2.25,2.44a2.4,2.4,0,0,0,2.22-1.35h0v1.16h.73V50.89Zm2.88,6.43H67V53.89a2.21,2.21,0,0,1,2.39-2.3V50.8a2.38,2.38,0,0,0-2.43,1.6h0V50.89H66.2v6.43Zm11.17-8.17h1.81c2.55,0,3.66,1.07,3.66,3.72s-1.11,3.74-3.66,3.73H77.37V49.15Zm-.85,8.17H79.6c2.68-.06,4.09-1.53,4.09-4.45s-1.41-4.38-4.09-4.44H76.52v8.89Zm13.9-2.49a2.07,2.07,0,0,1-2.25,2,1.34,1.34,0,0,1-1.43-1.27c0-1.26,1.66-1.25,3-1.49.21,0,.56-.1.66-.28h0v1Zm-3.41-2c0-1,.75-1.5,1.72-1.5s1.69.27,1.69,1.33c0,.71-.36.79-1,.87-1.7.2-3.45.26-3.45,2.07,0,1.29,1,1.88,2.15,1.88a2.44,2.44,0,0,0,2.34-1.31h0c0,.67.12,1.12.92,1.12a2,2,0,0,0,.51,0v-.66a.62.62,0,0,1-.25,0,.42.42,0,0,1-.46-.47V52.77c0-1.72-1.23-2.06-2.37-2.06-1.47,0-2.52.64-2.6,2.15Zm8.4-3.9h-.78v1.93H93.51v.66h1.12V56c0,1.1.35,1.44,1.39,1.44l.7,0V56.7c-.23,0-.45,0-.67,0-.56,0-.64-.34-.64-.85V51.55h1.31v-.66H95.41V49Zm8,5.87a2.07,2.07,0,0,1-2.24,2,1.34,1.34,0,0,1-1.44-1.27c0-1.26,1.66-1.25,3-1.49.21,0,.56-.1.66-.28h0v1Zm-3.4-2c0-1,.75-1.5,1.72-1.5s1.68.27,1.68,1.33c0,.71-.36.79-1,.87-1.69.2-3.45.26-3.45,2.07,0,1.29,1,1.88,2.16,1.88a2.46,2.46,0,0,0,2.34-1.31h0c0,.67.13,1.12.92,1.12a2,2,0,0,0,.51,0v-.66a.6.6,0,0,1-.24,0,.42.42,0,0,1-.47-.47V52.77c0-1.72-1.23-2.06-2.36-2.06-1.47,0-2.53.64-2.6,2.15Zm12.14,4.46h.84V49.63h0l3,7.69h.8l3-7.69h0v7.69h.85V48.43h-1.25l-3.06,7.8-3.08-7.8H112.1v8.89Zm15.76-2.49a2.07,2.07,0,0,1-2.25,2,1.34,1.34,0,0,1-1.43-1.27c0-1.26,1.66-1.25,3-1.49.21,0,.56-.1.66-.28h0v1Zm-3.41-2c0-1,.75-1.5,1.72-1.5s1.69.27,1.69,1.33c0,.71-.36.79-1,.87-1.7.2-3.45.26-3.45,2.07,0,1.29,1,1.88,2.15,1.88a2.45,2.45,0,0,0,2.34-1.31h0c0,.67.12,1.12.92,1.12a2.05,2.05,0,0,0,.51,0v-.66a.62.62,0,0,1-.25,0,.42.42,0,0,1-.46-.47V52.77c0-1.72-1.23-2.06-2.37-2.06-1.47,0-2.53.64-2.6,2.15Zm7.14,4.46h.79V53.57a2,2,0,0,1,2-2.21c1.27,0,1.63.84,1.63,2v4h.78V53.18c0-1.53-.55-2.47-2.35-2.47A2.19,2.19,0,0,0,132.4,52h0V50.89h-.79v6.43Zm12.21-2.49a2.06,2.06,0,0,1-2.24,2,1.34,1.34,0,0,1-1.43-1.27c0-1.26,1.65-1.25,3-1.49.21,0,.56-.1.66-.28h0v1Zm-3.4-2c0-1,.75-1.5,1.72-1.5s1.68.27,1.68,1.33c0,.71-.36.79-1,.87-1.69.2-3.45.26-3.45,2.07,0,1.29,1,1.88,2.16,1.88a2.46,2.46,0,0,0,2.34-1.31h0c0,.67.13,1.12.93,1.12a2.05,2.05,0,0,0,.51,0v-.66a.66.66,0,0,1-.25,0,.42.42,0,0,1-.46-.47V52.77c0-1.72-1.24-2.06-2.37-2.06-1.47,0-2.53.64-2.6,2.15Zm9.73,3.73c-1.44,0-2.12-1.26-2.12-2.56s.63-2.67,2.12-2.67,2.07,1.41,2.07,2.67-.71,2.56-2.07,2.56Zm2.85-5.7h-.78V52h0a2.27,2.27,0,0,0-2.05-1.29,2.93,2.93,0,0,0-2.9,3.23c0,1.84.85,3.31,2.9,3.31a2.26,2.26,0,0,0,2.05-1.32h0v.87c0,1.57-.62,2.43-2.07,2.43a1.69,1.69,0,0,1-1.88-1.29h-.78c.11,1.37,1.38,2,2.66,2,2.11,0,2.84-1.17,2.85-3.09V50.89Zm8.3,3.43c.06-1.81-.76-3.61-2.82-3.61s-2.91,1.7-2.91,3.4.86,3.4,2.91,3.4a2.63,2.63,0,0,0,2.8-2.31h-.79a2,2,0,0,1-2,1.65,2.28,2.28,0,0,1-2.12-2.53Zm-4.94-.66a2.28,2.28,0,0,1,2.12-2.3,2.17,2.17,0,0,1,2,2.3Zm7.4,3.66h.78V53.73c0-1.34.56-2.37,1.92-2.37,1,0,1.36.73,1.35,1.6v4.36h.78V53.68c0-1.19.39-2.32,1.75-2.32,1.12,0,1.52.58,1.52,1.64v4.32h.78V53c0-1.52-.72-2.25-2.13-2.25a2.16,2.16,0,0,0-2,1.25,1.8,1.8,0,0,0-1.85-1.25A2.23,2.23,0,0,0,164.5,52h0V50.89h-.72v6.43Zm17.18-3c.06-1.81-.76-3.61-2.83-3.61s-2.9,1.7-2.9,3.4.86,3.4,2.9,3.4a2.62,2.62,0,0,0,2.8-2.31h-.78a2,2,0,0,1-2,1.65A2.28,2.28,0,0,1,176,54.32ZM176,53.66a2.3,2.3,0,0,1,2.12-2.3,2.16,2.16,0,0,1,2,2.3Zm7.39,3.66h.79V53.57a2,2,0,0,1,2-2.21c1.27,0,1.64.84,1.64,2v4h.78V53.18c0-1.53-.55-2.47-2.35-2.47A2.19,2.19,0,0,0,184.17,52h0V50.89h-.79v6.43ZM192.7,49h-.78v1.93H190.8v.66h1.12V56c0,1.1.35,1.44,1.39,1.44l.7,0V56.7c-.22,0-.45,0-.67,0-.56,0-.64-.34-.64-.85V51.55H194v-.66H192.7V49Zm8.85,8.36h.85V53.51h3.1a2.54,2.54,0,1,0,0-5.08h-3.95v8.89Zm.85-8.17h2.91a1.83,1.83,0,1,1,0,3.64H202.4V49.15Zm8.26,8.17h.78V48.43h-.78v8.89Zm7.8-2.49a2.07,2.07,0,0,1-2.25,2,1.34,1.34,0,0,1-1.43-1.27c0-1.26,1.66-1.25,3-1.49.21,0,.56-.1.66-.28h0v1Zm-3.4-2c0-1,.74-1.5,1.72-1.5s1.68.27,1.68,1.33c0,.71-.36.79-1,.87-1.7.2-3.45.26-3.45,2.07,0,1.29,1,1.88,2.15,1.88a2.47,2.47,0,0,0,2.35-1.31h0c0,.67.12,1.12.92,1.12a2,2,0,0,0,.51,0v-.66a.62.62,0,0,1-.25,0,.42.42,0,0,1-.46-.47V52.77c0-1.72-1.23-2.06-2.37-2.06-1.47,0-2.52.64-2.6,2.15Zm7.14,4.46H223V53.57a2,2,0,0,1,2-2.21c1.27,0,1.63.84,1.63,2v4h.78V53.18c0-1.53-.54-2.47-2.35-2.47A2.19,2.19,0,0,0,223,52h0V50.89h-.78v6.43Z"/><path class="cls-1" d="M2.22,23l1.06-.38L38.31,37,63.55,25.55l.87.3a1.66,1.66,0,0,1,1.24,1.3,1.48,1.48,0,0,1-1,1.39l-25,11.55a3.19,3.19,0,0,1-2.45,0L2.1,25.73A1.54,1.54,0,0,1,1,24.35,1.62,1.62,0,0,1,2.22,23Z"/><path class="cls-4" d="M2.22,16.8l1.27-.45c2.88,1.26,34.84,13.91,34.84,13.91l24.9-11,1.2.42a1.66,1.66,0,0,1,1.24,1.3,1.49,1.49,0,0,1-1,1.39l-25,11.05a3,3,0,0,1-1.23.25,3.06,3.06,0,0,1-1.13-.21L2.14,19.52A1.56,1.56,0,0,1,1,18.14,1.62,1.62,0,0,1,2.22,16.8Z"/><path class="cls-5" d="M64.71,15.78c-.09,0-2.19,1.06-8.84,4a11.45,11.45,0,0,1-4.52,1H24.18a16.69,16.69,0,0,1-5.79-1C9.5,16.43,2.3,13.09,2,13a1.48,1.48,0,0,1-1-1.38,1.65,1.65,0,0,1,1.22-1.28L27.74,1.18a3.1,3.1,0,0,1,2.06,0l34.62,12a1.68,1.68,0,0,1,1.24,1.27,1.44,1.44,0,0,1-1,1.39ZM28.8,4.3l-21,7.51c2.94,1.28,7.61,3.25,12.79,5.16a10.35,10.35,0,0,0,3.64.63c6.26,0,12.45-4.73,12.51-4.77a2.84,2.84,0,0,1,1.7-.53h0a2.78,2.78,0,0,1,1.7.54c1.68,1.31,6.95,4.73,11.11,4.73a5.44,5.44,0,0,0,2.23-.43c2.38-1,4.17-1.84,5.49-2.44L28.8,4.3Z"/></svg>