<?xml version="1.0" encoding="UTF-8"?>
<svg width="21px" height="20px" viewBox="0 0 21 20" version="1.1" xmlns="http://www.w3.org/2000/svg" xmlns:xlink="http://www.w3.org/1999/xlink">
    <title>external</title>
    <g id="Home-page" stroke="none" stroke-width="1" fill="none" fill-rule="evenodd">
        <g id="Home-page-Copy-7" transform="translate(-1450.000000, -3441.000000)" fill="#FFFFFF" fill-rule="nonzero">
            <g id="external" transform="translate(1450.804959, 3441.236000)">
                <path d="M18.533418,0 L12.8442697,0 C12.348464,0 11.9466131,0.401850958 11.9466131,0.897656644 C11.9466131,1.39346233 12.348464,1.79531329 12.8442697,1.79531329 L16.3662754,1.79531329 L7.75874559,10.4028431 C7.4081608,10.7534279 7.4081608,11.3217443 7.75874559,11.6723291 C7.93408785,11.8475716 8.16378822,11.9352427 8.39348858,11.9352427 C8.62318894,11.9352427 8.8528893,11.8475716 9.02823156,11.6723291 L17.6357614,3.06479926 L17.6357614,6.58690471 C17.6357614,7.0827104 18.0376123,7.48456136 18.533418,7.48456136 C19.0292237,7.48456136 19.4310747,7.0827104 19.4310747,6.58690471 L19.4310747,0.897756383 C19.4310747,0.401850958 19.0292237,0 18.533418,0 Z" id="Path"></path>
                <path d="M14.8612044,7.48446162 C14.3653987,7.48446162 13.9635478,7.88631257 13.9635478,8.38211826 L13.9635478,17.2046867 L1.79531329,17.2046867 L1.79531329,5.03645221 L11.148696,5.03645221 C11.6445017,5.03645221 12.0463527,4.63460125 12.0463527,4.13879557 C12.0463527,3.64298988 11.6445017,3.24113892 11.148696,3.24113892 L0.897656644,3.24113892 C0.401850958,3.24113892 0,3.64298988 0,4.13879557 L0,18.1023434 C0,18.598149 0.401850958,19 0.897656644,19 L14.8612044,19 C15.3570101,19 15.7588611,18.598149 15.7588611,18.1023434 L15.7588611,8.38211826 C15.7588611,7.88631257 15.3570101,7.48446162 14.8612044,7.48446162 Z" id="Path"></path>
            </g>
        </g>
    </g>
</svg>