<?xml version="1.0" encoding="UTF-8"?>
<svg width="91px" height="91px" viewBox="0 0 91 91" version="1.1" xmlns="http://www.w3.org/2000/svg" xmlns:xlink="http://www.w3.org/1999/xlink">
    <title>Group 7</title>
    <g id="Home-page" stroke="none" stroke-width="1" fill="none" fill-rule="evenodd">
        <g id="Home-page-Copy-7" transform="translate(-1229.000000, -1305.000000)">
            <g id="Group-7" transform="translate(1229.500000, 1305.206000)">
                <circle id="Oval-Copy" stroke="#05042E" stroke-width="2.72727273" fill="#FFFFFF" cx="45" cy="45" r="43.6363636"></circle>
                <g id="link-solid" transform="translate(45.000000, 44.535199) rotate(-360.000000) translate(-45.000000, -44.535199) translate(25.724962, 29.535199)" fill-rule="nonzero">
                    <path d="M35.8470742,15.7463157 C39.4510774,12.1423125 39.4510774,6.30574098 35.8470742,2.7017378 C32.6576908,-0.487645555 27.6312227,-0.902265391 23.9634318,1.71940772 L23.8613715,1.78957416 C22.9428291,2.44658713 22.7323298,3.72234047 23.3893428,4.63450411 C24.0463558,5.54666775 25.3221091,5.76354581 26.2342728,5.10653284 L26.336333,5.03636641 C28.3839171,3.57562883 31.1841957,3.80526444 32.9574929,5.58494035 C34.9668044,7.59425186 34.9668044,10.8474229 32.9574929,12.8567344 L25.8005166,20.0264682 C23.7912051,22.0357797 20.5380341,22.0357797 18.5287226,20.0264682 C16.7490467,18.2467923 16.5194111,15.4465137 17.9801486,13.4053083 L18.0503151,13.3032481 C18.707328,12.3847057 18.49045,11.1089523 17.5782863,10.4583181 C16.6661227,9.8076839 15.3839906,10.0181832 14.7333564,10.9303468 L14.66319,11.0324071 C12.0351381,14.6938192 12.4497579,19.7202874 15.6391413,22.9096707 C19.2431445,26.5136739 25.079716,26.5136739 28.6837192,22.9096707 L35.8470742,15.7463157 Z" id="Path" fill="#05042E"></path>
                    <path d="M2.70300239,14.2536843 C-0.901000797,17.8576875 -0.901000797,23.694259 2.70300239,27.2982622 C5.89238574,30.4876456 10.9188539,30.9022654 14.5866448,28.2805923 L14.688705,28.2104258 C15.6072474,27.5534129 15.8177467,26.2776595 15.1607338,25.3654959 C14.5037208,24.4533323 13.2279675,24.2364542 12.3158038,24.8934672 L12.2137435,24.9636336 C10.1661594,26.4243712 7.36588085,26.1947356 5.59258371,24.4150597 C3.5832722,22.3993694 3.5832722,19.1461984 5.59258371,17.1368868 L12.7495599,9.97353184 C14.7588715,7.96422033 18.0120425,7.96422033 20.021354,9.97353184 C21.8010299,11.7532077 22.0306655,14.5534863 20.5699279,16.6010704 L20.4997615,16.7031307 C19.8427485,17.6216731 20.0596266,18.8974265 20.9717902,19.5480607 C21.8839539,20.1986949 23.166086,19.9881956 23.8167202,19.0760319 L23.8868866,18.9739717 C26.5149385,15.3061808 26.1003187,10.2797126 22.9109353,7.09032929 C19.3069321,3.4863261 13.4703606,3.4863261 9.8663574,7.09032929 L2.70300239,14.2536843 Z" id="Path" fill="#54D8FF"></path>
                </g>
            </g>
        </g>
    </g>
</svg>