<svg xmlns="http://www.w3.org/2000/svg" width="200" viewBox="0 0 358.31 129.47"><path d="M149.8.27h1.24v8.07c-.02 3.03 1.43 4.18 3.82 4.18 2.4 0 3.85-1.15 3.83-4.18V.27h1.24v8.34c0 2.69-1.44 4.97-5.07 4.97-3.62 0-5.06-2.28-5.06-4.97V.27zm13.95 3.62h1.15V5.5h.04c.42-1.13 1.68-1.9 3-1.9 2.65 0 3.46 1.4 3.46 3.64v6.06h-1.15V7.42c0-1.63-.53-2.85-2.4-2.85-1.82 0-2.91 1.39-2.95 3.23v5.5h-1.15V3.88zM175.14.27h1.15v1.85h-1.15V.27zm0 3.62h1.15v9.41h-1.15V3.9zm3.86 0h1.27l2.96 8.26h.03l2.92-8.26h1.19l-3.52 9.41h-1.23L179 3.9zm11.73 5.01c.02 1.69.9 3.71 3.1 3.71 1.68 0 2.6-.98 2.96-2.4h1.15c-.5 2.13-1.74 3.37-4.1 3.37-3 0-4.26-2.3-4.26-4.98 0-2.49 1.26-4.99 4.25-4.99 3.03 0 4.24 2.65 4.15 5.3h-7.25zm6.1-.96c-.06-1.74-1.14-3.36-3-3.36-1.88 0-2.92 1.64-3.1 3.36h6.1zm4.25-4.05h1.06v2.2h.04a3.48 3.48 0 013.56-2.33V4.9c-2.09-.11-3.5 1.42-3.5 3.38v5.01h-1.16V3.9zm12.94 2.75c-.05-1.42-1.15-2.06-2.46-2.06-1.02 0-2.23.4-2.23 1.62 0 1.03 1.17 1.4 1.95 1.6l1.54.34c1.31.2 2.68.97 2.68 2.61 0 2.04-2.03 2.83-3.78 2.83-2.19 0-3.68-1.02-3.87-3.32H209c.1 1.55 1.24 2.35 2.78 2.35 1.07 0 2.57-.47 2.57-1.79 0-1.1-1.02-1.46-2.06-1.71l-1.48-.33c-1.5-.4-2.63-.91-2.63-2.52 0-1.92 1.88-2.65 3.54-2.65 1.88 0 3.38.99 3.45 3.03h-1.15zm4.71-6.37h1.15v1.85h-1.15V.27zm0 3.62h1.15v9.41h-1.15V3.9zm6.74 0h1.91v.96h-1.91v6.36c0 .74.1 1.18.93 1.24.33 0 .66-.02.98-.06v.99c-.34 0-.67.03-1.02.03-1.53 0-2.06-.5-2.04-2.11V4.85h-1.64V3.9h1.64V1.06h1.15v2.83zm4.07 0h1.22l3.1 8.03 2.9-8.03h1.16l-4.1 10.86c-.65 1.58-1.03 2.04-2.47 2.04-.46-.02-.7-.02-.88-.1v-.96c.27.06.53.1.79.1 1.02 0 1.25-.61 1.64-1.49l.4-1.07-3.76-9.38zm26.12 4.71c0 2.7-1.57 4.98-4.45 4.98s-4.46-2.28-4.46-4.98c0-2.7 1.57-4.99 4.46-4.99s4.45 2.28 4.45 4.99zm-7.76 0c0 2 1.1 4.01 3.3 4.01s3.31-2 3.31-4.01-1.1-4.02-3.3-4.02-3.3 2-3.3 4.02zm14.66-3.75h-1.86v8.45h-1.15V4.85h-1.6V3.9h1.6v-.86c-.02-1.63.44-2.76 2.28-2.76.33 0 .6.02.97.08v.98c-.31-.05-.57-.09-.84-.09-1.28 0-1.24.8-1.26 1.83v.82h1.86v.96zm19.02-.64c-.44-2-2.1-3.15-4-3.15-3.44 0-4.9 2.88-4.9 5.73 0 2.85 1.46 5.73 4.9 5.73 2.41 0 3.95-1.86 4.18-4.18h1.25c-.35 3.2-2.38 5.24-5.42 5.24-4.11 0-6.15-3.23-6.15-6.8S273.48 0 277.57 0c2.47 0 4.91 1.48 5.24 4.21h-1.24zm4.55 2.56c.1-2.2 1.66-3.16 3.81-3.16 1.66 0 3.47.52 3.47 3.03v5c0 .44.22.7.68.7.13 0 .27-.04.36-.08v.97c-.25.06-.44.07-.75.07-1.17 0-1.35-.65-1.35-1.64h-.03c-.8 1.22-1.63 1.92-3.44 1.92-1.73 0-3.15-.86-3.15-2.76 0-2.65 2.57-2.74 5.05-3.03.95-.1 1.48-.24 1.48-1.28 0-1.55-1.11-1.93-2.46-1.93-1.43 0-2.48.66-2.52 2.19h-1.15zm6.13 1.39h-.03c-.15.27-.66.36-.97.42-1.95.34-4.38.33-4.38 2.17 0 1.15 1.02 1.86 2.1 1.86 1.75 0 3.3-1.11 3.28-2.96v-1.5zm5.02-7.89h1.15V13.3h-1.15V.27zm4.93 0h1.15v1.85h-1.15V.27zm0 3.62h1.15v9.41h-1.15V3.9zm8.54.96h-1.86v8.45h-1.14V4.85h-1.61V3.9h1.6v-.86c-.01-1.63.44-2.76 2.29-2.76.32 0 .6.02.96.08v.98c-.3-.05-.56-.09-.84-.09-1.27 0-1.24.8-1.26 1.83v.82h1.87v.96zm11.08 3.75c0 2.7-1.56 4.98-4.45 4.98s-4.45-2.28-4.45-4.98c0-2.7 1.57-4.99 4.45-4.99s4.45 2.28 4.45 4.99zm-7.75 0c0 2 1.1 4.01 3.3 4.01s3.3-2 3.3-4.01-1.1-4.02-3.3-4.02-3.3 2-3.3 4.02zm11.02-4.71h1.06v2.2h.04a3.48 3.48 0 013.56-2.33V4.9c-2.08-.11-3.5 1.42-3.5 3.38v5.01h-1.16V3.9zm7.61 0h1.15V5.5h.04c.42-1.13 1.68-1.9 3-1.9 2.66 0 3.46 1.4 3.46 3.64v6.06h-1.15V7.42c0-1.63-.53-2.85-2.4-2.85-1.82 0-2.91 1.39-2.95 3.23v5.5h-1.15V3.88zM344.1.27h1.15v1.85h-1.15V.27zm0 3.62h1.15v9.41h-1.15V3.9zm4.8 2.88c.11-2.2 1.66-3.16 3.82-3.16 1.66 0 3.46.52 3.46 3.03v5c0 .44.22.7.68.7.13 0 .27-.04.36-.08v.97c-.25.06-.43.07-.74.07-1.17 0-1.35-.65-1.35-1.64h-.04c-.8 1.22-1.62 1.92-3.43 1.92-1.74 0-3.16-.86-3.16-2.76 0-2.65 2.57-2.74 5.06-3.03.95-.1 1.48-.24 1.48-1.28 0-1.55-1.12-1.93-2.47-1.93-1.42 0-2.48.66-2.52 2.19h-1.15zm6.14 1.39H355c-.15.27-.66.36-.97.42-1.95.34-4.38.33-4.38 2.17 0 1.15 1.02 1.86 2.1 1.86 1.75 0 3.3-1.11 3.29-2.96v-1.5z" fill="#666"/><path fill="#839EC8" d="M18.68 53.1c3.12 14.23 17.41 23.23 30.33 20.7-9.82-2.76-18.06-11.36-20.57-22.85-2.52-11.48 1.37-22.74 9.14-29.35-12.8 3.1-22.02 17.25-18.9 31.5z"/><path fill="#005695" d="M99.23 99.42c14.26-25.18 5.06-57.41-17.38-70.8 10.85 17.1 11.63 40.72.13 61.03-11.51 20.3-32.17 31.78-52.41 31.26 23.01 12.37 55.4 3.69 69.66-21.49z"/><path fill="#FAB816" d="M48.5 21.26C36.55 26.1 30.84 39.91 34.97 50.8c.94-8.97 7.2-17.44 16.85-21.35 9.64-3.9 20.03-2.2 26.95 3.6-4.61-10.7-18.32-16.63-30.27-11.79z"/><path fill="#678BBB" d="M25.08 87.73c16.81 7.03 36.28-1.14 42.96-16.18-9.87 8.07-24.58 10.33-38.14 4.66C16.33 70.54 7.6 58.48 6.42 45.79.42 61.1 8.27 80.7 25.08 87.73z"/><path fill="#4979AF" d="M46.88 110.37c21.42-4.41 35.18-25.68 31.63-45.1-4.33 14.67-17.38 26.86-34.66 30.42C26.58 99.25 9.77 93.2 0 81.43c4.42 19.25 25.46 33.35 46.88 28.94z"/><path d="M160.06 114.92a4.47 4.47 0 00-4.52-3.58c-3.91 0-5.56 3.27-5.56 6.5 0 3.22 1.65 6.48 5.56 6.48 2.73 0 4.46-2.1 4.73-4.73h1.4c-.4 3.62-2.68 5.93-6.13 5.93-4.65 0-6.97-3.65-6.97-7.69 0-4.02 2.32-7.68 6.97-7.68 2.78 0 5.55 1.67 5.93 4.77h-1.41zm3.39 2.89c.12-2.5 1.89-3.57 4.32-3.57 1.88 0 3.93.58 3.93 3.43v5.66c0 .5.25.79.76.79.15 0 .31-.05.41-.09v1.1c-.29.06-.5.08-.84.08-1.32 0-1.53-.74-1.53-1.85h-.04c-.91 1.38-1.84 2.16-3.89 2.16-1.96 0-3.57-.97-3.57-3.12 0-3 2.91-3.1 5.72-3.43 1.08-.12 1.68-.27 1.68-1.44 0-1.76-1.27-2.2-2.8-2.2-1.6 0-2.8.75-2.85 2.49h-1.3zm6.95 1.58h-.05c-.16.3-.74.41-1.09.47-2.21.4-4.96.37-4.96 2.46 0 1.3 1.16 2.1 2.38 2.1 1.97 0 3.73-1.25 3.71-3.34v-1.7zm3.92-8.93h1.3v14.75h-1.3v-14.75zm3.82 0h1.3v2.08h-1.3v-2.08zm0 4.09h1.3v10.66h-1.3v-10.66zm7.92 1.1h-2.1v9.56h-1.3v-9.56h-1.82v-1.1h1.81v-.97c-.02-1.84.5-3.12 2.58-3.12.38 0 .68.02 1.1.08v1.11c-.35-.06-.64-.1-.95-.1-1.45 0-1.4.91-1.43 2.07v.92h2.1v1.1zm10.79 4.23c0 3.06-1.78 5.64-5.04 5.64-3.27 0-5.05-2.58-5.05-5.64 0-3.06 1.78-5.64 5.05-5.64 3.26 0 5.04 2.58 5.04 5.64zm-8.79 0c0 2.27 1.24 4.55 3.75 4.55 2.5 0 3.74-2.28 3.74-4.55s-1.24-4.54-3.74-4.54-3.75 2.27-3.75 4.54zm10.74-5.33h1.19v2.5h.05a3.94 3.94 0 014.03-2.64v1.3c-2.36-.13-3.97 1.6-3.97 3.82v5.68h-1.3v-10.66zm6.85 0h1.3v1.84h.04c.48-1.28 1.9-2.15 3.41-2.15 3 0 3.91 1.57 3.91 4.11v6.86h-1.3v-6.65c0-1.84-.6-3.23-2.71-3.23-2.07 0-3.3 1.58-3.35 3.66v6.22h-1.3v-10.66zm11.14-4.09h1.3v2.08h-1.3v-2.08zm0 4.09h1.3v10.66h-1.3v-10.66zm3.68 3.26c.12-2.5 1.88-3.57 4.32-3.57 1.88 0 3.93.58 3.93 3.43v5.66c0 .5.24.79.76.79.15 0 .31-.05.41-.09v1.1c-.29.06-.5.08-.84.08-1.33 0-1.53-.74-1.53-1.85h-.04c-.91 1.38-1.84 2.16-3.89 2.16-1.96 0-3.58-.97-3.58-3.12 0-3 2.92-3.1 5.73-3.43 1.08-.12 1.68-.27 1.68-1.44 0-1.76-1.26-2.2-2.8-2.2-1.6 0-2.8.75-2.85 2.49h-1.3zm6.94 1.58h-.04c-.16.3-.74.41-1.1.47-2.2.4-4.95.37-4.95 2.46 0 1.3 1.15 2.1 2.37 2.1 1.99 0 3.74-1.25 3.72-3.34v-1.7zm9.9-8.93h5.1c4.45.1 6.79 2.54 6.79 7.37 0 4.84-2.34 7.28-6.78 7.38h-5.1v-14.75zm1.4 13.56h3c4.24.02 6.08-1.78 6.08-6.19 0-4.4-1.84-6.2-6.07-6.17h-3v12.36zm12.54-13.56h1.3v2.08h-1.3v-2.08zm0 4.09h1.3v10.66h-1.3v-10.66zm12.81 9.8c-.02 3.18-1.25 5.12-4.74 5.12-2.12 0-4.23-.95-4.41-3.23h1.3c.29 1.57 1.67 2.13 3.11 2.13 2.4 0 3.44-1.42 3.44-4.02v-1.45h-.05a3.7 3.7 0 01-3.39 2.19c-3.4 0-4.8-2.44-4.8-5.48 0-2.94 1.73-5.37 4.8-5.37 1.56 0 2.87.97 3.4 2.15h.04v-1.85h1.3v9.8zm-1.3-4.6c0-2.08-.97-4.41-3.44-4.41-2.48 0-3.5 2.2-3.5 4.42 0 2.15 1.1 4.23 3.5 4.23 2.25 0 3.44-2.06 3.44-4.23zm3.8-9.29h1.3v2.08h-1.3v-2.08zm0 4.09h1.3v10.66h-1.3v-10.66zm5.87 0h2.17v1.1h-2.17v7.19c0 .84.12 1.34 1.05 1.4.38 0 .75-.02 1.12-.06v1.11c-.4 0-.77.05-1.16.05-1.73 0-2.34-.58-2.31-2.4v-7.3h-1.86v-1.1h1.86v-3.2h1.3v3.2zm3.93 3.26c.12-2.5 1.87-3.57 4.32-3.57 1.87 0 3.92.58 3.92 3.43v5.66c0 .5.25.79.77.79.14 0 .3-.05.4-.09v1.1c-.28.06-.5.08-.84.08-1.32 0-1.53-.74-1.53-1.85h-.04c-.9 1.38-1.83 2.16-3.88 2.16-1.97 0-3.58-.97-3.58-3.12 0-3 2.92-3.1 5.73-3.43 1.07-.12 1.67-.27 1.67-1.44 0-1.76-1.26-2.2-2.8-2.2-1.6 0-2.8.75-2.84 2.49h-1.3zm6.94 1.58h-.04c-.17.3-.74.41-1.1.47-2.2.4-4.96.37-4.96 2.46 0 1.3 1.16 2.1 2.38 2.1 1.98 0 3.74-1.25 3.72-3.34v-1.7zm3.93-8.93h1.3v14.75h-1.3v-14.75zm9.79 0h1.4v13.56h8.28v1.2h-9.68v-14.76zm10.88 0h1.3v2.08h-1.3v-2.08zm0 4.09h1.3v10.66h-1.3v-10.66zm3.8-4.09h1.3v6.12h.04c.56-1.54 2.11-2.34 3.7-2.34 3.25 0 4.8 2.62 4.8 5.64s-1.55 5.64-4.8 5.64c-1.72 0-3.2-.89-3.8-2.33h-.04v2.02h-1.2v-14.75zm5.04 4.88c-2.77 0-3.74 2.33-3.74 4.54s.97 4.55 3.74 4.55c2.48 0 3.5-2.34 3.5-4.55s-1.02-4.55-3.5-4.55zm6.82-.79h1.2v2.5h.04a3.94 3.94 0 014.03-2.64v1.3c-2.36-.13-3.97 1.6-3.97 3.82v5.68h-1.3v-10.66zm6.39 3.26c.12-2.5 1.88-3.57 4.32-3.57 1.88 0 3.93.58 3.93 3.43v5.66c0 .5.25.79.76.79.15 0 .3-.05.41-.09v1.1c-.3.06-.5.08-.85.08-1.32 0-1.53-.74-1.53-1.85h-.04c-.9 1.38-1.84 2.16-3.88 2.16-1.96 0-3.57-.97-3.57-3.12 0-3 2.9-3.1 5.72-3.43 1.07-.12 1.67-.27 1.67-1.44 0-1.76-1.26-2.2-2.8-2.2-1.6 0-2.8.75-2.84 2.49h-1.3zm6.94 1.58h-.04c-.17.3-.74.41-1.1.47-2.2.4-4.96.37-4.96 2.46 0 1.3 1.16 2.1 2.38 2.1 1.98 0 3.74-1.25 3.72-3.34v-1.7zm3.91-4.84h1.2v2.5h.04a3.94 3.94 0 014.03-2.64v1.3c-2.36-.13-3.97 1.6-3.97 3.82v5.68h-1.3v-10.66zm5.31 0h1.38l3.52 9.1 3.28-9.1h1.3l-4.62 12.3c-.75 1.8-1.18 2.3-2.81 2.3-.52-.01-.8-.01-1-.1v-1.1c.31.07.6.11.9.11 1.15 0 1.42-.68 1.85-1.67l.46-1.22-4.26-10.62z" fill="#231F20"/><path d="M201.99 50.63c-3.12-11.41-9.17-14.53-17.46-14.53-15.02 0-22.04 13.36-22.04 27.4 0 18.04 8.88 30.13 21.84 30.13 9.76 0 14.73-5.36 19.8-15.8l3.51.68c-1.27 5.28-3.41 13.07-4.97 16.78-2.73.68-11.5 2.73-18.23 2.73-26.04 0-36.37-16.58-36.37-32.28 0-19.2 15.1-34.03 38.12-34.03 8.3 0 14.83 1.95 17.56 2.54.77 5.36 1.16 9.65 1.75 15.8l-3.51.58zm52.27-17.46c11.21 0 21.16 2.44 27.7 8.68a28.3 28.3 0 018.38 20.28c0 24-18.43 34.42-41.35 34.42h-24.67v-3.11c7.6-.6 8.38-1.27 8.38-11.8V48.09c0-10.53-.77-11.21-7.6-11.8v-3.12h29.16zm-8.87 47.88c0 8.97.97 11.12 8 11.12 14.03 0 22.71-10.93 22.71-27.3 0-20.97-10.63-27.5-24.47-27.5-2.83 0-4.98.29-5.56.68-.59.39-.68 2.44-.68 5.07v37.93zm84.44.2c0 7.12.39 9.26 2.44 10.14 1.66.68 4.29.78 7.32.78 3.8 0 8.29-.59 10.52-3.02 1.56-1.86 3.12-4.98 4.69-9.66l3.5.69c-.58 3.8-2.53 13.74-3.4 16.38h-46.52v-3.12c8-.6 8.78-1.27 8.78-11.8V48.09c0-10.53-.78-11.21-8.2-11.8v-3.12h29.26v3.12c-7.6.59-8.39 1.27-8.39 11.8v33.16z"/></svg>