<?xml version="1.0" standalone="no"?>
<!DOCTYPE svg PUBLIC "-//W3C//DTD SVG 20010904//EN"
 "http://www.w3.org/TR/2001/REC-SVG-20010904/DTD/svg10.dtd">
<svg version="1.0" xmlns="http://www.w3.org/2000/svg"
 width="205.000000pt" height="205.000000pt" viewBox="0 0 205.000000 205.000000"
 preserveAspectRatio="xMidYMid meet">
<metadata>
Created by potrace 1.11, written by Peter Selinger 2001-2013
</metadata>
<g transform="translate(0.000000,205.000000) scale(0.100000,-0.100000)"
fill="#000000" stroke="none">
<path d="M825 1949 c-370 -132 -365 -130 -365 -156 0 -16 83 -56 267 -129
l118 -47 340 0 340 0 108 48 c150 67 157 86 41 124 -32 10 -191 64 -351 120
-161 55 -301 101 -310 101 -10 -1 -94 -28 -188 -61z m310 -48 c61 -21 193 -67
294 -102 l184 -63 -59 -28 c-90 -43 -140 -34 -306 58 l-46 26 -69 -41 c-77
-47 -147 -71 -208 -71 -38 0 -287 88 -308 109 -7 7 369 149 398 150 6 1 60
-16 120 -38z"/>
<path d="M470 1685 c-28 -34 -32 -31 425 -210 94 -37 184 -73 200 -80 76 -34
105 -39 143 -28 52 15 494 212 510 227 16 16 -5 46 -33 48 -11 1 -129 -46
-261 -105 -133 -59 -245 -107 -248 -107 -4 0 -160 61 -347 135 -187 74 -349
135 -359 135 -9 0 -23 -7 -30 -15z"/>
<path d="M483 1570 c-25 -10 -30 -32 -10 -48 26 -22 704 -295 732 -295 17 0
55 11 85 25 30 14 116 54 190 88 74 34 162 75 195 90 76 35 92 52 70 74 -9 9
-20 16 -25 16 -10 0 -131 -52 -263 -114 -43 -20 -80 -36 -81 -36 -2 0 -39 -17
-82 -37 -43 -20 -86 -36 -94 -34 -15 2 -139 51 -195 76 -16 7 -54 23 -84 35
-30 11 -74 30 -97 41 -24 10 -46 19 -49 19 -3 0 -65 25 -137 55 -72 30 -131
55 -132 54 -1 0 -11 -4 -23 -9z"/>
<path d="M193 1170 c-17 -5 -18 -23 -18 -278 l-1 -273 153 2 c142 1 156 3 204
26 99 50 149 171 127 311 -16 103 -78 180 -163 203 -41 11 -269 18 -302 9z
m280 -125 c45 -29 62 -71 62 -156 0 -67 -3 -79 -28 -112 -31 -41 -63 -53 -145
-52 l-57 0 -3 172 -2 172 73 -3 c49 -2 82 -9 100 -21z"/>
<path d="M757 1170 c-9 -4 -12 -72 -12 -277 l0 -273 57 0 58 0 2 186 3 186 27
-78 c15 -44 43 -128 64 -187 l37 -108 50 3 50 3 61 178 c33 97 63 177 66 177
3 0 5 -81 5 -180 l-1 -180 58 0 58 0 0 275 c0 176 -4 275 -10 276 -36 3 -161
2 -163 -2 -2 -2 -27 -78 -56 -169 -28 -91 -55 -173 -59 -182 -5 -12 -27 40
-67 158 -33 97 -63 181 -66 186 -7 11 -140 17 -162 8z"/>
<path d="M1445 1170 c-2 -3 -3 -128 -3 -278 l0 -272 64 0 64 0 0 99 0 99 90 1
c118 1 170 23 203 86 50 98 5 224 -91 256 -33 11 -321 19 -327 9z m290 -114
c14 -9 25 -22 26 -29 0 -6 2 -19 3 -27 11 -53 -43 -88 -134 -86 l-55 2 -5 72
c-3 40 -2 77 3 81 14 14 135 5 162 -13z"/>
<path d="M400 575 c0 -25 0 -25 95 -25 l95 0 1 -222 c1 -315 -4 -286 49 -279
6 1 10 92 10 251 l0 250 96 0 c93 0 95 1 92 23 -3 22 -3 22 -220 25 l-218 2 0
-25z"/>
<path d="M1650 321 l0 -279 25 2 c15 0 25 7 26 16 0 8 1 133 2 277 l2 263 -27
0 -28 0 0 -279z"/>
<path d="M897 446 c-81 -29 -121 -95 -121 -201 0 -59 4 -78 27 -117 32 -55 80
-87 137 -92 131 -11 219 85 208 227 -8 100 -48 158 -127 184 -48 15 -78 15
-124 -1z m132 -55 c89 -62 94 -215 10 -286 -60 -50 -159 -23 -195 53 -70 149
64 318 185 233z"/>
<path d="M1325 448 c-121 -43 -164 -233 -79 -346 63 -82 198 -90 275 -16 51
49 72 151 48 237 -12 44 -62 105 -98 119 -38 16 -112 19 -146 6z m157 -77 c68
-76 55 -223 -25 -271 -43 -27 -96 -25 -138 3 -62 41 -84 160 -44 237 43 83
146 98 207 31z"/>
</g>
</svg>
