<?xml version="1.0" encoding="UTF-8"?>
<svg width="249px" height="114px" viewBox="0 0 249 114" version="1.1" xmlns="http://www.w3.org/2000/svg" xmlns:xlink="http://www.w3.org/1999/xlink">
    <title>Group 2</title>
    <defs>
        <linearGradient x1="50%" y1="18.6148113%" x2="50%" y2="92.9644444%" id="linearGradient-1">
            <stop stop-color="#24B5F4" offset="0%"></stop>
            <stop stop-color="#3470E7" offset="100%"></stop>
        </linearGradient>
        <linearGradient x1="50%" y1="18.6148113%" x2="50%" y2="92.9644444%" id="linearGradient-2">
            <stop stop-color="#24B5F4" offset="0%"></stop>
            <stop stop-color="#3470E7" offset="100%"></stop>
        </linearGradient>
    </defs>
    <g id="Page-1" stroke="none" stroke-width="1" fill="none" fill-rule="evenodd">
        <g id="A4-Copy-6" transform="translate(-297.000000, -81.000000)" fill-rule="nonzero">
            <g id="Group-2" transform="translate(297.664065, 81.152994)">
                <path d="M-4.54747351e-13,112.347006 L-4.54747351e-13,69.7470063 L15.90375,69.7470063 C20.57625,69.7470063 24.4848437,70.6970063 27.6295312,72.5970063 C30.7742187,74.4970063 33.141875,77.0570063 34.7325,80.2770063 C36.323125,83.4970063 37.1184375,87.0670063 37.1184375,90.9870063 C37.1184375,95.3070063 36.243125,99.0670063 34.4925,102.267006 C32.741875,105.467006 30.2771875,107.947006 27.0984375,109.707006 C23.9196875,111.467006 20.188125,112.347006 15.90375,112.347006 L-4.54747351e-13,112.347006 Z M27.1275,90.9870063 C27.1275,88.4926313 26.685625,86.2948188 25.801875,84.3935688 C24.918125,82.4923188 23.6385937,81.0110688 21.9632812,79.9498188 C20.2879687,78.8885688 18.268125,78.3579438 15.90375,78.3579438 L9.8465625,78.3579438 L9.8465625,103.736069 L15.90375,103.736069 C18.308125,103.736069 20.3409375,103.182475 22.0021875,102.075288 C23.6634375,100.9681 24.9329687,99.44685 25.8107812,97.5115375 C26.6885937,95.576225 27.1275,93.4013813 27.1275,90.9870063 Z M74.339375,112.347006 L74.339375,86.9416938 L65.16875,105.439506 L59.7940625,105.439506 L50.6065625,86.9416938 L50.6065625,112.347006 L40.76,112.347006 L40.76,69.7470063 L51.456875,69.7470063 L62.4725,92.0285688 L73.548125,69.7470063 L84.1859375,69.7470063 L84.1859375,112.347006 L74.339375,112.347006 Z M90.1530417,112.347006 L90.1530417,69.7470063 L108.336792,69.7470063 C110.357417,69.7470063 112.218823,70.1598188 113.92101,70.9854438 C115.623198,71.8110688 117.096167,72.9146625 118.339917,74.296225 C119.583667,75.6777875 120.546792,77.2279438 121.229292,78.9466938 C121.911792,80.6654438 122.253042,82.4123188 122.253042,84.1873188 C122.253042,86.6304438 121.683667,88.9532563 120.544917,91.1557563 C119.406167,93.3582563 117.822573,95.15185 115.794135,96.5365375 C113.765698,97.921225 111.385542,98.6135688 108.653667,98.6135688 L99.9996042,98.6135688 L99.9996042,112.347006 L90.1530417,112.347006 Z M99.9996042,90.0026313 L108.015229,90.0026313 C108.789604,90.0026313 109.493823,89.7860688 110.127885,89.3529438 C110.761948,88.9198188 111.27601,88.2632563 111.670073,87.3832563 C112.064135,86.5032563 112.261167,85.4310688 112.261167,84.1666938 C112.261167,82.8285688 112.035385,81.7295063 111.583823,80.8695063 C111.13226,80.0095063 110.559292,79.3759125 109.864917,78.968725 C109.170542,78.5615375 108.448042,78.3579438 107.697417,78.3579438 L99.9996042,78.3579438 L99.9996042,90.0026313 Z" id="Combined-Shape" fill="url(#linearGradient-1)"></path>
                <g id="Tool" transform="translate(134.691870, 68.547006)" fill="#5E5E5E">
                    <polygon id="Path" points="34.8 6 20.1 6 20.1 43.8 14.7 43.8 14.7 6 0 6 0 1.2 34.8 1.2"></polygon>
                    <path d="M45.3,44.4 C42.94,44.4 40.8,43.97 38.88,43.11 C36.96,42.25 35.3,41.07 33.9,39.57 C32.5,38.07 31.42,36.3435938 30.66,34.3907813 C29.9,32.4379688 29.52,30.374375 29.52,28.2 C29.52,25.985625 29.9,23.9020313 30.66,21.9492188 C31.42,19.9964063 32.5,18.27 33.9,16.77 C35.3,15.27 36.97,14.09 38.91,13.23 C40.85,12.37 42.99,11.94 45.33,11.94 C47.67,11.94 49.8,12.37 51.72,13.23 C53.64,14.09 55.31,15.27 56.73,16.77 C58.15,18.27 59.24,19.9964063 60,21.9492188 C60.76,23.9020313 61.14,25.985625 61.14,28.2 C61.14,30.374375 60.76,32.4379688 60,34.3907813 C59.24,36.3435938 58.16,38.07 56.76,39.57 C55.36,41.07 53.69,42.25 51.75,43.11 C49.81,43.97 47.66,44.4 45.3,44.4 Z M34.92,28.254375 C34.92,30.418125 35.39,32.38 36.33,34.14 C37.27,35.9 38.52,37.29 40.08,38.31 C41.64,39.33 43.38,39.84 45.3,39.84 C47.22,39.84 48.97,39.32 50.55,38.28 C52.13,37.24 53.39,35.83 54.33,34.05 C55.27,32.27 55.74,30.3 55.74,28.14 C55.74,25.98 55.27,24.02 54.33,22.26 C53.39,20.5 52.1271875,19.1 50.5415625,18.06 C48.9559375,17.02 47.20875,16.5 45.3,16.5 C43.38,16.5 41.636875,17.0315625 40.070625,18.0946875 C38.504375,19.1578125 37.254375,20.5678125 36.320625,22.3246875 C35.386875,24.0815625 34.92,26.058125 34.92,28.254375 Z" id="Shape"></path>
                    <path d="M79.44,44.4 C77.08,44.4 74.94,43.97 73.02,43.11 C71.1,42.25 69.44,41.07 68.04,39.57 C66.64,38.07 65.56,36.3435938 64.8,34.3907813 C64.04,32.4379688 63.66,30.374375 63.66,28.2 C63.66,25.985625 64.04,23.9020313 64.8,21.9492188 C65.56,19.9964063 66.64,18.27 68.04,16.77 C69.44,15.27 71.11,14.09 73.05,13.23 C74.99,12.37 77.13,11.94 79.47,11.94 C81.81,11.94 83.94,12.37 85.86,13.23 C87.78,14.09 89.45,15.27 90.87,16.77 C92.29,18.27 93.38,19.9964063 94.14,21.9492188 C94.9,23.9020313 95.28,25.985625 95.28,28.2 C95.28,30.374375 94.9,32.4379688 94.14,34.3907813 C93.38,36.3435938 92.3,38.07 90.9,39.57 C89.5,41.07 87.83,42.25 85.89,43.11 C83.95,43.97 81.8,44.4 79.44,44.4 Z M69.06,28.254375 C69.06,30.418125 69.53,32.38 70.47,34.14 C71.41,35.9 72.66,37.29 74.22,38.31 C75.78,39.33 77.52,39.84 79.44,39.84 C81.36,39.84 83.11,39.32 84.69,38.28 C86.27,37.24 87.53,35.83 88.47,34.05 C89.41,32.27 89.88,30.3 89.88,28.14 C89.88,25.98 89.41,24.02 88.47,22.26 C87.53,20.5 86.2671875,19.1 84.6815625,18.06 C83.0959375,17.02 81.34875,16.5 79.44,16.5 C77.52,16.5 75.776875,17.0315625 74.210625,18.0946875 C72.644375,19.1578125 71.394375,20.5678125 70.460625,22.3246875 C69.526875,24.0815625 69.06,26.058125 69.06,28.254375 Z" id="Shape"></path>
                    <path d="M100.02,0 L105.3,0 L105.3,35.7 C105.3,37.42 105.54,38.48 106.02,38.88 C106.5,39.28 107.08,39.48 107.76,39.48 C108.6,39.48 109.4,39.39 110.16,39.21 C110.92,39.03 111.56,38.84 112.08,38.64 L112.92,42.96 C112.04,43.32 111,43.62 109.8,43.86 C108.6,44.1 107.54,44.22 106.62,44.22 C104.58,44.22 102.97,43.64 101.79,42.48 C100.61,41.32 100.02,39.7 100.02,37.62 L100.02,0 Z" id="Path"></path>
                </g>
                <path d="M132.919708,-3.55271368e-15 C133.565954,-3.55271368e-15 134.188137,0.233381912 134.673578,0.653471777 L134.814995,0.7850533 L156.148328,22.1183866 C157.151452,23.1215103 157.193249,24.7219259 156.273718,25.7748239 L156.148328,25.9089593 L134.814995,47.2422926 C133.768257,48.2890304 132.07116,48.2890304 131.024422,47.2422926 C130.021298,46.239169 129.979502,44.6387534 130.899032,43.5858554 L131.024422,43.45172 L150.461935,24.0130063 L131.808935,5.36000629 L118.055935,5.36000629 L134.814995,22.1183866 C135.818118,23.1215103 135.859915,24.7219259 134.940385,25.7748239 L134.814995,25.9089593 L113.481661,47.2422926 C113.024697,47.6992573 112.419721,47.9741815 111.779414,48.0203911 L111.586375,48.0273459 L90.2530417,48.0273459 C87.9193852,48.0273459 86.7242094,45.2699806 88.2470788,43.5686557 L88.3577554,43.45172 L107.795935,24.0130063 L88.3577554,4.57562595 C87.3546317,3.57250229 87.3128349,1.9720867 88.2323649,0.919188715 L88.3577554,0.7850533 C89.360879,-0.218070361 90.9612946,-0.25986718 92.0141926,0.659662843 L92.148328,0.7850533 L113.481661,22.1183866 C114.484785,23.1215103 114.526582,24.7219259 113.607052,25.7748239 L113.481661,25.9089593 L96.723935,42.6660063 L110.475935,42.6660063 L129.128935,24.0130063 L109.691089,4.57562595 C108.040944,2.92548162 109.145579,0.130612994 111.425429,0.0044258584 L111.586375,-3.55271368e-15 L132.919708,-3.55271368e-15 Z" id="Path-4" fill="url(#linearGradient-2)"></path>
            </g>
        </g>
    </g>
</svg>