<?xml version="1.0" encoding="UTF-8"?>
<svg width="249px" height="150px" viewBox="0 0 249 150" version="1.1" xmlns="http://www.w3.org/2000/svg" xmlns:xlink="http://www.w3.org/1999/xlink">
    <title>Group 3</title>
    <g id="Page-1" stroke="none" stroke-width="1" fill="none" fill-rule="evenodd">
        <g id="A4-Copy-13" transform="translate(-297.000000, -363.000000)" fill="#FFFFFF" fill-rule="nonzero">
            <g id="Group-3" transform="translate(297.664065, 363.219660)">
                <path d="M0,112.347006 L0,69.7470063 L15.90375,69.7470063 C20.57625,69.7470063 24.4848437,70.6970063 27.6295313,72.5970063 C30.7742188,74.4970063 33.141875,77.0570063 34.7325,80.2770063 C36.323125,83.4970063 37.1184375,87.0670063 37.1184375,90.9870063 C37.1184375,95.3070063 36.243125,99.0670063 34.4925,102.267006 C32.741875,105.467006 30.2771875,107.947006 27.0984375,109.707006 C23.9196875,111.467006 20.188125,112.347006 15.90375,112.347006 L0,112.347006 Z M27.1275,90.9870063 C27.1275,88.4926313 26.685625,86.2948188 25.801875,84.3935688 C24.918125,82.4923188 23.6385937,81.0110688 21.9632812,79.9498188 C20.2879687,78.8885688 18.268125,78.3579438 15.90375,78.3579438 L9.8465625,78.3579438 L9.8465625,103.736069 L15.90375,103.736069 C18.308125,103.736069 20.3409375,103.182475 22.0021875,102.075288 C23.6634375,100.9681 24.9329687,99.44685 25.8107812,97.5115375 C26.6885937,95.576225 27.1275,93.4013813 27.1275,90.9870063 Z M74.339375,112.347006 L74.339375,86.9416938 L65.16875,105.439506 L59.7940625,105.439506 L50.6065625,86.9416938 L50.6065625,112.347006 L40.76,112.347006 L40.76,69.7470063 L51.456875,69.7470063 L62.4725,92.0285688 L73.548125,69.7470063 L84.1859375,69.7470063 L84.1859375,112.347006 L74.339375,112.347006 Z M90.1530417,112.347006 L90.1530417,69.7470063 L108.336792,69.7470063 C110.357417,69.7470063 112.218823,70.1598188 113.92101,70.9854438 C115.623198,71.8110688 117.096167,72.9146625 118.339917,74.296225 C119.583667,75.6777875 120.546792,77.2279438 121.229292,78.9466938 C121.911792,80.6654438 122.253042,82.4123188 122.253042,84.1873188 C122.253042,86.6304438 121.683667,88.9532563 120.544917,91.1557563 C119.406167,93.3582563 117.822573,95.15185 115.794135,96.5365375 C113.765698,97.921225 111.385542,98.6135688 108.653667,98.6135688 L99.9996042,98.6135688 L99.9996042,112.347006 L90.1530417,112.347006 Z M99.9996042,90.0026313 L108.015229,90.0026313 C108.789604,90.0026313 109.493823,89.7860688 110.127885,89.3529438 C110.761948,88.9198188 111.27601,88.2632563 111.670073,87.3832563 C112.064135,86.5032563 112.261167,85.4310688 112.261167,84.1666938 C112.261167,82.8285688 112.035385,81.7295063 111.583823,80.8695063 C111.13226,80.0095063 110.559292,79.3759125 109.864917,78.968725 C109.170542,78.5615375 108.448042,78.3579438 107.697417,78.3579438 L99.9996042,78.3579438 L99.9996042,90.0026313 Z" id="Combined-Shape-Copy"></path>
                <polygon id="Path" points="13.7082417 132.029406 13.7082417 144.347006 12.0884417 144.347006 12.0884417 135.162206 7.99444171 144.347006 6.85524171 144.347006 2.74344171 135.144406 2.74344171 144.347006 1.12364171 144.347006 1.12364171 132.029406 2.86804171 132.029406 7.42484171 142.211006 11.9816417 132.029406"></polygon>
                <path d="M15.8442417,139.434206 C15.8442417,138.437406 16.045975,137.56224 16.4494417,136.808706 C16.8529084,136.055173 17.407675,135.47074 18.1137417,135.055406 C18.8198084,134.640073 19.605975,134.432406 20.4722417,134.432406 C21.3266417,134.432406 22.0683084,134.61634 22.6972417,134.984206 C23.326175,135.352073 23.7949084,135.814873 24.1034417,136.372606 L24.1034417,134.592606 L25.7410417,134.592606 L25.7410417,144.347006 L24.1034417,144.347006 L24.1034417,142.531406 C23.7830417,143.101006 23.3054084,143.572706 22.6705417,143.946506 C22.035675,144.320306 21.296975,144.507206 20.4544417,144.507206 C19.588175,144.507206 18.804975,144.293606 18.1048417,143.866406 C17.4047084,143.439206 16.8529084,142.83994 16.4494417,142.068606 C16.045975,141.297273 15.8442417,140.41914 15.8442417,139.434206 Z M24.1034417,139.452006 C24.1034417,138.716273 23.9551084,138.075473 23.6584417,137.529606 C23.361775,136.98374 22.961275,136.56544 22.4569417,136.274706 C21.9526084,135.983973 21.3978417,135.838606 20.7926417,135.838606 C20.1874417,135.838606 19.6356417,135.981006 19.1372417,136.265806 C18.6388417,136.550606 18.2413084,136.96594 17.9446417,137.511806 C17.647975,138.057673 17.4996417,138.698473 17.4996417,139.434206 C17.4996417,140.181806 17.647975,140.831506 17.9446417,141.383306 C18.2413084,141.935106 18.6388417,142.356373 19.1372417,142.647106 C19.6356417,142.93784 20.1874417,143.083206 20.7926417,143.083206 C21.3978417,143.083206 21.9526084,142.93784 22.4569417,142.647106 C22.961275,142.356373 23.361775,141.935106 23.6584417,141.383306 C23.9551084,140.831506 24.1034417,140.18774 24.1034417,139.452006 Z" id="Shape"></path>
                <polygon id="Path" points="33.9290417 144.347006 30.1020417 140.039406 30.1020417 144.347006 28.4822417 144.347006 28.4822417 131.175006 30.1020417 131.175006 30.1020417 138.918006 33.8578417 134.592606 36.1184417 134.592606 31.5260417 139.452006 36.1362417 144.347006"></polygon>
                <path d="M38.4858417,133.008406 C38.1773084,133.008406 37.9162417,132.901606 37.7026417,132.688006 C37.4890417,132.474406 37.3822417,132.21334 37.3822417,131.904806 C37.3822417,131.596273 37.4890417,131.335206 37.7026417,131.121606 C37.9162417,130.908006 38.1773084,130.801206 38.4858417,130.801206 C38.7825084,130.801206 39.034675,130.908006 39.2423417,131.121606 C39.4500084,131.335206 39.5538417,131.596273 39.5538417,131.904806 C39.5538417,132.21334 39.4500084,132.474406 39.2423417,132.688006 C39.034675,132.901606 38.7825084,133.008406 38.4858417,133.008406 Z M39.2690417,134.592606 L39.2690417,144.347006 L37.6492417,144.347006 L37.6492417,134.592606 L39.2690417,134.592606 Z" id="Shape"></path>
                <path d="M46.7806417,134.414606 C47.9673084,134.414606 48.9285084,134.773573 49.6642417,135.491506 C50.399975,136.20944 50.7678417,137.244806 50.7678417,138.597606 L50.7678417,144.347006 L49.1658417,144.347006 L49.1658417,138.829006 C49.1658417,137.85594 48.922575,137.111306 48.4360417,136.595106 C47.9495084,136.078906 47.284975,135.820806 46.4424417,135.820806 C45.5880417,135.820806 44.908675,136.087806 44.4043417,136.621806 C43.9000084,137.155806 43.6478417,137.933073 43.6478417,138.953606 L43.6478417,144.347006 L42.0280417,144.347006 L42.0280417,134.592606 L43.6478417,134.592606 L43.6478417,135.981006 C43.9682417,135.482606 44.4043417,135.09694 44.9561417,134.824006 C45.5079417,134.551073 46.1161084,134.414606 46.7806417,134.414606 Z" id="Path"></path>
                <path d="M57.4428417,134.432406 C58.285375,134.432406 59.024075,134.61634 59.6589417,134.984206 C60.2938084,135.352073 60.7655084,135.814873 61.0740417,136.372606 L61.0740417,134.592606 L62.7116417,134.592606 L62.7116417,144.560606 C62.7116417,145.450606 62.521775,146.242706 62.1420417,146.936906 C61.7623084,147.631106 61.2194084,148.174006 60.5133417,148.565606 C59.807275,148.957206 58.9855084,149.153006 58.0480417,149.153006 C56.7664417,149.153006 55.6984417,148.850406 54.8440417,148.245206 C53.9896417,147.640006 53.4853084,146.815273 53.3310417,145.771006 L54.9330417,145.771006 C55.1110417,146.36434 55.4789084,146.841973 56.0366417,147.203906 C56.594375,147.56584 57.2648417,147.746806 58.0480417,147.746806 C58.9380417,147.746806 59.664875,147.46794 60.2285417,146.910206 C60.7922084,146.352473 61.0740417,145.569273 61.0740417,144.560606 L61.0740417,142.513606 C60.7536417,143.083206 60.278975,143.557873 59.6500417,143.937606 C59.0211084,144.31734 58.285375,144.507206 57.4428417,144.507206 C56.576575,144.507206 55.7904084,144.293606 55.0843417,143.866406 C54.378275,143.439206 53.8235084,142.83994 53.4200417,142.068606 C53.016575,141.297273 52.8148417,140.41914 52.8148417,139.434206 C52.8148417,138.437406 53.016575,137.56224 53.4200417,136.808706 C53.8235084,136.055173 54.378275,135.47074 55.0843417,135.055406 C55.7904084,134.640073 56.576575,134.432406 57.4428417,134.432406 Z M61.0740417,139.452006 C61.0740417,138.716273 60.9257084,138.075473 60.6290417,137.529606 C60.332375,136.98374 59.931875,136.56544 59.4275417,136.274706 C58.9232084,135.983973 58.3684417,135.838606 57.7632417,135.838606 C57.1580417,135.838606 56.6062417,135.981006 56.1078417,136.265806 C55.6094417,136.550606 55.2119084,136.96594 54.9152417,137.511806 C54.618575,138.057673 54.4702417,138.698473 54.4702417,139.434206 C54.4702417,140.181806 54.618575,140.831506 54.9152417,141.383306 C55.2119084,141.935106 55.6094417,142.356373 56.1078417,142.647106 C56.6062417,142.93784 57.1580417,143.083206 57.7632417,143.083206 C58.3684417,143.083206 58.9232084,142.93784 59.4275417,142.647106 C59.931875,142.356373 60.332375,141.935106 60.6290417,141.383306 C60.9257084,140.831506 61.0740417,140.18774 61.0740417,139.452006 Z" id="Shape"></path>
                <path d="M71.8252417,136.408206 C72.1575084,135.82674 72.6440417,135.352073 73.2848417,134.984206 C73.9256417,134.61634 74.6554417,134.432406 75.4742417,134.432406 C76.352375,134.432406 77.1415084,134.640073 77.8416417,135.055406 C78.541775,135.47074 79.093575,136.055173 79.4970417,136.808706 C79.9005084,137.56224 80.1022417,138.437406 80.1022417,139.434206 C80.1022417,140.41914 79.9005084,141.297273 79.4970417,142.068606 C79.093575,142.83994 78.5388084,143.439206 77.8327417,143.866406 C77.126675,144.293606 76.3405084,144.507206 75.4742417,144.507206 C74.6317084,144.507206 73.8930084,144.323273 73.2581417,143.955406 C72.623275,143.58754 72.1456417,143.118806 71.8252417,142.549206 L71.8252417,144.347006 L70.2054417,144.347006 L70.2054417,131.175006 L71.8252417,131.175006 L71.8252417,136.408206 Z M78.4468417,139.434206 C78.4468417,138.698473 78.2985084,138.057673 78.0018417,137.511806 C77.705175,136.96594 77.304675,136.550606 76.8003417,136.265806 C76.2960084,135.981006 75.7412417,135.838606 75.1360417,135.838606 C74.5427084,135.838606 73.993875,135.983973 73.4895417,136.274706 C72.9852084,136.56544 72.5817417,136.986706 72.2791417,137.538506 C71.9765417,138.090306 71.8252417,138.72814 71.8252417,139.452006 C71.8252417,140.18774 71.9765417,140.831506 72.2791417,141.383306 C72.5817417,141.935106 72.9852084,142.356373 73.4895417,142.647106 C73.993875,142.93784 74.5427084,143.083206 75.1360417,143.083206 C75.7412417,143.083206 76.2960084,142.93784 76.8003417,142.647106 C77.304675,142.356373 77.705175,141.935106 78.0018417,141.383306 C78.2985084,140.831506 78.4468417,140.181806 78.4468417,139.434206 Z" id="Shape"></path>
                <path d="M91.1382417,139.096006 C91.1382417,139.40454 91.1204417,139.730873 91.0848417,140.075006 L83.2884417,140.075006 C83.347775,141.036206 83.677075,141.786773 84.2763417,142.326706 C84.8756084,142.86664 85.6024417,143.136606 86.4568417,143.136606 C87.156975,143.136606 87.7414084,142.97344 88.2101417,142.647106 C88.678875,142.320773 89.008175,141.884673 89.1980417,141.338806 L90.9424417,141.338806 C90.681375,142.276273 90.1592417,143.038706 89.3760417,143.626106 C88.5928417,144.213506 87.619775,144.507206 86.4568417,144.507206 C85.5312417,144.507206 84.7035417,144.29954 83.9737417,143.884206 C83.2439417,143.468873 82.671375,142.878506 82.2560417,142.113106 C81.8407084,141.347706 81.6330417,140.460673 81.6330417,139.452006 C81.6330417,138.44334 81.834775,137.559273 82.2382417,136.799806 C82.6417084,136.04034 83.2083417,135.455906 83.9381417,135.046506 C84.6679417,134.637106 85.5075084,134.432406 86.4568417,134.432406 C87.3824417,134.432406 88.2012417,134.63414 88.9132417,135.037606 C89.6252417,135.441073 90.174075,135.99584 90.5597417,136.701906 C90.9454084,137.407973 91.1382417,138.206006 91.1382417,139.096006 Z M89.4650417,138.757806 C89.4650417,138.14074 89.328575,137.609706 89.0556417,137.164706 C88.7827084,136.719706 88.411875,136.381506 87.9431417,136.150106 C87.4744084,135.918706 86.9552417,135.803006 86.3856417,135.803006 C85.5668417,135.803006 84.869675,136.064073 84.2941417,136.586206 C83.7186084,137.10834 83.3893084,137.832206 83.3062417,138.757806 L89.4650417,138.757806 Z" id="Shape"></path>
                <path d="M96.7274417,144.507206 C95.9798417,144.507206 95.309375,144.37964 94.7160417,144.124506 C94.1227084,143.869373 93.653975,143.513373 93.3098417,143.056506 C92.9657084,142.59964 92.7758417,142.07454 92.7402417,141.481206 L94.4134417,141.481206 C94.4609084,141.96774 94.6893417,142.365273 95.0987417,142.673806 C95.5081417,142.98234 96.0451084,143.136606 96.7096417,143.136606 C97.3267084,143.136606 97.8132417,143.00014 98.1692417,142.727206 C98.5252417,142.454273 98.7032417,142.11014 98.7032417,141.694806 C98.7032417,141.267606 98.513375,140.950173 98.1336417,140.742506 C97.7539084,140.53484 97.1665084,140.33014 96.3714417,140.128406 C95.647575,139.93854 95.0572084,139.745706 94.6003417,139.549906 C94.143475,139.354106 93.751875,139.063373 93.4255417,138.677706 C93.0992084,138.29204 92.9360417,137.78474 92.9360417,137.155806 C92.9360417,136.657406 93.084375,136.20054 93.3810417,135.785206 C93.6777084,135.369873 94.098975,135.040573 94.6448417,134.797306 C95.1907084,134.55404 95.8137084,134.432406 96.5138417,134.432406 C97.5937084,134.432406 98.4659084,134.70534 99.1304417,135.251206 C99.794975,135.797073 100.150975,136.544673 100.198442,137.494006 L98.5786417,137.494006 C98.5430417,136.98374 98.3383417,136.57434 97.9645417,136.265806 C97.5907417,135.957273 97.089375,135.803006 96.4604417,135.803006 C95.878975,135.803006 95.416175,135.927606 95.0720417,136.176806 C94.7279084,136.426006 94.5558417,136.75234 94.5558417,137.155806 C94.5558417,137.476206 94.659675,137.74024 94.8673417,137.947906 C95.0750084,138.155573 95.336075,138.321706 95.6505417,138.446306 C95.9650084,138.570906 96.4011084,138.71034 96.9588417,138.864606 C97.658975,139.054473 98.228575,139.241373 98.6676417,139.425306 C99.1067084,139.60924 99.483475,139.88514 99.7979417,140.253006 C100.112408,140.620873 100.275575,141.101473 100.287442,141.694806 C100.287442,142.228806 100.139108,142.709406 99.8424417,143.136606 C99.545775,143.563806 99.127475,143.89904 98.5875417,144.142306 C98.0476084,144.385573 97.427575,144.507206 96.7274417,144.507206 Z" id="Path"></path>
                <path d="M104.541642,135.927606 L104.541642,141.677006 C104.541642,142.151673 104.642508,142.486906 104.844242,142.682706 C105.045975,142.878506 105.396042,142.976406 105.894442,142.976406 L107.087042,142.976406 L107.087042,144.347006 L105.627442,144.347006 C104.725575,144.347006 104.049175,144.13934 103.598242,143.724006 C103.147308,143.308673 102.921842,142.62634 102.921842,141.677006 L102.921842,135.927606 L101.658042,135.927606 L101.658042,134.592606 L102.921842,134.592606 L102.921842,132.136206 L104.541642,132.136206 L104.541642,134.592606 L107.087042,134.592606 L107.087042,135.927606 L104.541642,135.927606 Z" id="Path"></path>
                <path d="M115.417442,136.390406 C115.737842,135.832673 116.215475,135.366906 116.850342,134.993106 C117.485208,134.619306 118.223908,134.432406 119.066442,134.432406 C119.932708,134.432406 120.718875,134.640073 121.424942,135.055406 C122.131008,135.47074 122.685775,136.055173 123.089242,136.808706 C123.492708,137.56224 123.694442,138.437406 123.694442,139.434206 C123.694442,140.41914 123.492708,141.297273 123.089242,142.068606 C122.685775,142.83994 122.131008,143.439206 121.424942,143.866406 C120.718875,144.293606 119.932708,144.507206 119.066442,144.507206 C118.235775,144.507206 117.503008,144.320306 116.868142,143.946506 C116.233275,143.572706 115.749708,143.10694 115.417442,142.549206 L115.417442,148.975006 L113.797642,148.975006 L113.797642,134.592606 L115.417442,134.592606 L115.417442,136.390406 Z M122.039042,139.434206 C122.039042,138.698473 121.890708,138.057673 121.594042,137.511806 C121.297375,136.96594 120.896875,136.550606 120.392542,136.265806 C119.888208,135.981006 119.333442,135.838606 118.728242,135.838606 C118.134908,135.838606 117.586075,135.983973 117.081742,136.274706 C116.577408,136.56544 116.173942,136.986706 115.871342,137.538506 C115.568742,138.090306 115.417442,138.72814 115.417442,139.452006 C115.417442,140.18774 115.568742,140.831506 115.871342,141.383306 C116.173942,141.935106 116.577408,142.356373 117.081742,142.647106 C117.586075,142.93784 118.134908,143.083206 118.728242,143.083206 C119.333442,143.083206 119.888208,142.93784 120.392542,142.647106 C120.896875,142.356373 121.297375,141.935106 121.594042,141.383306 C121.890708,140.831506 122.039042,140.181806 122.039042,139.434206 Z" id="Shape"></path>
                <path d="M127.450242,136.176806 C127.735042,135.619073 128.141475,135.18594 128.669542,134.877406 C129.197608,134.568873 129.841375,134.414606 130.600842,134.414606 L130.600842,136.087806 L130.173642,136.087806 C128.358042,136.087806 127.450242,137.07274 127.450242,139.042606 L127.450242,144.347006 L125.830442,144.347006 L125.830442,134.592606 L127.450242,134.592606 L127.450242,136.176806 Z" id="Path"></path>
                <path d="M131.864642,139.434206 C131.864642,138.437406 132.066375,137.56224 132.469842,136.808706 C132.873308,136.055173 133.428075,135.47074 134.134142,135.055406 C134.840208,134.640073 135.626375,134.432406 136.492642,134.432406 C137.347042,134.432406 138.088708,134.61634 138.717642,134.984206 C139.346575,135.352073 139.815308,135.814873 140.123842,136.372606 L140.123842,134.592606 L141.761442,134.592606 L141.761442,144.347006 L140.123842,144.347006 L140.123842,142.531406 C139.803442,143.101006 139.325808,143.572706 138.690942,143.946506 C138.056075,144.320306 137.317375,144.507206 136.474842,144.507206 C135.608575,144.507206 134.825375,144.293606 134.125242,143.866406 C133.425108,143.439206 132.873308,142.83994 132.469842,142.068606 C132.066375,141.297273 131.864642,140.41914 131.864642,139.434206 Z M140.123842,139.452006 C140.123842,138.716273 139.975508,138.075473 139.678842,137.529606 C139.382175,136.98374 138.981675,136.56544 138.477342,136.274706 C137.973008,135.983973 137.418242,135.838606 136.813042,135.838606 C136.207842,135.838606 135.656042,135.981006 135.157642,136.265806 C134.659242,136.550606 134.261708,136.96594 133.965042,137.511806 C133.668375,138.057673 133.520042,138.698473 133.520042,139.434206 C133.520042,140.181806 133.668375,140.831506 133.965042,141.383306 C134.261708,141.935106 134.659242,142.356373 135.157642,142.647106 C135.656042,142.93784 136.207842,143.083206 136.813042,143.083206 C137.418242,143.083206 137.973008,142.93784 138.477342,142.647106 C138.981675,142.356373 139.382175,141.935106 139.678842,141.383306 C139.975508,140.831506 140.123842,140.18774 140.123842,139.452006 Z" id="Shape"></path>
                <path d="M143.897442,139.452006 C143.897442,138.44334 144.099175,137.56224 144.502642,136.808706 C144.906108,136.055173 145.466808,135.47074 146.184742,135.055406 C146.902675,134.640073 147.724442,134.432406 148.650042,134.432406 C149.848575,134.432406 150.836475,134.72314 151.613742,135.304606 C152.391008,135.886073 152.904242,136.693006 153.153442,137.725406 L151.409042,137.725406 C151.242908,137.132073 150.919542,136.66334 150.438942,136.319206 C149.958342,135.975073 149.362042,135.803006 148.650042,135.803006 C147.724442,135.803006 146.976842,136.12044 146.407242,136.755306 C145.837642,137.390173 145.552842,138.289073 145.552842,139.452006 C145.552842,140.626806 145.837642,141.534606 146.407242,142.175406 C146.976842,142.816206 147.724442,143.136606 148.650042,143.136606 C149.362042,143.136606 149.955375,142.970473 150.430042,142.638206 C150.904708,142.30594 151.231042,141.831273 151.409042,141.214206 L153.153442,141.214206 C152.892375,142.211006 152.370242,143.00904 151.587042,143.608306 C150.803842,144.207573 149.824842,144.507206 148.650042,144.507206 C147.724442,144.507206 146.902675,144.29954 146.184742,143.884206 C145.466808,143.468873 144.906108,142.881473 144.502642,142.122006 C144.099175,141.36254 143.897442,140.47254 143.897442,139.452006 Z" id="Path"></path>
                <path d="M157.283042,135.927606 L157.283042,141.677006 C157.283042,142.151673 157.383908,142.486906 157.585642,142.682706 C157.787375,142.878506 158.137442,142.976406 158.635842,142.976406 L159.828442,142.976406 L159.828442,144.347006 L158.368842,144.347006 C157.466975,144.347006 156.790575,144.13934 156.339642,143.724006 C155.888708,143.308673 155.663242,142.62634 155.663242,141.677006 L155.663242,135.927606 L154.399442,135.927606 L154.399442,134.592606 L155.663242,134.592606 L155.663242,132.136206 L157.283042,132.136206 L157.283042,134.592606 L159.828442,134.592606 L159.828442,135.927606 L157.283042,135.927606 Z" id="Path"></path>
                <path d="M162.623042,133.008406 C162.314508,133.008406 162.053442,132.901606 161.839842,132.688006 C161.626242,132.474406 161.519442,132.21334 161.519442,131.904806 C161.519442,131.596273 161.626242,131.335206 161.839842,131.121606 C162.053442,130.908006 162.314508,130.801206 162.623042,130.801206 C162.919708,130.801206 163.171875,130.908006 163.379542,131.121606 C163.587208,131.335206 163.691042,131.596273 163.691042,131.904806 C163.691042,132.21334 163.587208,132.474406 163.379542,132.688006 C163.171875,132.901606 162.919708,133.008406 162.623042,133.008406 Z M163.406242,134.592606 L163.406242,144.347006 L161.786442,144.347006 L161.786442,134.592606 L163.406242,134.592606 Z" id="Shape"></path>
                <path d="M165.560042,139.452006 C165.560042,138.44334 165.761775,137.56224 166.165242,136.808706 C166.568708,136.055173 167.129408,135.47074 167.847342,135.055406 C168.565275,134.640073 169.387042,134.432406 170.312642,134.432406 C171.511175,134.432406 172.499075,134.72314 173.276342,135.304606 C174.053608,135.886073 174.566842,136.693006 174.816042,137.725406 L173.071642,137.725406 C172.905508,137.132073 172.582142,136.66334 172.101542,136.319206 C171.620942,135.975073 171.024642,135.803006 170.312642,135.803006 C169.387042,135.803006 168.639442,136.12044 168.069842,136.755306 C167.500242,137.390173 167.215442,138.289073 167.215442,139.452006 C167.215442,140.626806 167.500242,141.534606 168.069842,142.175406 C168.639442,142.816206 169.387042,143.136606 170.312642,143.136606 C171.024642,143.136606 171.617975,142.970473 172.092642,142.638206 C172.567308,142.30594 172.893642,141.831273 173.071642,141.214206 L174.816042,141.214206 C174.554975,142.211006 174.032842,143.00904 173.249642,143.608306 C172.466442,144.207573 171.487442,144.507206 170.312642,144.507206 C169.387042,144.507206 168.565275,144.29954 167.847342,143.884206 C167.129408,143.468873 166.568708,142.881473 166.165242,142.122006 C165.761775,141.36254 165.560042,140.47254 165.560042,139.452006 Z" id="Path"></path>
                <path d="M185.869842,139.096006 C185.869842,139.40454 185.852042,139.730873 185.816442,140.075006 L178.020042,140.075006 C178.079375,141.036206 178.408675,141.786773 179.007942,142.326706 C179.607208,142.86664 180.334042,143.136606 181.188442,143.136606 C181.888575,143.136606 182.473008,142.97344 182.941742,142.647106 C183.410475,142.320773 183.739775,141.884673 183.929642,141.338806 L185.674042,141.338806 C185.412975,142.276273 184.890842,143.038706 184.107642,143.626106 C183.324442,144.213506 182.351375,144.507206 181.188442,144.507206 C180.262842,144.507206 179.435142,144.29954 178.705342,143.884206 C177.975542,143.468873 177.402975,142.878506 176.987642,142.113106 C176.572308,141.347706 176.364642,140.460673 176.364642,139.452006 C176.364642,138.44334 176.566375,137.559273 176.969842,136.799806 C177.373308,136.04034 177.939942,135.455906 178.669742,135.046506 C179.399542,134.637106 180.239108,134.432406 181.188442,134.432406 C182.114042,134.432406 182.932842,134.63414 183.644842,135.037606 C184.356842,135.441073 184.905675,135.99584 185.291342,136.701906 C185.677008,137.407973 185.869842,138.206006 185.869842,139.096006 Z M184.196642,138.757806 C184.196642,138.14074 184.060175,137.609706 183.787242,137.164706 C183.514308,136.719706 183.143475,136.381506 182.674742,136.150106 C182.206008,135.918706 181.686842,135.803006 181.117242,135.803006 C180.298442,135.803006 179.601275,136.064073 179.025742,136.586206 C178.450208,137.10834 178.120908,137.832206 178.037842,138.757806 L184.196642,138.757806 Z" id="Shape"></path>
                <path d="M201.658442,139.096006 C201.658442,139.40454 201.640642,139.730873 201.605042,140.075006 L193.808642,140.075006 C193.867975,141.036206 194.197275,141.786773 194.796542,142.326706 C195.395808,142.86664 196.122642,143.136606 196.977042,143.136606 C197.677175,143.136606 198.261608,142.97344 198.730342,142.647106 C199.199075,142.320773 199.528375,141.884673 199.718242,141.338806 L201.462642,141.338806 C201.201575,142.276273 200.679442,143.038706 199.896242,143.626106 C199.113042,144.213506 198.139975,144.507206 196.977042,144.507206 C196.051442,144.507206 195.223742,144.29954 194.493942,143.884206 C193.764142,143.468873 193.191575,142.878506 192.776242,142.113106 C192.360908,141.347706 192.153242,140.460673 192.153242,139.452006 C192.153242,138.44334 192.354975,137.559273 192.758442,136.799806 C193.161908,136.04034 193.728542,135.455906 194.458342,135.046506 C195.188142,134.637106 196.027708,134.432406 196.977042,134.432406 C197.902642,134.432406 198.721442,134.63414 199.433442,135.037606 C200.145442,135.441073 200.694275,135.99584 201.079942,136.701906 C201.465608,137.407973 201.658442,138.206006 201.658442,139.096006 Z M199.985242,138.757806 C199.985242,138.14074 199.848775,137.609706 199.575842,137.164706 C199.302908,136.719706 198.932075,136.381506 198.463342,136.150106 C197.994608,135.918706 197.475442,135.803006 196.905842,135.803006 C196.087042,135.803006 195.389875,136.064073 194.814342,136.586206 C194.238808,137.10834 193.909508,137.832206 193.826442,138.757806 L199.985242,138.757806 Z" id="Shape"></path>
                <path d="M203.189242,139.434206 C203.189242,138.437406 203.390975,137.56224 203.794442,136.808706 C204.197908,136.055173 204.752675,135.47074 205.458742,135.055406 C206.164808,134.640073 206.950975,134.432406 207.817242,134.432406 C208.671642,134.432406 209.413308,134.61634 210.042242,134.984206 C210.671175,135.352073 211.139908,135.814873 211.448442,136.372606 L211.448442,134.592606 L213.086042,134.592606 L213.086042,144.347006 L211.448442,144.347006 L211.448442,142.531406 C211.128042,143.101006 210.650408,143.572706 210.015542,143.946506 C209.380675,144.320306 208.641975,144.507206 207.799442,144.507206 C206.933175,144.507206 206.149975,144.293606 205.449842,143.866406 C204.749708,143.439206 204.197908,142.83994 203.794442,142.068606 C203.390975,141.297273 203.189242,140.41914 203.189242,139.434206 Z M211.448442,139.452006 C211.448442,138.716273 211.300108,138.075473 211.003442,137.529606 C210.706775,136.98374 210.306275,136.56544 209.801942,136.274706 C209.297608,135.983973 208.742842,135.838606 208.137642,135.838606 C207.532442,135.838606 206.980642,135.981006 206.482242,136.265806 C205.983842,136.550606 205.586308,136.96594 205.289642,137.511806 C204.992975,138.057673 204.844642,138.698473 204.844642,139.434206 C204.844642,140.181806 204.992975,140.831506 205.289642,141.383306 C205.586308,141.935106 205.983842,142.356373 206.482242,142.647106 C206.980642,142.93784 207.532442,143.083206 208.137642,143.083206 C208.742842,143.083206 209.297608,142.93784 209.801942,142.647106 C210.306275,142.356373 210.706775,141.935106 211.003442,141.383306 C211.300108,140.831506 211.448442,140.18774 211.448442,139.452006 Z" id="Shape"></path>
                <path d="M219.280442,144.507206 C218.532842,144.507206 217.862375,144.37964 217.269042,144.124506 C216.675708,143.869373 216.206975,143.513373 215.862842,143.056506 C215.518708,142.59964 215.328842,142.07454 215.293242,141.481206 L216.966442,141.481206 C217.013908,141.96774 217.242342,142.365273 217.651742,142.673806 C218.061142,142.98234 218.598108,143.136606 219.262642,143.136606 C219.879708,143.136606 220.366242,143.00014 220.722242,142.727206 C221.078242,142.454273 221.256242,142.11014 221.256242,141.694806 C221.256242,141.267606 221.066375,140.950173 220.686642,140.742506 C220.306908,140.53484 219.719508,140.33014 218.924442,140.128406 C218.200575,139.93854 217.610208,139.745706 217.153342,139.549906 C216.696475,139.354106 216.304875,139.063373 215.978542,138.677706 C215.652208,138.29204 215.489042,137.78474 215.489042,137.155806 C215.489042,136.657406 215.637375,136.20054 215.934042,135.785206 C216.230708,135.369873 216.651975,135.040573 217.197842,134.797306 C217.743708,134.55404 218.366708,134.432406 219.066842,134.432406 C220.146708,134.432406 221.018908,134.70534 221.683442,135.251206 C222.347975,135.797073 222.703975,136.544673 222.751442,137.494006 L221.131642,137.494006 C221.096042,136.98374 220.891342,136.57434 220.517542,136.265806 C220.143742,135.957273 219.642375,135.803006 219.013442,135.803006 C218.431975,135.803006 217.969175,135.927606 217.625042,136.176806 C217.280908,136.426006 217.108842,136.75234 217.108842,137.155806 C217.108842,137.476206 217.212675,137.74024 217.420342,137.947906 C217.628008,138.155573 217.889075,138.321706 218.203542,138.446306 C218.518008,138.570906 218.954108,138.71034 219.511842,138.864606 C220.211975,139.054473 220.781575,139.241373 221.220642,139.425306 C221.659708,139.60924 222.036475,139.88514 222.350942,140.253006 C222.665408,140.620873 222.828575,141.101473 222.840442,141.694806 C222.840442,142.228806 222.692108,142.709406 222.395442,143.136606 C222.098775,143.563806 221.680475,143.89904 221.140542,144.142306 C220.600608,144.385573 219.980575,144.507206 219.280442,144.507206 Z" id="Path"></path>
                <path d="M225.955442,133.008406 C225.646908,133.008406 225.385842,132.901606 225.172242,132.688006 C224.958642,132.474406 224.851842,132.21334 224.851842,131.904806 C224.851842,131.596273 224.958642,131.335206 225.172242,131.121606 C225.385842,130.908006 225.646908,130.801206 225.955442,130.801206 C226.252108,130.801206 226.504275,130.908006 226.711942,131.121606 C226.919608,131.335206 227.023442,131.596273 227.023442,131.904806 C227.023442,132.21334 226.919608,132.474406 226.711942,132.688006 C226.504275,132.901606 226.252108,133.008406 225.955442,133.008406 Z M226.738642,134.592606 L226.738642,144.347006 L225.118842,144.347006 L225.118842,134.592606 L226.738642,134.592606 Z" id="Shape"></path>
                <path d="M238.397642,139.096006 C238.397642,139.40454 238.379842,139.730873 238.344242,140.075006 L230.547842,140.075006 C230.607175,141.036206 230.936475,141.786773 231.535742,142.326706 C232.135008,142.86664 232.861842,143.136606 233.716242,143.136606 C234.416375,143.136606 235.000808,142.97344 235.469542,142.647106 C235.938275,142.320773 236.267575,141.884673 236.457442,141.338806 L238.201842,141.338806 C237.940775,142.276273 237.418642,143.038706 236.635442,143.626106 C235.852242,144.213506 234.879175,144.507206 233.716242,144.507206 C232.790642,144.507206 231.962942,144.29954 231.233142,143.884206 C230.503342,143.468873 229.930775,142.878506 229.515442,142.113106 C229.100108,141.347706 228.892442,140.460673 228.892442,139.452006 C228.892442,138.44334 229.094175,137.559273 229.497642,136.799806 C229.901108,136.04034 230.467742,135.455906 231.197542,135.046506 C231.927342,134.637106 232.766908,134.432406 233.716242,134.432406 C234.641842,134.432406 235.460642,134.63414 236.172642,135.037606 C236.884642,135.441073 237.433475,135.99584 237.819142,136.701906 C238.204808,137.407973 238.397642,138.206006 238.397642,139.096006 Z M236.724442,138.757806 C236.724442,138.14074 236.587975,137.609706 236.315042,137.164706 C236.042108,136.719706 235.671275,136.381506 235.202542,136.150106 C234.733808,135.918706 234.214642,135.803006 233.645042,135.803006 C232.826242,135.803006 232.129075,136.064073 231.553542,136.586206 C230.978008,137.10834 230.648708,137.832206 230.565642,138.757806 L236.724442,138.757806 Z" id="Shape"></path>
                <path d="M242.153442,136.176806 C242.438242,135.619073 242.844675,135.18594 243.372742,134.877406 C243.900808,134.568873 244.544575,134.414606 245.304042,134.414606 L245.304042,136.087806 L244.876842,136.087806 C243.061242,136.087806 242.153442,137.07274 242.153442,139.042606 L242.153442,144.347006 L240.533642,144.347006 L240.533642,134.592606 L242.153442,134.592606 L242.153442,136.176806 Z" id="Path"></path>
                <polygon id="Path" points="169.49187 74.5470063 154.79187 74.5470063 154.79187 112.347006 149.39187 112.347006 149.39187 74.5470063 134.69187 74.5470063 134.69187 69.7470063 169.49187 69.7470063"></polygon>
                <path d="M179.99187,112.947006 C177.63187,112.947006 175.49187,112.517006 173.57187,111.657006 C171.65187,110.797006 169.99187,109.617006 168.59187,108.117006 C167.19187,106.617006 166.11187,104.8906 165.35187,102.937788 C164.59187,100.984975 164.21187,98.9213813 164.21187,96.7470063 C164.21187,94.5326313 164.59187,92.4490375 165.35187,90.496225 C166.11187,88.5434125 167.19187,86.8170063 168.59187,85.3170063 C169.99187,83.8170063 171.66187,82.6370063 173.60187,81.7770063 C175.54187,80.9170063 177.68187,80.4870063 180.02187,80.4870063 C182.36187,80.4870063 184.49187,80.9170063 186.41187,81.7770063 C188.33187,82.6370063 190.00187,83.8170063 191.42187,85.3170063 C192.84187,86.8170063 193.93187,88.5434125 194.69187,90.496225 C195.45187,92.4490375 195.83187,94.5326313 195.83187,96.7470063 C195.83187,98.9213813 195.45187,100.984975 194.69187,102.937788 C193.93187,104.8906 192.85187,106.617006 191.45187,108.117006 C190.05187,109.617006 188.38187,110.797006 186.44187,111.657006 C184.50187,112.517006 182.35187,112.947006 179.99187,112.947006 Z M169.61187,96.8013813 C169.61187,98.9651313 170.08187,100.927006 171.02187,102.687006 C171.96187,104.447006 173.21187,105.837006 174.77187,106.857006 C176.33187,107.877006 178.07187,108.387006 179.99187,108.387006 C181.91187,108.387006 183.66187,107.867006 185.24187,106.827006 C186.82187,105.787006 188.08187,104.377006 189.02187,102.597006 C189.96187,100.817006 190.43187,98.8470063 190.43187,96.6870063 C190.43187,94.5270063 189.96187,92.5670063 189.02187,90.8070063 C188.08187,89.0470063 186.819057,87.6470063 185.233432,86.6070063 C183.647807,85.5670063 181.90062,85.0470063 179.99187,85.0470063 C178.07187,85.0470063 176.328745,85.5785688 174.762495,86.6416938 C173.196245,87.7048188 171.946245,89.1148188 171.012495,90.8716938 C170.078745,92.6285688 169.61187,94.6051313 169.61187,96.8013813 Z" id="Shape"></path>
                <path d="M214.13187,112.947006 C211.77187,112.947006 209.63187,112.517006 207.71187,111.657006 C205.79187,110.797006 204.13187,109.617006 202.73187,108.117006 C201.33187,106.617006 200.25187,104.8906 199.49187,102.937788 C198.73187,100.984975 198.35187,98.9213813 198.35187,96.7470063 C198.35187,94.5326313 198.73187,92.4490375 199.49187,90.496225 C200.25187,88.5434125 201.33187,86.8170063 202.73187,85.3170063 C204.13187,83.8170063 205.80187,82.6370063 207.74187,81.7770063 C209.68187,80.9170063 211.82187,80.4870063 214.16187,80.4870063 C216.50187,80.4870063 218.63187,80.9170063 220.55187,81.7770063 C222.47187,82.6370063 224.14187,83.8170063 225.56187,85.3170063 C226.98187,86.8170063 228.07187,88.5434125 228.83187,90.496225 C229.59187,92.4490375 229.97187,94.5326313 229.97187,96.7470063 C229.97187,98.9213813 229.59187,100.984975 228.83187,102.937788 C228.07187,104.8906 226.99187,106.617006 225.59187,108.117006 C224.19187,109.617006 222.52187,110.797006 220.58187,111.657006 C218.64187,112.517006 216.49187,112.947006 214.13187,112.947006 Z M203.75187,96.8013813 C203.75187,98.9651313 204.22187,100.927006 205.16187,102.687006 C206.10187,104.447006 207.35187,105.837006 208.91187,106.857006 C210.47187,107.877006 212.21187,108.387006 214.13187,108.387006 C216.05187,108.387006 217.80187,107.867006 219.38187,106.827006 C220.96187,105.787006 222.22187,104.377006 223.16187,102.597006 C224.10187,100.817006 224.57187,98.8470063 224.57187,96.6870063 C224.57187,94.5270063 224.10187,92.5670063 223.16187,90.8070063 C222.22187,89.0470063 220.959057,87.6470063 219.373432,86.6070063 C217.787807,85.5670063 216.04062,85.0470063 214.13187,85.0470063 C212.21187,85.0470063 210.468745,85.5785688 208.902495,86.6416938 C207.336245,87.7048188 206.086245,89.1148188 205.152495,90.8716938 C204.218745,92.6285688 203.75187,94.6051313 203.75187,96.8013813 Z" id="Shape"></path>
                <path d="M234.71187,68.5470063 L239.99187,68.5470063 L239.99187,104.247006 C239.99187,105.967006 240.23187,107.027006 240.71187,107.427006 C241.19187,107.827006 241.77187,108.027006 242.45187,108.027006 C243.29187,108.027006 244.09187,107.937006 244.85187,107.757006 C245.61187,107.577006 246.25187,107.387006 246.77187,107.187006 L247.61187,111.507006 C246.73187,111.867006 245.69187,112.167006 244.49187,112.407006 C243.29187,112.647006 242.23187,112.767006 241.31187,112.767006 C239.27187,112.767006 237.66187,112.187006 236.48187,111.027006 C235.30187,109.867006 234.71187,108.247006 234.71187,106.167006 L234.71187,68.5470063 Z" id="Path"></path>
                <path d="M132.919708,-1.42108547e-14 C133.565954,-1.42108547e-14 134.188137,0.233381912 134.673578,0.653471777 L134.814995,0.7850533 L156.148328,22.1183866 C157.151452,23.1215103 157.193249,24.7219259 156.273718,25.7748239 L156.148328,25.9089593 L134.814995,47.2422926 C133.768257,48.2890304 132.07116,48.2890304 131.024422,47.2422926 C130.021298,46.239169 129.979502,44.6387534 130.899032,43.5858554 L131.024422,43.45172 L150.461935,24.0133396 L131.808935,5.36033963 L118.056935,5.36033963 L134.814995,22.1183866 C135.818118,23.1215103 135.859915,24.7219259 134.940385,25.7748239 L134.814995,25.9089593 L113.481661,47.2422926 C113.024697,47.6992573 112.419721,47.9741815 111.779414,48.0203911 L111.586375,48.0273459 L90.2530417,48.0273459 C87.9193852,48.0273459 86.7242094,45.2699806 88.2470788,43.5686557 L88.3577554,43.45172 L107.795935,24.0133396 L88.3577554,4.57562595 C87.3546317,3.57250229 87.3128349,1.9720867 88.2323649,0.919188715 L88.3577554,0.7850533 C89.360879,-0.218070361 90.9612946,-0.25986718 92.0141926,0.659662843 L92.148328,0.7850533 L113.481661,22.1183866 C114.484785,23.1215103 114.526582,24.7219259 113.607052,25.7748239 L113.481661,25.9089593 L96.722935,42.6663396 L110.475935,42.6663396 L129.128935,24.0133396 L109.691089,4.57562595 C108.040944,2.92548162 109.145579,0.130612994 111.425429,0.0044258584 L111.586375,-1.42108547e-14 L132.919708,-1.42108547e-14 Z" id="Path-4-Copy"></path>
            </g>
        </g>
    </g>
</svg>