<?xml version="1.0" encoding="UTF-8"?>
<svg width="249px" height="114px" viewBox="0 0 249 114" version="1.1" xmlns="http://www.w3.org/2000/svg" xmlns:xlink="http://www.w3.org/1999/xlink">
    <title>Group 3</title>
    <g id="Page-1" stroke="none" stroke-width="1" fill="none" fill-rule="evenodd">
        <g id="A4-Copy-12" transform="translate(-297.000000, -81.000000)" fill="#000000" fill-rule="nonzero">
            <g id="Group-3" transform="translate(297.664065, 81.152994)">
                <path d="M-4.54747351e-13,112.347006 L-4.54747351e-13,69.7470063 L15.90375,69.7470063 C20.57625,69.7470063 24.4848437,70.6970063 27.6295312,72.5970063 C30.7742187,74.4970063 33.141875,77.0570063 34.7325,80.2770063 C36.323125,83.4970063 37.1184375,87.0670063 37.1184375,90.9870063 C37.1184375,95.3070063 36.243125,99.0670063 34.4925,102.267006 C32.741875,105.467006 30.2771875,107.947006 27.0984375,109.707006 C23.9196875,111.467006 20.188125,112.347006 15.90375,112.347006 L-4.54747351e-13,112.347006 Z M27.1275,90.9870063 C27.1275,88.4926313 26.685625,86.2948188 25.801875,84.3935688 C24.918125,82.4923188 23.6385937,81.0110688 21.9632812,79.9498188 C20.2879687,78.8885688 18.268125,78.3579438 15.90375,78.3579438 L9.8465625,78.3579438 L9.8465625,103.736069 L15.90375,103.736069 C18.308125,103.736069 20.3409375,103.182475 22.0021875,102.075288 C23.6634375,100.9681 24.9329687,99.44685 25.8107812,97.5115375 C26.6885937,95.576225 27.1275,93.4013813 27.1275,90.9870063 Z M74.339375,112.347006 L74.339375,86.9416938 L65.16875,105.439506 L59.7940625,105.439506 L50.6065625,86.9416938 L50.6065625,112.347006 L40.76,112.347006 L40.76,69.7470063 L51.456875,69.7470063 L62.4725,92.0285688 L73.548125,69.7470063 L84.1859375,69.7470063 L84.1859375,112.347006 L74.339375,112.347006 Z M90.1530417,112.347006 L90.1530417,69.7470063 L108.336792,69.7470063 C110.357417,69.7470063 112.218823,70.1598188 113.92101,70.9854438 C115.623198,71.8110688 117.096167,72.9146625 118.339917,74.296225 C119.583667,75.6777875 120.546792,77.2279438 121.229292,78.9466938 C121.911792,80.6654438 122.253042,82.4123188 122.253042,84.1873188 C122.253042,86.6304438 121.683667,88.9532563 120.544917,91.1557563 C119.406167,93.3582563 117.822573,95.15185 115.794135,96.5365375 C113.765698,97.921225 111.385542,98.6135688 108.653667,98.6135688 L99.9996042,98.6135688 L99.9996042,112.347006 L90.1530417,112.347006 Z M99.9996042,90.0026313 L108.015229,90.0026313 C108.789604,90.0026313 109.493823,89.7860688 110.127885,89.3529438 C110.761948,88.9198188 111.27601,88.2632563 111.670073,87.3832563 C112.064135,86.5032563 112.261167,85.4310688 112.261167,84.1666938 C112.261167,82.8285688 112.035385,81.7295063 111.583823,80.8695063 C111.13226,80.0095063 110.559292,79.3759125 109.864917,78.968725 C109.170542,78.5615375 108.448042,78.3579438 107.697417,78.3579438 L99.9996042,78.3579438 L99.9996042,90.0026313 Z" id="Combined-Shape"></path>
                <polygon id="Path" points="169.49187 74.5470063 154.79187 74.5470063 154.79187 112.347006 149.39187 112.347006 149.39187 74.5470063 134.69187 74.5470063 134.69187 69.7470063 169.49187 69.7470063"></polygon>
                <path d="M179.99187,112.947006 C177.63187,112.947006 175.49187,112.517006 173.57187,111.657006 C171.65187,110.797006 169.99187,109.617006 168.59187,108.117006 C167.19187,106.617006 166.11187,104.8906 165.35187,102.937788 C164.59187,100.984975 164.21187,98.9213813 164.21187,96.7470063 C164.21187,94.5326313 164.59187,92.4490375 165.35187,90.496225 C166.11187,88.5434125 167.19187,86.8170063 168.59187,85.3170063 C169.99187,83.8170063 171.66187,82.6370063 173.60187,81.7770063 C175.54187,80.9170063 177.68187,80.4870063 180.02187,80.4870063 C182.36187,80.4870063 184.49187,80.9170063 186.41187,81.7770063 C188.33187,82.6370063 190.00187,83.8170063 191.42187,85.3170063 C192.84187,86.8170063 193.93187,88.5434125 194.69187,90.496225 C195.45187,92.4490375 195.83187,94.5326313 195.83187,96.7470063 C195.83187,98.9213813 195.45187,100.984975 194.69187,102.937788 C193.93187,104.8906 192.85187,106.617006 191.45187,108.117006 C190.05187,109.617006 188.38187,110.797006 186.44187,111.657006 C184.50187,112.517006 182.35187,112.947006 179.99187,112.947006 Z M169.61187,96.8013813 C169.61187,98.9651313 170.08187,100.927006 171.02187,102.687006 C171.96187,104.447006 173.21187,105.837006 174.77187,106.857006 C176.33187,107.877006 178.07187,108.387006 179.99187,108.387006 C181.91187,108.387006 183.66187,107.867006 185.24187,106.827006 C186.82187,105.787006 188.08187,104.377006 189.02187,102.597006 C189.96187,100.817006 190.43187,98.8470063 190.43187,96.6870063 C190.43187,94.5270063 189.96187,92.5670063 189.02187,90.8070063 C188.08187,89.0470063 186.819057,87.6470063 185.233432,86.6070063 C183.647807,85.5670063 181.90062,85.0470063 179.99187,85.0470063 C178.07187,85.0470063 176.328745,85.5785688 174.762495,86.6416938 C173.196245,87.7048188 171.946245,89.1148188 171.012495,90.8716938 C170.078745,92.6285688 169.61187,94.6051313 169.61187,96.8013813 Z" id="Shape"></path>
                <path d="M214.13187,112.947006 C211.77187,112.947006 209.63187,112.517006 207.71187,111.657006 C205.79187,110.797006 204.13187,109.617006 202.73187,108.117006 C201.33187,106.617006 200.25187,104.8906 199.49187,102.937788 C198.73187,100.984975 198.35187,98.9213813 198.35187,96.7470063 C198.35187,94.5326313 198.73187,92.4490375 199.49187,90.496225 C200.25187,88.5434125 201.33187,86.8170063 202.73187,85.3170063 C204.13187,83.8170063 205.80187,82.6370063 207.74187,81.7770063 C209.68187,80.9170063 211.82187,80.4870063 214.16187,80.4870063 C216.50187,80.4870063 218.63187,80.9170063 220.55187,81.7770063 C222.47187,82.6370063 224.14187,83.8170063 225.56187,85.3170063 C226.98187,86.8170063 228.07187,88.5434125 228.83187,90.496225 C229.59187,92.4490375 229.97187,94.5326313 229.97187,96.7470063 C229.97187,98.9213813 229.59187,100.984975 228.83187,102.937788 C228.07187,104.8906 226.99187,106.617006 225.59187,108.117006 C224.19187,109.617006 222.52187,110.797006 220.58187,111.657006 C218.64187,112.517006 216.49187,112.947006 214.13187,112.947006 Z M203.75187,96.8013813 C203.75187,98.9651313 204.22187,100.927006 205.16187,102.687006 C206.10187,104.447006 207.35187,105.837006 208.91187,106.857006 C210.47187,107.877006 212.21187,108.387006 214.13187,108.387006 C216.05187,108.387006 217.80187,107.867006 219.38187,106.827006 C220.96187,105.787006 222.22187,104.377006 223.16187,102.597006 C224.10187,100.817006 224.57187,98.8470063 224.57187,96.6870063 C224.57187,94.5270063 224.10187,92.5670063 223.16187,90.8070063 C222.22187,89.0470063 220.959057,87.6470063 219.373432,86.6070063 C217.787807,85.5670063 216.04062,85.0470063 214.13187,85.0470063 C212.21187,85.0470063 210.468745,85.5785688 208.902495,86.6416938 C207.336245,87.7048188 206.086245,89.1148188 205.152495,90.8716938 C204.218745,92.6285688 203.75187,94.6051313 203.75187,96.8013813 Z" id="Shape"></path>
                <path d="M234.71187,68.5470063 L239.99187,68.5470063 L239.99187,104.247006 C239.99187,105.967006 240.23187,107.027006 240.71187,107.427006 C241.19187,107.827006 241.77187,108.027006 242.45187,108.027006 C243.29187,108.027006 244.09187,107.937006 244.85187,107.757006 C245.61187,107.577006 246.25187,107.387006 246.77187,107.187006 L247.61187,111.507006 C246.73187,111.867006 245.69187,112.167006 244.49187,112.407006 C243.29187,112.647006 242.23187,112.767006 241.31187,112.767006 C239.27187,112.767006 237.66187,112.187006 236.48187,111.027006 C235.30187,109.867006 234.71187,108.247006 234.71187,106.167006 L234.71187,68.5470063 Z" id="Path"></path>
                <path d="M132.919708,-3.55271368e-15 C133.565954,-3.55271368e-15 134.188137,0.233381912 134.673578,0.653471777 L134.814995,0.7850533 L156.148328,22.1183866 C157.151452,23.1215103 157.193249,24.7219259 156.273718,25.7748239 L156.148328,25.9089593 L134.814995,47.2422926 C133.768257,48.2890304 132.07116,48.2890304 131.024422,47.2422926 C130.021298,46.239169 129.979502,44.6387534 130.899032,43.5858554 L131.024422,43.45172 L150.461935,24.0130063 L131.808935,5.36000629 L118.055935,5.36000629 L134.814995,22.1183866 C135.818118,23.1215103 135.859915,24.7219259 134.940385,25.7748239 L134.814995,25.9089593 L113.481661,47.2422926 C113.024697,47.6992573 112.419721,47.9741815 111.779414,48.0203911 L111.586375,48.0273459 L90.2530417,48.0273459 C87.9193852,48.0273459 86.7242094,45.2699806 88.2470788,43.5686557 L88.3577554,43.45172 L107.795935,24.0130063 L88.3577554,4.57562595 C87.3546317,3.57250229 87.3128349,1.9720867 88.2323649,0.919188715 L88.3577554,0.7850533 C89.360879,-0.218070361 90.9612946,-0.25986718 92.0141926,0.659662843 L92.148328,0.7850533 L113.481661,22.1183866 C114.484785,23.1215103 114.526582,24.7219259 113.607052,25.7748239 L113.481661,25.9089593 L96.723935,42.6660063 L110.475935,42.6660063 L129.128935,24.0130063 L109.691089,4.57562595 C108.040944,2.92548162 109.145579,0.130612994 111.425429,0.0044258584 L111.586375,-3.55271368e-15 L132.919708,-3.55271368e-15 Z" id="Path-4"></path>
            </g>
        </g>
    </g>
</svg>