<?xml version="1.0" encoding="UTF-8"?>
<svg width="249px" height="150px" viewBox="0 0 249 150" version="1.1" xmlns="http://www.w3.org/2000/svg" xmlns:xlink="http://www.w3.org/1999/xlink">
    <title>Group 2</title>
    <g id="Page-1" stroke="none" stroke-width="1" fill="none" fill-rule="evenodd">
        <g id="A4-Copy-12" transform="translate(-297.000000, -363.000000)" fill="#000000" fill-rule="nonzero">
            <g id="Group-2" transform="translate(297.664065, 363.219660)">
                <path d="M-4.54747351e-13,112.347006 L-4.54747351e-13,69.7470063 L15.90375,69.7470063 C20.57625,69.7470063 24.4848437,70.6970063 27.6295312,72.5970063 C30.7742187,74.4970063 33.141875,77.0570063 34.7325,80.2770063 C36.323125,83.4970063 37.1184375,87.0670063 37.1184375,90.9870063 C37.1184375,95.3070063 36.243125,99.0670063 34.4925,102.267006 C32.741875,105.467006 30.2771875,107.947006 27.0984375,109.707006 C23.9196875,111.467006 20.188125,112.347006 15.90375,112.347006 L-4.54747351e-13,112.347006 Z M27.1275,90.9870063 C27.1275,88.4926313 26.685625,86.2948188 25.801875,84.3935688 C24.918125,82.4923188 23.6385937,81.0110688 21.9632812,79.9498188 C20.2879687,78.8885688 18.268125,78.3579438 15.90375,78.3579438 L9.8465625,78.3579438 L9.8465625,103.736069 L15.90375,103.736069 C18.308125,103.736069 20.3409375,103.182475 22.0021875,102.075288 C23.6634375,100.9681 24.9329687,99.44685 25.8107812,97.5115375 C26.6885937,95.576225 27.1275,93.4013813 27.1275,90.9870063 Z M74.339375,112.347006 L74.339375,86.9416938 L65.16875,105.439506 L59.7940625,105.439506 L50.6065625,86.9416938 L50.6065625,112.347006 L40.76,112.347006 L40.76,69.7470063 L51.456875,69.7470063 L62.4725,92.0285688 L73.548125,69.7470063 L84.1859375,69.7470063 L84.1859375,112.347006 L74.339375,112.347006 Z M90.1530417,112.347006 L90.1530417,69.7470063 L108.336792,69.7470063 C110.357417,69.7470063 112.218823,70.1598188 113.92101,70.9854438 C115.623198,71.8110688 117.096167,72.9146625 118.339917,74.296225 C119.583667,75.6777875 120.546792,77.2279438 121.229292,78.9466938 C121.911792,80.6654438 122.253042,82.4123188 122.253042,84.1873188 C122.253042,86.6304438 121.683667,88.9532563 120.544917,91.1557563 C119.406167,93.3582563 117.822573,95.15185 115.794135,96.5365375 C113.765698,97.921225 111.385542,98.6135688 108.653667,98.6135688 L99.9996042,98.6135688 L99.9996042,112.347006 L90.1530417,112.347006 Z M99.9996042,90.0026313 L108.015229,90.0026313 C108.789604,90.0026313 109.493823,89.7860688 110.127885,89.3529438 C110.761948,88.9198188 111.27601,88.2632563 111.670073,87.3832563 C112.064135,86.5032563 112.261167,85.4310688 112.261167,84.1666938 C112.261167,82.8285688 112.035385,81.7295063 111.583823,80.8695063 C111.13226,80.0095063 110.559292,79.3759125 109.864917,78.968725 C109.170542,78.5615375 108.448042,78.3579438 107.697417,78.3579438 L99.9996042,78.3579438 L99.9996042,90.0026313 Z" id="Combined-Shape-Copy"></path>
                <g id="Group" transform="translate(1.123642, 130.801206)">
                    <polygon id="Path" points="12.5846 1.2282 12.5846 13.5458 10.9648 13.5458 10.9648 4.361 6.8708 13.5458 5.7316 13.5458 1.6198 4.3432 1.6198 13.5458 0 13.5458 0 1.2282 1.7444 1.2282 6.3012 11.4098 10.858 1.2282"></polygon>
                    <path d="M14.7206,8.633 C14.7206,7.6362 14.9223333,6.76103333 15.3258,6.0075 C15.7292667,5.25396667 16.2840333,4.66953333 16.9901,4.2542 C17.6961667,3.83886667 18.4823333,3.6312 19.3486,3.6312 C20.203,3.6312 20.9446667,3.81513333 21.5736,4.183 C22.2025333,4.55086667 22.6712667,5.01366667 22.9798,5.5714 L22.9798,3.7914 L24.6174,3.7914 L24.6174,13.5458 L22.9798,13.5458 L22.9798,11.7302 C22.6594,12.2998 22.1817667,12.7715 21.5469,13.1453 C20.9120333,13.5191 20.1733333,13.706 19.3308,13.706 C18.4645333,13.706 17.6813333,13.4924 16.9812,13.0652 C16.2810667,12.638 15.7292667,12.0387333 15.3258,11.2674 C14.9223333,10.4960667 14.7206,9.61793333 14.7206,8.633 Z M22.9798,8.6508 C22.9798,7.91506667 22.8314667,7.27426667 22.5348,6.7284 C22.2381333,6.18253333 21.8376333,5.76423333 21.3333,5.4735 C20.8289667,5.18276667 20.2742,5.0374 19.669,5.0374 C19.0638,5.0374 18.512,5.1798 18.0136,5.4646 C17.5152,5.7494 17.1176667,6.16473333 16.821,6.7106 C16.5243333,7.25646667 16.376,7.89726667 16.376,8.633 C16.376,9.3806 16.5243333,10.0303 16.821,10.5821 C17.1176667,11.1339 17.5152,11.5551667 18.0136,11.8459 C18.512,12.1366333 19.0638,12.282 19.669,12.282 C20.2742,12.282 20.8289667,12.1366333 21.3333,11.8459 C21.8376333,11.5551667 22.2381333,11.1339 22.5348,10.5821 C22.8314667,10.0303 22.9798,9.38653333 22.9798,8.6508 Z" id="Shape"></path>
                    <polygon id="Path" points="32.8054 13.5458 28.9784 9.2382 28.9784 13.5458 27.3586 13.5458 27.3586 0.3738 28.9784 0.3738 28.9784 8.1168 32.7342 3.7914 34.9948 3.7914 30.4024 8.6508 35.0126 13.5458"></polygon>
                    <path d="M37.3622,2.2072 C37.0536667,2.2072 36.7926,2.1004 36.579,1.8868 C36.3654,1.6732 36.2586,1.41213333 36.2586,1.1036 C36.2586,0.795066667 36.3654,0.534 36.579,0.3204 C36.7926,0.1068 37.0536667,0 37.3622,0 C37.6588667,0 37.9110333,0.1068 38.1187,0.3204 C38.3263667,0.534 38.4302,0.795066667 38.4302,1.1036 C38.4302,1.41213333 38.3263667,1.6732 38.1187,1.8868 C37.9110333,2.1004 37.6588667,2.2072 37.3622,2.2072 Z M38.1454,3.7914 L38.1454,13.5458 L36.5256,13.5458 L36.5256,3.7914 L38.1454,3.7914 Z" id="Shape"></path>
                    <path d="M45.657,3.6134 C46.8436667,3.6134 47.8048667,3.97236667 48.5406,4.6903 C49.2763333,5.40823333 49.6442,6.4436 49.6442,7.7964 L49.6442,13.5458 L48.0422,13.5458 L48.0422,8.0278 C48.0422,7.05473333 47.7989333,6.3101 47.3124,5.7939 C46.8258667,5.2777 46.1613333,5.0196 45.3188,5.0196 C44.4644,5.0196 43.7850333,5.2866 43.2807,5.8206 C42.7763667,6.3546 42.5242,7.13186667 42.5242,8.1524 L42.5242,13.5458 L40.9044,13.5458 L40.9044,3.7914 L42.5242,3.7914 L42.5242,5.1798 C42.8446,4.6814 43.2807,4.29573333 43.8325,4.0228 C44.3843,3.74986667 44.9924667,3.6134 45.657,3.6134 Z" id="Path"></path>
                    <path d="M56.3192,3.6312 C57.1617333,3.6312 57.9004333,3.81513333 58.5353,4.183 C59.1701667,4.55086667 59.6418667,5.01366667 59.9504,5.5714 L59.9504,3.7914 L61.588,3.7914 L61.588,13.7594 C61.588,14.6494 61.3981333,15.4415 61.0184,16.1357 C60.6386667,16.8299 60.0957667,17.3728 59.3897,17.7644 C58.6836333,18.156 57.8618667,18.3518 56.9244,18.3518 C55.6428,18.3518 54.5748,18.0492 53.7204,17.444 C52.866,16.8388 52.3616667,16.0140667 52.2074,14.9698 L53.8094,14.9698 C53.9874,15.5631333 54.3552667,16.0407667 54.913,16.4027 C55.4707333,16.7646333 56.1412,16.9456 56.9244,16.9456 C57.8144,16.9456 58.5412333,16.6667333 59.1049,16.109 C59.6685667,15.5512667 59.9504,14.7680667 59.9504,13.7594 L59.9504,11.7124 C59.63,12.282 59.1553333,12.7566667 58.5264,13.1364 C57.8974667,13.5161333 57.1617333,13.706 56.3192,13.706 C55.4529333,13.706 54.6667667,13.4924 53.9607,13.0652 C53.2546333,12.638 52.6998667,12.0387333 52.2964,11.2674 C51.8929333,10.4960667 51.6912,9.61793333 51.6912,8.633 C51.6912,7.6362 51.8929333,6.76103333 52.2964,6.0075 C52.6998667,5.25396667 53.2546333,4.66953333 53.9607,4.2542 C54.6667667,3.83886667 55.4529333,3.6312 56.3192,3.6312 Z M59.9504,8.6508 C59.9504,7.91506667 59.8020667,7.27426667 59.5054,6.7284 C59.2087333,6.18253333 58.8082333,5.76423333 58.3039,5.4735 C57.7995667,5.18276667 57.2448,5.0374 56.6396,5.0374 C56.0344,5.0374 55.4826,5.1798 54.9842,5.4646 C54.4858,5.7494 54.0882667,6.16473333 53.7916,6.7106 C53.4949333,7.25646667 53.3466,7.89726667 53.3466,8.633 C53.3466,9.3806 53.4949333,10.0303 53.7916,10.5821 C54.0882667,11.1339 54.4858,11.5551667 54.9842,11.8459 C55.4826,12.1366333 56.0344,12.282 56.6396,12.282 C57.2448,12.282 57.7995667,12.1366333 58.3039,11.8459 C58.8082333,11.5551667 59.2087333,11.1339 59.5054,10.5821 C59.8020667,10.0303 59.9504,9.38653333 59.9504,8.6508 Z" id="Shape"></path>
                    <path d="M70.7016,5.607 C71.0338667,5.02553333 71.5204,4.55086667 72.1612,4.183 C72.802,3.81513333 73.5318,3.6312 74.3506,3.6312 C75.2287333,3.6312 76.0178667,3.83886667 76.718,4.2542 C77.4181333,4.66953333 77.9699333,5.25396667 78.3734,6.0075 C78.7768667,6.76103333 78.9786,7.6362 78.9786,8.633 C78.9786,9.61793333 78.7768667,10.4960667 78.3734,11.2674 C77.9699333,12.0387333 77.4151667,12.638 76.7091,13.0652 C76.0030333,13.4924 75.2168667,13.706 74.3506,13.706 C73.5080667,13.706 72.7693667,13.5220667 72.1345,13.1542 C71.4996333,12.7863333 71.022,12.3176 70.7016,11.748 L70.7016,13.5458 L69.0818,13.5458 L69.0818,0.3738 L70.7016,0.3738 L70.7016,5.607 Z M77.3232,8.633 C77.3232,7.89726667 77.1748667,7.25646667 76.8782,6.7106 C76.5815333,6.16473333 76.1810333,5.7494 75.6767,5.4646 C75.1723667,5.1798 74.6176,5.0374 74.0124,5.0374 C73.4190667,5.0374 72.8702333,5.18276667 72.3659,5.4735 C71.8615667,5.76423333 71.4581,6.1855 71.1555,6.7373 C70.8529,7.2891 70.7016,7.92693333 70.7016,8.6508 C70.7016,9.38653333 70.8529,10.0303 71.1555,10.5821 C71.4581,11.1339 71.8615667,11.5551667 72.3659,11.8459 C72.8702333,12.1366333 73.4190667,12.282 74.0124,12.282 C74.6176,12.282 75.1723667,12.1366333 75.6767,11.8459 C76.1810333,11.5551667 76.5815333,11.1339 76.8782,10.5821 C77.1748667,10.0303 77.3232,9.3806 77.3232,8.633 Z" id="Shape"></path>
                    <path d="M90.0146,8.2948 C90.0146,8.60333333 89.9968,8.92966667 89.9612,9.2738 L82.1648,9.2738 C82.2241333,10.235 82.5534333,10.9855667 83.1527,11.5255 C83.7519667,12.0654333 84.4788,12.3354 85.3332,12.3354 C86.0333333,12.3354 86.6177667,12.1722333 87.0865,11.8459 C87.5552333,11.5195667 87.8845333,11.0834667 88.0744,10.5376 L89.8188,10.5376 C89.5577333,11.4750667 89.0356,12.2375 88.2524,12.8249 C87.4692,13.4123 86.4961333,13.706 85.3332,13.706 C84.4076,13.706 83.5799,13.4983333 82.8501,13.083 C82.1203,12.6676667 81.5477333,12.0773 81.1324,11.3119 C80.7170667,10.5465 80.5094,9.65946667 80.5094,8.6508 C80.5094,7.64213333 80.7111333,6.75806667 81.1146,5.9986 C81.5180667,5.23913333 82.0847,4.6547 82.8145,4.2453 C83.5443,3.8359 84.3838667,3.6312 85.3332,3.6312 C86.2588,3.6312 87.0776,3.83293333 87.7896,4.2364 C88.5016,4.63986667 89.0504333,5.19463333 89.4361,5.9007 C89.8217667,6.60676667 90.0146,7.4048 90.0146,8.2948 Z M88.3414,7.9566 C88.3414,7.33953333 88.2049333,6.8085 87.932,6.3635 C87.6590667,5.9185 87.2882333,5.5803 86.8195,5.3489 C86.3507667,5.1175 85.8316,5.0018 85.262,5.0018 C84.4432,5.0018 83.7460333,5.26286667 83.1705,5.785 C82.5949667,6.30713333 82.2656667,7.031 82.1826,7.9566 L88.3414,7.9566 Z" id="Shape"></path>
                    <path d="M95.6038,13.706 C94.8562,13.706 94.1857333,13.5784333 93.5924,13.3233 C92.9990667,13.0681667 92.5303333,12.7121667 92.1862,12.2553 C91.8420667,11.7984333 91.6522,11.2733333 91.6166,10.68 L93.2898,10.68 C93.3372667,11.1665333 93.5657,11.5640667 93.9751,11.8726 C94.3845,12.1811333 94.9214667,12.3354 95.586,12.3354 C96.2030667,12.3354 96.6896,12.1989333 97.0456,11.926 C97.4016,11.6530667 97.5796,11.3089333 97.5796,10.8936 C97.5796,10.4664 97.3897333,10.1489667 97.01,9.9413 C96.6302667,9.73363333 96.0428667,9.52893333 95.2478,9.3272 C94.5239333,9.13733333 93.9335667,8.9445 93.4767,8.7487 C93.0198333,8.5529 92.6282333,8.26216667 92.3019,7.8765 C91.9755667,7.49083333 91.8124,6.98353333 91.8124,6.3546 C91.8124,5.8562 91.9607333,5.39933333 92.2574,4.984 C92.5540667,4.56866667 92.9753333,4.23936667 93.5212,3.9961 C94.0670667,3.75283333 94.6900667,3.6312 95.3902,3.6312 C96.4700667,3.6312 97.3422667,3.90413333 98.0068,4.45 C98.6713333,4.99586667 99.0273333,5.74346667 99.0748,6.6928 L97.455,6.6928 C97.4194,6.18253333 97.2147,5.77313333 96.8409,5.4646 C96.4671,5.15606667 95.9657333,5.0018 95.3368,5.0018 C94.7553333,5.0018 94.2925333,5.1264 93.9484,5.3756 C93.6042667,5.6248 93.4322,5.95113333 93.4322,6.3546 C93.4322,6.675 93.5360333,6.93903333 93.7437,7.1467 C93.9513667,7.35436667 94.2124333,7.5205 94.5269,7.6451 C94.8413667,7.7697 95.2774667,7.90913333 95.8352,8.0634 C96.5353333,8.25326667 97.1049333,8.44016667 97.544,8.6241 C97.9830667,8.80803333 98.3598333,9.08393333 98.6743,9.4518 C98.9887667,9.81966667 99.1519333,10.3002667 99.1638,10.8936 C99.1638,11.4276 99.0154667,11.9082 98.7188,12.3354 C98.4221333,12.7626 98.0038333,13.0978333 97.4639,13.3411 C96.9239667,13.5843667 96.3039333,13.706 95.6038,13.706 Z" id="Path"></path>
                    <path d="M103.418,5.1264 L103.418,10.8758 C103.418,11.3504667 103.518867,11.6857 103.7206,11.8815 C103.922333,12.0773 104.2724,12.1752 104.7708,12.1752 L105.9634,12.1752 L105.9634,13.5458 L104.5038,13.5458 C103.601933,13.5458 102.925533,13.3381333 102.4746,12.9228 C102.023667,12.5074667 101.7982,11.8251333 101.7982,10.8758 L101.7982,5.1264 L100.5344,5.1264 L100.5344,3.7914 L101.7982,3.7914 L101.7982,1.335 L103.418,1.335 L103.418,3.7914 L105.9634,3.7914 L105.9634,5.1264 L103.418,5.1264 Z" id="Path"></path>
                    <path d="M114.2938,5.5892 C114.6142,5.03146667 115.091833,4.5657 115.7267,4.1919 C116.361567,3.8181 117.100267,3.6312 117.9428,3.6312 C118.809067,3.6312 119.595233,3.83886667 120.3013,4.2542 C121.007367,4.66953333 121.562133,5.25396667 121.9656,6.0075 C122.369067,6.76103333 122.5708,7.6362 122.5708,8.633 C122.5708,9.61793333 122.369067,10.4960667 121.9656,11.2674 C121.562133,12.0387333 121.007367,12.638 120.3013,13.0652 C119.595233,13.4924 118.809067,13.706 117.9428,13.706 C117.112133,13.706 116.379367,13.5191 115.7445,13.1453 C115.109633,12.7715 114.626067,12.3057333 114.2938,11.748 L114.2938,18.1738 L112.674,18.1738 L112.674,3.7914 L114.2938,3.7914 L114.2938,5.5892 Z M120.9154,8.633 C120.9154,7.89726667 120.767067,7.25646667 120.4704,6.7106 C120.173733,6.16473333 119.773233,5.7494 119.2689,5.4646 C118.764567,5.1798 118.2098,5.0374 117.6046,5.0374 C117.011267,5.0374 116.462433,5.18276667 115.9581,5.4735 C115.453767,5.76423333 115.0503,6.1855 114.7477,6.7373 C114.4451,7.2891 114.2938,7.92693333 114.2938,8.6508 C114.2938,9.38653333 114.4451,10.0303 114.7477,10.5821 C115.0503,11.1339 115.453767,11.5551667 115.9581,11.8459 C116.462433,12.1366333 117.011267,12.282 117.6046,12.282 C118.2098,12.282 118.764567,12.1366333 119.2689,11.8459 C119.773233,11.5551667 120.173733,11.1339 120.4704,10.5821 C120.767067,10.0303 120.9154,9.3806 120.9154,8.633 Z" id="Shape"></path>
                    <path d="M126.3266,5.3756 C126.6114,4.81786667 127.017833,4.38473333 127.5459,4.0762 C128.073967,3.76766667 128.717733,3.6134 129.4772,3.6134 L129.4772,5.2866 L129.05,5.2866 C127.2344,5.2866 126.3266,6.27153333 126.3266,8.2414 L126.3266,13.5458 L124.7068,13.5458 L124.7068,3.7914 L126.3266,3.7914 L126.3266,5.3756 Z" id="Path"></path>
                    <path d="M130.741,8.633 C130.741,7.6362 130.942733,6.76103333 131.3462,6.0075 C131.749667,5.25396667 132.304433,4.66953333 133.0105,4.2542 C133.716567,3.83886667 134.502733,3.6312 135.369,3.6312 C136.2234,3.6312 136.965067,3.81513333 137.594,4.183 C138.222933,4.55086667 138.691667,5.01366667 139.0002,5.5714 L139.0002,3.7914 L140.6378,3.7914 L140.6378,13.5458 L139.0002,13.5458 L139.0002,11.7302 C138.6798,12.2998 138.202167,12.7715 137.5673,13.1453 C136.932433,13.5191 136.193733,13.706 135.3512,13.706 C134.484933,13.706 133.701733,13.4924 133.0016,13.0652 C132.301467,12.638 131.749667,12.0387333 131.3462,11.2674 C130.942733,10.4960667 130.741,9.61793333 130.741,8.633 Z M139.0002,8.6508 C139.0002,7.91506667 138.851867,7.27426667 138.5552,6.7284 C138.258533,6.18253333 137.858033,5.76423333 137.3537,5.4735 C136.849367,5.18276667 136.2946,5.0374 135.6894,5.0374 C135.0842,5.0374 134.5324,5.1798 134.034,5.4646 C133.5356,5.7494 133.138067,6.16473333 132.8414,6.7106 C132.544733,7.25646667 132.3964,7.89726667 132.3964,8.633 C132.3964,9.3806 132.544733,10.0303 132.8414,10.5821 C133.138067,11.1339 133.5356,11.5551667 134.034,11.8459 C134.5324,12.1366333 135.0842,12.282 135.6894,12.282 C136.2946,12.282 136.849367,12.1366333 137.3537,11.8459 C137.858033,11.5551667 138.258533,11.1339 138.5552,10.5821 C138.851867,10.0303 139.0002,9.38653333 139.0002,8.6508 Z" id="Shape"></path>
                    <path d="M142.7738,8.6508 C142.7738,7.64213333 142.975533,6.76103333 143.379,6.0075 C143.782467,5.25396667 144.343167,4.66953333 145.0611,4.2542 C145.779033,3.83886667 146.6008,3.6312 147.5264,3.6312 C148.724933,3.6312 149.712833,3.92193333 150.4901,4.5034 C151.267367,5.08486667 151.7806,5.8918 152.0298,6.9242 L150.2854,6.9242 C150.119267,6.33086667 149.7959,5.86213333 149.3153,5.518 C148.8347,5.17386667 148.2384,5.0018 147.5264,5.0018 C146.6008,5.0018 145.8532,5.31923333 145.2836,5.9541 C144.714,6.58896667 144.4292,7.48786667 144.4292,8.6508 C144.4292,9.8256 144.714,10.7334 145.2836,11.3742 C145.8532,12.015 146.6008,12.3354 147.5264,12.3354 C148.2384,12.3354 148.831733,12.1692667 149.3064,11.837 C149.781067,11.5047333 150.1074,11.0300667 150.2854,10.413 L152.0298,10.413 C151.768733,11.4098 151.2466,12.2078333 150.4634,12.8071 C149.6802,13.4063667 148.7012,13.706 147.5264,13.706 C146.6008,13.706 145.779033,13.4983333 145.0611,13.083 C144.343167,12.6676667 143.782467,12.0802667 143.379,11.3208 C142.975533,10.5613333 142.7738,9.67133333 142.7738,8.6508 Z" id="Path"></path>
                    <path d="M156.1594,5.1264 L156.1594,10.8758 C156.1594,11.3504667 156.260267,11.6857 156.462,11.8815 C156.663733,12.0773 157.0138,12.1752 157.5122,12.1752 L158.7048,12.1752 L158.7048,13.5458 L157.2452,13.5458 C156.343333,13.5458 155.666933,13.3381333 155.216,12.9228 C154.765067,12.5074667 154.5396,11.8251333 154.5396,10.8758 L154.5396,5.1264 L153.2758,5.1264 L153.2758,3.7914 L154.5396,3.7914 L154.5396,1.335 L156.1594,1.335 L156.1594,3.7914 L158.7048,3.7914 L158.7048,5.1264 L156.1594,5.1264 Z" id="Path"></path>
                    <path d="M161.4994,2.2072 C161.190867,2.2072 160.9298,2.1004 160.7162,1.8868 C160.5026,1.6732 160.3958,1.41213333 160.3958,1.1036 C160.3958,0.795066667 160.5026,0.534 160.7162,0.3204 C160.9298,0.1068 161.190867,0 161.4994,0 C161.796067,0 162.048233,0.1068 162.2559,0.3204 C162.463567,0.534 162.5674,0.795066667 162.5674,1.1036 C162.5674,1.41213333 162.463567,1.6732 162.2559,1.8868 C162.048233,2.1004 161.796067,2.2072 161.4994,2.2072 Z M162.2826,3.7914 L162.2826,13.5458 L160.6628,13.5458 L160.6628,3.7914 L162.2826,3.7914 Z" id="Shape"></path>
                    <path d="M164.4364,8.6508 C164.4364,7.64213333 164.638133,6.76103333 165.0416,6.0075 C165.445067,5.25396667 166.005767,4.66953333 166.7237,4.2542 C167.441633,3.83886667 168.2634,3.6312 169.189,3.6312 C170.387533,3.6312 171.375433,3.92193333 172.1527,4.5034 C172.929967,5.08486667 173.4432,5.8918 173.6924,6.9242 L171.948,6.9242 C171.781867,6.33086667 171.4585,5.86213333 170.9779,5.518 C170.4973,5.17386667 169.901,5.0018 169.189,5.0018 C168.2634,5.0018 167.5158,5.31923333 166.9462,5.9541 C166.3766,6.58896667 166.0918,7.48786667 166.0918,8.6508 C166.0918,9.8256 166.3766,10.7334 166.9462,11.3742 C167.5158,12.015 168.2634,12.3354 169.189,12.3354 C169.901,12.3354 170.494333,12.1692667 170.969,11.837 C171.443667,11.5047333 171.77,11.0300667 171.948,10.413 L173.6924,10.413 C173.431333,11.4098 172.9092,12.2078333 172.126,12.8071 C171.3428,13.4063667 170.3638,13.706 169.189,13.706 C168.2634,13.706 167.441633,13.4983333 166.7237,13.083 C166.005767,12.6676667 165.445067,12.0802667 165.0416,11.3208 C164.638133,10.5613333 164.4364,9.67133333 164.4364,8.6508 Z" id="Path"></path>
                    <path d="M184.7462,8.2948 C184.7462,8.60333333 184.7284,8.92966667 184.6928,9.2738 L176.8964,9.2738 C176.955733,10.235 177.285033,10.9855667 177.8843,11.5255 C178.483567,12.0654333 179.2104,12.3354 180.0648,12.3354 C180.764933,12.3354 181.349367,12.1722333 181.8181,11.8459 C182.286833,11.5195667 182.616133,11.0834667 182.806,10.5376 L184.5504,10.5376 C184.289333,11.4750667 183.7672,12.2375 182.984,12.8249 C182.2008,13.4123 181.227733,13.706 180.0648,13.706 C179.1392,13.706 178.3115,13.4983333 177.5817,13.083 C176.8519,12.6676667 176.279333,12.0773 175.864,11.3119 C175.448667,10.5465 175.241,9.65946667 175.241,8.6508 C175.241,7.64213333 175.442733,6.75806667 175.8462,5.9986 C176.249667,5.23913333 176.8163,4.6547 177.5461,4.2453 C178.2759,3.8359 179.115467,3.6312 180.0648,3.6312 C180.9904,3.6312 181.8092,3.83293333 182.5212,4.2364 C183.2332,4.63986667 183.782033,5.19463333 184.1677,5.9007 C184.553367,6.60676667 184.7462,7.4048 184.7462,8.2948 Z M183.073,7.9566 C183.073,7.33953333 182.936533,6.8085 182.6636,6.3635 C182.390667,5.9185 182.019833,5.5803 181.5511,5.3489 C181.082367,5.1175 180.5632,5.0018 179.9936,5.0018 C179.1748,5.0018 178.477633,5.26286667 177.9021,5.785 C177.326567,6.30713333 176.997267,7.031 176.9142,7.9566 L183.073,7.9566 Z" id="Shape"></path>
                    <path d="M200.5348,8.2948 C200.5348,8.60333333 200.517,8.92966667 200.4814,9.2738 L192.685,9.2738 C192.744333,10.235 193.073633,10.9855667 193.6729,11.5255 C194.272167,12.0654333 194.999,12.3354 195.8534,12.3354 C196.553533,12.3354 197.137967,12.1722333 197.6067,11.8459 C198.075433,11.5195667 198.404733,11.0834667 198.5946,10.5376 L200.339,10.5376 C200.077933,11.4750667 199.5558,12.2375 198.7726,12.8249 C197.9894,13.4123 197.016333,13.706 195.8534,13.706 C194.9278,13.706 194.1001,13.4983333 193.3703,13.083 C192.6405,12.6676667 192.067933,12.0773 191.6526,11.3119 C191.237267,10.5465 191.0296,9.65946667 191.0296,8.6508 C191.0296,7.64213333 191.231333,6.75806667 191.6348,5.9986 C192.038267,5.23913333 192.6049,4.6547 193.3347,4.2453 C194.0645,3.8359 194.904067,3.6312 195.8534,3.6312 C196.779,3.6312 197.5978,3.83293333 198.3098,4.2364 C199.0218,4.63986667 199.570633,5.19463333 199.9563,5.9007 C200.341967,6.60676667 200.5348,7.4048 200.5348,8.2948 Z M198.8616,7.9566 C198.8616,7.33953333 198.725133,6.8085 198.4522,6.3635 C198.179267,5.9185 197.808433,5.5803 197.3397,5.3489 C196.870967,5.1175 196.3518,5.0018 195.7822,5.0018 C194.9634,5.0018 194.266233,5.26286667 193.6907,5.785 C193.115167,6.30713333 192.785867,7.031 192.7028,7.9566 L198.8616,7.9566 Z" id="Shape"></path>
                    <path d="M202.0656,8.633 C202.0656,7.6362 202.267333,6.76103333 202.6708,6.0075 C203.074267,5.25396667 203.629033,4.66953333 204.3351,4.2542 C205.041167,3.83886667 205.827333,3.6312 206.6936,3.6312 C207.548,3.6312 208.289667,3.81513333 208.9186,4.183 C209.547533,4.55086667 210.016267,5.01366667 210.3248,5.5714 L210.3248,3.7914 L211.9624,3.7914 L211.9624,13.5458 L210.3248,13.5458 L210.3248,11.7302 C210.0044,12.2998 209.526767,12.7715 208.8919,13.1453 C208.257033,13.5191 207.518333,13.706 206.6758,13.706 C205.809533,13.706 205.026333,13.4924 204.3262,13.0652 C203.626067,12.638 203.074267,12.0387333 202.6708,11.2674 C202.267333,10.4960667 202.0656,9.61793333 202.0656,8.633 Z M210.3248,8.6508 C210.3248,7.91506667 210.176467,7.27426667 209.8798,6.7284 C209.583133,6.18253333 209.182633,5.76423333 208.6783,5.4735 C208.173967,5.18276667 207.6192,5.0374 207.014,5.0374 C206.4088,5.0374 205.857,5.1798 205.3586,5.4646 C204.8602,5.7494 204.462667,6.16473333 204.166,6.7106 C203.869333,7.25646667 203.721,7.89726667 203.721,8.633 C203.721,9.3806 203.869333,10.0303 204.166,10.5821 C204.462667,11.1339 204.8602,11.5551667 205.3586,11.8459 C205.857,12.1366333 206.4088,12.282 207.014,12.282 C207.6192,12.282 208.173967,12.1366333 208.6783,11.8459 C209.182633,11.5551667 209.583133,11.1339 209.8798,10.5821 C210.176467,10.0303 210.3248,9.38653333 210.3248,8.6508 Z" id="Shape"></path>
                    <path d="M218.1568,13.706 C217.4092,13.706 216.738733,13.5784333 216.1454,13.3233 C215.552067,13.0681667 215.083333,12.7121667 214.7392,12.2553 C214.395067,11.7984333 214.2052,11.2733333 214.1696,10.68 L215.8428,10.68 C215.890267,11.1665333 216.1187,11.5640667 216.5281,11.8726 C216.9375,12.1811333 217.474467,12.3354 218.139,12.3354 C218.756067,12.3354 219.2426,12.1989333 219.5986,11.926 C219.9546,11.6530667 220.1326,11.3089333 220.1326,10.8936 C220.1326,10.4664 219.942733,10.1489667 219.563,9.9413 C219.183267,9.73363333 218.595867,9.52893333 217.8008,9.3272 C217.076933,9.13733333 216.486567,8.9445 216.0297,8.7487 C215.572833,8.5529 215.181233,8.26216667 214.8549,7.8765 C214.528567,7.49083333 214.3654,6.98353333 214.3654,6.3546 C214.3654,5.8562 214.513733,5.39933333 214.8104,4.984 C215.107067,4.56866667 215.528333,4.23936667 216.0742,3.9961 C216.620067,3.75283333 217.243067,3.6312 217.9432,3.6312 C219.023067,3.6312 219.895267,3.90413333 220.5598,4.45 C221.224333,4.99586667 221.580333,5.74346667 221.6278,6.6928 L220.008,6.6928 C219.9724,6.18253333 219.7677,5.77313333 219.3939,5.4646 C219.0201,5.15606667 218.518733,5.0018 217.8898,5.0018 C217.308333,5.0018 216.845533,5.1264 216.5014,5.3756 C216.157267,5.6248 215.9852,5.95113333 215.9852,6.3546 C215.9852,6.675 216.089033,6.93903333 216.2967,7.1467 C216.504367,7.35436667 216.765433,7.5205 217.0799,7.6451 C217.394367,7.7697 217.830467,7.90913333 218.3882,8.0634 C219.088333,8.25326667 219.657933,8.44016667 220.097,8.6241 C220.536067,8.80803333 220.912833,9.08393333 221.2273,9.4518 C221.541767,9.81966667 221.704933,10.3002667 221.7168,10.8936 C221.7168,11.4276 221.568467,11.9082 221.2718,12.3354 C220.975133,12.7626 220.556833,13.0978333 220.0169,13.3411 C219.476967,13.5843667 218.856933,13.706 218.1568,13.706 Z" id="Path"></path>
                    <path d="M224.8318,2.2072 C224.523267,2.2072 224.2622,2.1004 224.0486,1.8868 C223.835,1.6732 223.7282,1.41213333 223.7282,1.1036 C223.7282,0.795066667 223.835,0.534 224.0486,0.3204 C224.2622,0.1068 224.523267,0 224.8318,0 C225.128467,0 225.380633,0.1068 225.5883,0.3204 C225.795967,0.534 225.8998,0.795066667 225.8998,1.1036 C225.8998,1.41213333 225.795967,1.6732 225.5883,1.8868 C225.380633,2.1004 225.128467,2.2072 224.8318,2.2072 Z M225.615,3.7914 L225.615,13.5458 L223.9952,13.5458 L223.9952,3.7914 L225.615,3.7914 Z" id="Shape"></path>
                    <path d="M237.274,8.2948 C237.274,8.60333333 237.2562,8.92966667 237.2206,9.2738 L229.4242,9.2738 C229.483533,10.235 229.812833,10.9855667 230.4121,11.5255 C231.011367,12.0654333 231.7382,12.3354 232.5926,12.3354 C233.292733,12.3354 233.877167,12.1722333 234.3459,11.8459 C234.814633,11.5195667 235.143933,11.0834667 235.3338,10.5376 L237.0782,10.5376 C236.817133,11.4750667 236.295,12.2375 235.5118,12.8249 C234.7286,13.4123 233.755533,13.706 232.5926,13.706 C231.667,13.706 230.8393,13.4983333 230.1095,13.083 C229.3797,12.6676667 228.807133,12.0773 228.3918,11.3119 C227.976467,10.5465 227.7688,9.65946667 227.7688,8.6508 C227.7688,7.64213333 227.970533,6.75806667 228.374,5.9986 C228.777467,5.23913333 229.3441,4.6547 230.0739,4.2453 C230.8037,3.8359 231.643267,3.6312 232.5926,3.6312 C233.5182,3.6312 234.337,3.83293333 235.049,4.2364 C235.761,4.63986667 236.309833,5.19463333 236.6955,5.9007 C237.081167,6.60676667 237.274,7.4048 237.274,8.2948 Z M235.6008,7.9566 C235.6008,7.33953333 235.464333,6.8085 235.1914,6.3635 C234.918467,5.9185 234.547633,5.5803 234.0789,5.3489 C233.610167,5.1175 233.091,5.0018 232.5214,5.0018 C231.7026,5.0018 231.005433,5.26286667 230.4299,5.785 C229.854367,6.30713333 229.525067,7.031 229.442,7.9566 L235.6008,7.9566 Z" id="Shape"></path>
                    <path d="M241.0298,5.3756 C241.3146,4.81786667 241.721033,4.38473333 242.2491,4.0762 C242.777167,3.76766667 243.420933,3.6134 244.1804,3.6134 L244.1804,5.2866 L243.7532,5.2866 C241.9376,5.2866 241.0298,6.27153333 241.0298,8.2414 L241.0298,13.5458 L239.41,13.5458 L239.41,3.7914 L241.0298,3.7914 L241.0298,5.3756 Z" id="Path"></path>
                </g>
                <polygon id="Path" points="169.49187 74.5470063 154.79187 74.5470063 154.79187 112.347006 149.39187 112.347006 149.39187 74.5470063 134.69187 74.5470063 134.69187 69.7470063 169.49187 69.7470063"></polygon>
                <path d="M179.99187,112.947006 C177.63187,112.947006 175.49187,112.517006 173.57187,111.657006 C171.65187,110.797006 169.99187,109.617006 168.59187,108.117006 C167.19187,106.617006 166.11187,104.8906 165.35187,102.937788 C164.59187,100.984975 164.21187,98.9213813 164.21187,96.7470063 C164.21187,94.5326313 164.59187,92.4490375 165.35187,90.496225 C166.11187,88.5434125 167.19187,86.8170063 168.59187,85.3170063 C169.99187,83.8170063 171.66187,82.6370063 173.60187,81.7770063 C175.54187,80.9170063 177.68187,80.4870063 180.02187,80.4870063 C182.36187,80.4870063 184.49187,80.9170063 186.41187,81.7770063 C188.33187,82.6370063 190.00187,83.8170063 191.42187,85.3170063 C192.84187,86.8170063 193.93187,88.5434125 194.69187,90.496225 C195.45187,92.4490375 195.83187,94.5326313 195.83187,96.7470063 C195.83187,98.9213813 195.45187,100.984975 194.69187,102.937788 C193.93187,104.8906 192.85187,106.617006 191.45187,108.117006 C190.05187,109.617006 188.38187,110.797006 186.44187,111.657006 C184.50187,112.517006 182.35187,112.947006 179.99187,112.947006 Z M169.61187,96.8013813 C169.61187,98.9651313 170.08187,100.927006 171.02187,102.687006 C171.96187,104.447006 173.21187,105.837006 174.77187,106.857006 C176.33187,107.877006 178.07187,108.387006 179.99187,108.387006 C181.91187,108.387006 183.66187,107.867006 185.24187,106.827006 C186.82187,105.787006 188.08187,104.377006 189.02187,102.597006 C189.96187,100.817006 190.43187,98.8470063 190.43187,96.6870063 C190.43187,94.5270063 189.96187,92.5670063 189.02187,90.8070063 C188.08187,89.0470063 186.819057,87.6470063 185.233432,86.6070063 C183.647807,85.5670063 181.90062,85.0470063 179.99187,85.0470063 C178.07187,85.0470063 176.328745,85.5785688 174.762495,86.6416938 C173.196245,87.7048188 171.946245,89.1148188 171.012495,90.8716938 C170.078745,92.6285688 169.61187,94.6051313 169.61187,96.8013813 Z" id="Shape"></path>
                <path d="M214.13187,112.947006 C211.77187,112.947006 209.63187,112.517006 207.71187,111.657006 C205.79187,110.797006 204.13187,109.617006 202.73187,108.117006 C201.33187,106.617006 200.25187,104.8906 199.49187,102.937788 C198.73187,100.984975 198.35187,98.9213813 198.35187,96.7470063 C198.35187,94.5326313 198.73187,92.4490375 199.49187,90.496225 C200.25187,88.5434125 201.33187,86.8170063 202.73187,85.3170063 C204.13187,83.8170063 205.80187,82.6370063 207.74187,81.7770063 C209.68187,80.9170063 211.82187,80.4870063 214.16187,80.4870063 C216.50187,80.4870063 218.63187,80.9170063 220.55187,81.7770063 C222.47187,82.6370063 224.14187,83.8170063 225.56187,85.3170063 C226.98187,86.8170063 228.07187,88.5434125 228.83187,90.496225 C229.59187,92.4490375 229.97187,94.5326313 229.97187,96.7470063 C229.97187,98.9213813 229.59187,100.984975 228.83187,102.937788 C228.07187,104.8906 226.99187,106.617006 225.59187,108.117006 C224.19187,109.617006 222.52187,110.797006 220.58187,111.657006 C218.64187,112.517006 216.49187,112.947006 214.13187,112.947006 Z M203.75187,96.8013813 C203.75187,98.9651313 204.22187,100.927006 205.16187,102.687006 C206.10187,104.447006 207.35187,105.837006 208.91187,106.857006 C210.47187,107.877006 212.21187,108.387006 214.13187,108.387006 C216.05187,108.387006 217.80187,107.867006 219.38187,106.827006 C220.96187,105.787006 222.22187,104.377006 223.16187,102.597006 C224.10187,100.817006 224.57187,98.8470063 224.57187,96.6870063 C224.57187,94.5270063 224.10187,92.5670063 223.16187,90.8070063 C222.22187,89.0470063 220.959057,87.6470063 219.373432,86.6070063 C217.787807,85.5670063 216.04062,85.0470063 214.13187,85.0470063 C212.21187,85.0470063 210.468745,85.5785688 208.902495,86.6416938 C207.336245,87.7048188 206.086245,89.1148188 205.152495,90.8716938 C204.218745,92.6285688 203.75187,94.6051313 203.75187,96.8013813 Z" id="Shape"></path>
                <path d="M234.71187,68.5470063 L239.99187,68.5470063 L239.99187,104.247006 C239.99187,105.967006 240.23187,107.027006 240.71187,107.427006 C241.19187,107.827006 241.77187,108.027006 242.45187,108.027006 C243.29187,108.027006 244.09187,107.937006 244.85187,107.757006 C245.61187,107.577006 246.25187,107.387006 246.77187,107.187006 L247.61187,111.507006 C246.73187,111.867006 245.69187,112.167006 244.49187,112.407006 C243.29187,112.647006 242.23187,112.767006 241.31187,112.767006 C239.27187,112.767006 237.66187,112.187006 236.48187,111.027006 C235.30187,109.867006 234.71187,108.247006 234.71187,106.167006 L234.71187,68.5470063 Z" id="Path"></path>
                <path d="M132.919708,-1.42108547e-14 C133.565954,-1.42108547e-14 134.188137,0.233381912 134.673578,0.653471777 L134.814995,0.7850533 L156.148328,22.1183866 C157.151452,23.1215103 157.193249,24.7219259 156.273718,25.7748239 L156.148328,25.9089593 L134.814995,47.2422926 C133.768257,48.2890304 132.07116,48.2890304 131.024422,47.2422926 C130.021298,46.239169 129.979502,44.6387534 130.899032,43.5858554 L131.024422,43.45172 L150.461935,24.0133396 L131.808935,5.36033963 L118.056935,5.36033963 L134.814995,22.1183866 C135.818118,23.1215103 135.859915,24.7219259 134.940385,25.7748239 L134.814995,25.9089593 L113.481661,47.2422926 C113.024697,47.6992573 112.419721,47.9741815 111.779414,48.0203911 L111.586375,48.0273459 L90.2530417,48.0273459 C87.9193852,48.0273459 86.7242094,45.2699806 88.2470788,43.5686557 L88.3577554,43.45172 L107.795935,24.0133396 L88.3577554,4.57562595 C87.3546317,3.57250229 87.3128349,1.9720867 88.2323649,0.919188715 L88.3577554,0.7850533 C89.360879,-0.218070361 90.9612946,-0.25986718 92.0141926,0.659662843 L92.148328,0.7850533 L113.481661,22.1183866 C114.484785,23.1215103 114.526582,24.7219259 113.607052,25.7748239 L113.481661,25.9089593 L96.722935,42.6663396 L110.475935,42.6663396 L129.128935,24.0133396 L109.691089,4.57562595 C108.040944,2.92548162 109.145579,0.130612994 111.425429,0.0044258584 L111.586375,-1.42108547e-14 L132.919708,-1.42108547e-14 Z" id="Path-4-Copy"></path>
            </g>
        </g>
    </g>
</svg>