<?xml version="1.0" encoding="UTF-8"?>
<svg width="321px" height="83px" viewBox="0 0 321 83" version="1.1" xmlns="http://www.w3.org/2000/svg" xmlns:xlink="http://www.w3.org/1999/xlink">
    <title>Group 2</title>
    <defs>
        <linearGradient x1="50%" y1="18.6148113%" x2="50%" y2="92.9644444%" id="linearGradient-1">
            <stop stop-color="#24B5F4" offset="0%"></stop>
            <stop stop-color="#3470E7" offset="100%"></stop>
        </linearGradient>
        <linearGradient x1="50%" y1="18.6148113%" x2="50%" y2="92.9644444%" id="linearGradient-2">
            <stop stop-color="#24B5F4" offset="0%"></stop>
            <stop stop-color="#3470E7" offset="100%"></stop>
        </linearGradient>
    </defs>
    <g id="Page-1" stroke="none" stroke-width="1" fill="none" fill-rule="evenodd">
        <g id="A4-Copy-3" transform="translate(-240.000000, -385.000000)">
            <g id="Group-2" transform="translate(242.392952, 385.912000)">
                <path d="M72.4188282,43.8 L72.4188282,1.2 L88.3225782,1.2 C92.9950782,1.2 96.903672,2.15 100.048359,4.05 C103.193047,5.95 105.560703,8.51 107.151328,11.73 C108.741953,14.95 109.537266,18.52 109.537266,22.44 C109.537266,26.76 108.661953,30.52 106.911328,33.72 C105.160703,36.92 102.696016,39.4 99.5172657,41.16 C96.3385157,42.92 92.6069532,43.8 88.3225782,43.8 L72.4188282,43.8 Z M99.5463282,22.44 C99.5463282,19.945625 99.1044532,17.7478125 98.2207032,15.8465625 C97.3369532,13.9453125 96.057422,12.4640625 94.3821095,11.4028125 C92.706797,10.3415625 90.6869532,9.8109375 88.3225782,9.8109375 L82.2653907,9.8109375 L82.2653907,35.1890625 L88.3225782,35.1890625 C90.7269532,35.1890625 92.7597657,34.6354687 94.4210157,33.5282812 C96.0822657,32.4210937 97.351797,30.8998437 98.2296095,28.9645312 C99.107422,27.0292187 99.5463282,24.854375 99.5463282,22.44 Z M146.758203,43.8 L146.758203,18.3946875 L137.587578,36.8925 L132.212891,36.8925 L123.025391,18.3946875 L123.025391,43.8 L113.178828,43.8 L113.178828,1.2 L123.875703,1.2 L134.891328,23.4815625 L145.966953,1.2 L156.604766,1.2 L156.604766,43.8 L146.758203,43.8 Z M162.57187,43.8 L162.57187,1.2 L180.75562,1.2 C182.776245,1.2 184.637651,1.6128125 186.339839,2.4384375 C188.042026,3.2640625 189.514995,4.36765625 190.758745,5.74921875 C192.002495,7.13078125 192.96562,8.6809375 193.64812,10.3996875 C194.33062,12.1184375 194.67187,13.8653125 194.67187,15.6403125 C194.67187,18.0834375 194.102495,20.40625 192.963745,22.60875 C191.824995,24.81125 190.241401,26.6048437 188.212964,27.9895312 C186.184526,29.3742187 183.80437,30.0665625 181.072495,30.0665625 L172.418432,30.0665625 L172.418432,43.8 L162.57187,43.8 Z M172.418432,21.455625 L180.434057,21.455625 C181.208432,21.455625 181.912651,21.2390625 182.546714,20.8059375 C183.180776,20.3728125 183.694839,19.71625 184.088901,18.83625 C184.482964,17.95625 184.679995,16.8840625 184.679995,15.6196875 C184.679995,14.2815625 184.454214,13.1825 184.002651,12.3225 C183.551089,11.4625 182.97812,10.8289062 182.283745,10.4217187 C181.58937,10.0145312 180.86687,9.8109375 180.116245,9.8109375 L172.418432,9.8109375 L172.418432,21.455625 Z" id="Combined-Shape" fill="url(#linearGradient-1)" fill-rule="nonzero"></path>
                <polygon id="Path" fill="#FFFFFF" fill-rule="nonzero" points="239.910698 6 225.210698 6 225.210698 43.8 219.810698 43.8 219.810698 6 205.110698 6 205.110698 1.2 239.910698 1.2"></polygon>
                <path d="M250.410698,44.4 C248.050698,44.4 245.910698,43.97 243.990698,43.11 C242.070698,42.25 240.410698,41.07 239.010698,39.57 C237.610698,38.07 236.530698,36.3435938 235.770698,34.3907813 C235.010698,32.4379688 234.630698,30.374375 234.630698,28.2 C234.630698,25.985625 235.010698,23.9020313 235.770698,21.9492188 C236.530698,19.9964063 237.610698,18.27 239.010698,16.77 C240.410698,15.27 242.080698,14.09 244.020698,13.23 C245.960698,12.37 248.100698,11.94 250.440698,11.94 C252.780698,11.94 254.910698,12.37 256.830698,13.23 C258.750698,14.09 260.420698,15.27 261.840698,16.77 C263.260698,18.27 264.350698,19.9964063 265.110698,21.9492188 C265.870698,23.9020313 266.250698,25.985625 266.250698,28.2 C266.250698,30.374375 265.870698,32.4379688 265.110698,34.3907813 C264.350698,36.3435938 263.270698,38.07 261.870698,39.57 C260.470698,41.07 258.800698,42.25 256.860698,43.11 C254.920698,43.97 252.770698,44.4 250.410698,44.4 Z M240.030698,28.254375 C240.030698,30.418125 240.500698,32.38 241.440698,34.14 C242.380698,35.9 243.630698,37.29 245.190698,38.31 C246.750698,39.33 248.490698,39.84 250.410698,39.84 C252.330698,39.84 254.080698,39.32 255.660698,38.28 C257.240698,37.24 258.500698,35.83 259.440698,34.05 C260.380698,32.27 260.850698,30.3 260.850698,28.14 C260.850698,25.98 260.380698,24.02 259.440698,22.26 C258.500698,20.5 257.237886,19.1 255.652261,18.06 C254.066636,17.02 252.319448,16.5 250.410698,16.5 C248.490698,16.5 246.747573,17.0315625 245.181323,18.0946875 C243.615073,19.1578125 242.365073,20.5678125 241.431323,22.3246875 C240.497573,24.0815625 240.030698,26.058125 240.030698,28.254375 Z" id="Shape" fill="#FFFFFF" fill-rule="nonzero"></path>
                <path d="M284.550698,44.4 C282.190698,44.4 280.050698,43.97 278.130698,43.11 C276.210698,42.25 274.550698,41.07 273.150698,39.57 C271.750698,38.07 270.670698,36.3435938 269.910698,34.3907813 C269.150698,32.4379688 268.770698,30.374375 268.770698,28.2 C268.770698,25.985625 269.150698,23.9020313 269.910698,21.9492188 C270.670698,19.9964063 271.750698,18.27 273.150698,16.77 C274.550698,15.27 276.220698,14.09 278.160698,13.23 C280.100698,12.37 282.240698,11.94 284.580698,11.94 C286.920698,11.94 289.050698,12.37 290.970698,13.23 C292.890698,14.09 294.560698,15.27 295.980698,16.77 C297.400698,18.27 298.490698,19.9964063 299.250698,21.9492188 C300.010698,23.9020313 300.390698,25.985625 300.390698,28.2 C300.390698,30.374375 300.010698,32.4379688 299.250698,34.3907813 C298.490698,36.3435938 297.410698,38.07 296.010698,39.57 C294.610698,41.07 292.940698,42.25 291.000698,43.11 C289.060698,43.97 286.910698,44.4 284.550698,44.4 Z M274.170698,28.254375 C274.170698,30.418125 274.640698,32.38 275.580698,34.14 C276.520698,35.9 277.770698,37.29 279.330698,38.31 C280.890698,39.33 282.630698,39.84 284.550698,39.84 C286.470698,39.84 288.220698,39.32 289.800698,38.28 C291.380698,37.24 292.640698,35.83 293.580698,34.05 C294.520698,32.27 294.990698,30.3 294.990698,28.14 C294.990698,25.98 294.520698,24.02 293.580698,22.26 C292.640698,20.5 291.377886,19.1 289.792261,18.06 C288.206636,17.02 286.459448,16.5 284.550698,16.5 C282.630698,16.5 280.887573,17.0315625 279.321323,18.0946875 C277.755073,19.1578125 276.505073,20.5678125 275.571323,22.3246875 C274.637573,24.0815625 274.170698,26.058125 274.170698,28.254375 Z" id="Shape" fill="#FFFFFF" fill-rule="nonzero"></path>
                <path d="M305.130698,0 L310.410698,0 L310.410698,35.7 C310.410698,37.42 310.650698,38.48 311.130698,38.88 C311.610698,39.28 312.190698,39.48 312.870698,39.48 C313.710698,39.48 314.510698,39.39 315.270698,39.21 C316.030698,39.03 316.670698,38.84 317.190698,38.64 L318.030698,42.96 C317.150698,43.32 316.110698,43.62 314.910698,43.86 C313.710698,44.1 312.650698,44.22 311.730698,44.22 C309.690698,44.22 308.080698,43.64 306.900698,42.48 C305.720698,41.32 305.130698,39.7 305.130698,37.62 L305.130698,0 Z" id="Path" fill="#FFFFFF" fill-rule="nonzero"></path>
                <text id="Making-best-practice" font-family="Poppins-Regular, Poppins" font-size="17.8" font-weight="normal" fill="#FFFFFF">
                    <tspan x="71.2140961" y="75.876">Making best practice easier</tspan>
                </text>
                <polyline id="Path-4" stroke="url(#linearGradient-2)" stroke-width="4.77435496" stroke-linecap="round" stroke-linejoin="round" points="0 4.04485779 19 23.0448578 0 42.0448578 19 42.0448578 38 23.0448578 19 4.04485779 38 4.04485779 57 23.0448578 38 42.0448578"></polyline>
            </g>
        </g>
    </g>
</svg>