<?xml version="1.0" encoding="UTF-8"?>
<svg width="321px" height="46px" viewBox="0 0 321 46" version="1.1" xmlns="http://www.w3.org/2000/svg" xmlns:xlink="http://www.w3.org/1999/xlink">
    <title>Group</title>
    <defs>
        <linearGradient x1="50%" y1="18.6148113%" x2="50%" y2="92.9644444%" id="linearGradient-1">
            <stop stop-color="#24B5F4" offset="0%"></stop>
            <stop stop-color="#3470E7" offset="100%"></stop>
        </linearGradient>
        <linearGradient x1="50%" y1="18.6148113%" x2="50%" y2="92.9644444%" id="linearGradient-2">
            <stop stop-color="#24B5F4" offset="0%"></stop>
            <stop stop-color="#3470E7" offset="100%"></stop>
        </linearGradient>
    </defs>
    <g id="Page-1" stroke="none" stroke-width="1" fill="none" fill-rule="evenodd">
        <g id="A4-Copy-2" transform="translate(-241.000000, -149.000000)" fill-rule="nonzero">
            <g id="Group" transform="translate(241.062688, 149.850000)">
                <path d="M74.8107914,43.8 L74.8107914,1.2 L90.7145414,1.2 C95.3870414,1.2 99.2956352,2.15 102.440323,4.05 C105.58501,5.95 107.952666,8.51 109.543291,11.73 C111.133916,14.95 111.929229,18.52 111.929229,22.44 C111.929229,26.76 111.053916,30.52 109.303291,33.72 C107.552666,36.92 105.087979,39.4 101.909229,41.16 C98.7304789,42.92 94.9989164,43.8 90.7145414,43.8 L74.8107914,43.8 Z M101.938291,22.44 C101.938291,19.945625 101.496416,17.7478125 100.612666,15.8465625 C99.7289164,13.9453125 98.4493852,12.4640625 96.7740727,11.4028125 C95.0987602,10.3415625 93.0789164,9.8109375 90.7145414,9.8109375 L84.6573539,9.8109375 L84.6573539,35.1890625 L90.7145414,35.1890625 C93.1189164,35.1890625 95.1517289,34.6354687 96.8129789,33.5282812 C98.4742289,32.4210937 99.7437602,30.8998437 100.621573,28.9645312 C101.499385,27.0292187 101.938291,24.854375 101.938291,22.44 Z M149.150166,43.8 L149.150166,18.3946875 L139.979541,36.8925 L134.604854,36.8925 L125.417354,18.3946875 L125.417354,43.8 L115.570791,43.8 L115.570791,1.2 L126.267666,1.2 L137.283291,23.4815625 L148.358916,1.2 L158.996729,1.2 L158.996729,43.8 L149.150166,43.8 Z M164.963833,43.8 L164.963833,1.2 L183.147583,1.2 C185.168208,1.2 187.029614,1.6128125 188.731802,2.4384375 C190.433989,3.2640625 191.906958,4.36765625 193.150708,5.74921875 C194.394458,7.13078125 195.357583,8.6809375 196.040083,10.3996875 C196.722583,12.1184375 197.063833,13.8653125 197.063833,15.6403125 C197.063833,18.0834375 196.494458,20.40625 195.355708,22.60875 C194.216958,24.81125 192.633364,26.6048437 190.604927,27.9895312 C188.576489,29.3742187 186.196333,30.0665625 183.464458,30.0665625 L174.810396,30.0665625 L174.810396,43.8 L164.963833,43.8 Z M174.810396,21.455625 L182.826021,21.455625 C183.600396,21.455625 184.304614,21.2390625 184.938677,20.8059375 C185.572739,20.3728125 186.086802,19.71625 186.480864,18.83625 C186.874927,17.95625 187.071958,16.8840625 187.071958,15.6196875 C187.071958,14.2815625 186.846177,13.1825 186.394614,12.3225 C185.943052,11.4625 185.370083,10.8289062 184.675708,10.4217187 C183.981333,10.0145312 183.258833,9.8109375 182.508208,9.8109375 L174.810396,9.8109375 L174.810396,21.455625 Z" id="Combined-Shape" fill="url(#linearGradient-1)"></path>
                <polygon id="Path" fill="#6F6F6F" points="242.302661 6 227.602661 6 227.602661 43.8 222.202661 43.8 222.202661 6 207.502661 6 207.502661 1.2 242.302661 1.2"></polygon>
                <path d="M252.802661,44.4 C250.442661,44.4 248.302661,43.97 246.382661,43.11 C244.462661,42.25 242.802661,41.07 241.402661,39.57 C240.002661,38.07 238.922661,36.3435938 238.162661,34.3907813 C237.402661,32.4379688 237.022661,30.374375 237.022661,28.2 C237.022661,25.985625 237.402661,23.9020313 238.162661,21.9492188 C238.922661,19.9964063 240.002661,18.27 241.402661,16.77 C242.802661,15.27 244.472661,14.09 246.412661,13.23 C248.352661,12.37 250.492661,11.94 252.832661,11.94 C255.172661,11.94 257.302661,12.37 259.222661,13.23 C261.142661,14.09 262.812661,15.27 264.232661,16.77 C265.652661,18.27 266.742661,19.9964063 267.502661,21.9492188 C268.262661,23.9020313 268.642661,25.985625 268.642661,28.2 C268.642661,30.374375 268.262661,32.4379688 267.502661,34.3907813 C266.742661,36.3435938 265.662661,38.07 264.262661,39.57 C262.862661,41.07 261.192661,42.25 259.252661,43.11 C257.312661,43.97 255.162661,44.4 252.802661,44.4 Z M242.422661,28.254375 C242.422661,30.418125 242.892661,32.38 243.832661,34.14 C244.772661,35.9 246.022661,37.29 247.582661,38.31 C249.142661,39.33 250.882661,39.84 252.802661,39.84 C254.722661,39.84 256.472661,39.32 258.052661,38.28 C259.632661,37.24 260.892661,35.83 261.832661,34.05 C262.772661,32.27 263.242661,30.3 263.242661,28.14 C263.242661,25.98 262.772661,24.02 261.832661,22.26 C260.892661,20.5 259.629849,19.1 258.044224,18.06 C256.458599,17.02 254.711411,16.5 252.802661,16.5 C250.882661,16.5 249.139536,17.0315625 247.573286,18.0946875 C246.007036,19.1578125 244.757036,20.5678125 243.823286,22.3246875 C242.889536,24.0815625 242.422661,26.058125 242.422661,28.254375 Z" id="Shape" fill="#6F6F6F"></path>
                <path d="M286.942661,44.4 C284.582661,44.4 282.442661,43.97 280.522661,43.11 C278.602661,42.25 276.942661,41.07 275.542661,39.57 C274.142661,38.07 273.062661,36.3435938 272.302661,34.3907813 C271.542661,32.4379688 271.162661,30.374375 271.162661,28.2 C271.162661,25.985625 271.542661,23.9020313 272.302661,21.9492188 C273.062661,19.9964063 274.142661,18.27 275.542661,16.77 C276.942661,15.27 278.612661,14.09 280.552661,13.23 C282.492661,12.37 284.632661,11.94 286.972661,11.94 C289.312661,11.94 291.442661,12.37 293.362661,13.23 C295.282661,14.09 296.952661,15.27 298.372661,16.77 C299.792661,18.27 300.882661,19.9964063 301.642661,21.9492188 C302.402661,23.9020313 302.782661,25.985625 302.782661,28.2 C302.782661,30.374375 302.402661,32.4379688 301.642661,34.3907813 C300.882661,36.3435938 299.802661,38.07 298.402661,39.57 C297.002661,41.07 295.332661,42.25 293.392661,43.11 C291.452661,43.97 289.302661,44.4 286.942661,44.4 Z M276.562661,28.254375 C276.562661,30.418125 277.032661,32.38 277.972661,34.14 C278.912661,35.9 280.162661,37.29 281.722661,38.31 C283.282661,39.33 285.022661,39.84 286.942661,39.84 C288.862661,39.84 290.612661,39.32 292.192661,38.28 C293.772661,37.24 295.032661,35.83 295.972661,34.05 C296.912661,32.27 297.382661,30.3 297.382661,28.14 C297.382661,25.98 296.912661,24.02 295.972661,22.26 C295.032661,20.5 293.769849,19.1 292.184224,18.06 C290.598599,17.02 288.851411,16.5 286.942661,16.5 C285.022661,16.5 283.279536,17.0315625 281.713286,18.0946875 C280.147036,19.1578125 278.897036,20.5678125 277.963286,22.3246875 C277.029536,24.0815625 276.562661,26.058125 276.562661,28.254375 Z" id="Shape" fill="#6F6F6F"></path>
                <path d="M307.522661,0 L312.802661,0 L312.802661,35.7 C312.802661,37.42 313.042661,38.48 313.522661,38.88 C314.002661,39.28 314.582661,39.48 315.262661,39.48 C316.102661,39.48 316.902661,39.39 317.662661,39.21 C318.422661,39.03 319.062661,38.84 319.582661,38.64 L320.422661,42.96 C319.542661,43.32 318.502661,43.62 317.302661,43.86 C316.102661,44.1 315.042661,44.22 314.122661,44.22 C312.082661,44.22 310.472661,43.64 309.292661,42.48 C308.112661,41.32 307.522661,39.7 307.522661,37.62 L307.522661,0 Z" id="Path" fill="#6F6F6F"></path>
                <path d="M40.3919632,1.65768031 C40.9617701,1.65768031 41.5105731,1.86139975 41.9409962,2.22850426 L42.0799526,2.3568684 L61.0799526,21.3568684 C61.9698283,22.2467442 62.0102772,23.6643861 61.2012993,24.6022406 L61.0799526,24.7328472 L42.0799526,43.7328472 C41.1477018,44.665098 39.6362246,44.665098 38.7039738,43.7328472 C37.814098,42.8429714 37.7736491,41.4253295 38.5826271,40.487475 L38.7039738,40.3568684 L56.0153123,23.044 L39.4033123,6.432 L27.1553123,6.432 L42.0799526,21.3568684 C42.9698283,22.2467442 43.0102772,23.6643861 42.2012993,24.6022406 L42.0799526,24.7328472 L23.0799526,43.7328472 C22.6770382,44.1357615 22.1449245,44.3797724 21.5809873,44.4245454 L21.3919632,44.4320353 L2.39196318,44.4320353 C0.318383889,44.4320353 -0.74594662,41.9876657 0.595979125,40.4716009 L0.703973801,40.3568684 L18.0153123,23.044 L0.703973801,5.73284717 C-0.185901958,4.84297141 -0.226350856,3.42532947 0.582627106,2.48747496 L0.703973801,2.3568684 C1.59384956,1.46699265 3.01149151,1.42654375 3.94934601,2.23552171 L4.07995257,2.3568684 L23.0799526,21.3568684 C23.9698283,22.2467442 24.0102772,23.6643861 23.2012993,24.6022406 L23.0799526,24.7328472 L8.15431228,39.657 L20.4023123,39.657 L37.0153123,23.044 L19.7039738,5.73284717 C18.2377318,4.26660519 19.2135668,1.78557957 21.2344713,1.66244469 L21.3919632,1.65768031 L40.3919632,1.65768031 Z" id="Path-4" fill="url(#linearGradient-2)"></path>
            </g>
        </g>
    </g>
</svg>