<?xml version="1.0" encoding="UTF-8"?>
<svg width="232px" height="58px" viewBox="0 0 232 58" version="1.1" xmlns="http://www.w3.org/2000/svg" xmlns:xlink="http://www.w3.org/1999/xlink">
    <title>Group</title>
    <defs>
        <linearGradient x1="50%" y1="18.6148113%" x2="50%" y2="92.9644444%" id="linearGradient-1">
            <stop stop-color="#24B5F4" offset="0%"></stop>
            <stop stop-color="#3470E7" offset="100%"></stop>
        </linearGradient>
        <linearGradient x1="50%" y1="18.6148113%" x2="50%" y2="92.9644444%" id="linearGradient-2">
            <stop stop-color="#24B5F4" offset="0%"></stop>
            <stop stop-color="#3470E7" offset="100%"></stop>
        </linearGradient>
    </defs>
    <g id="Project:-Project-Details-Copy" stroke="none" stroke-width="1" fill="none" fill-rule="evenodd">
        <g id="Project:-Contributors-Copy-6" transform="translate(-110.000000, -26.000000)">
            <g id="Group" transform="translate(112.000000, 26.507524)">
                <path d="M52.1851442,31.5623626 L52.1851442,0.864722263 L63.6454164,0.864722263 C67.0124288,0.864722263 69.8289688,1.54929405 72.0950365,2.91843764 C74.3611043,4.28758122 76.0672418,6.13232205 77.2134492,8.45266012 C78.3596566,10.7729982 78.9327603,13.3455469 78.9327603,16.1703063 C78.9327603,19.2833065 78.3020084,21.9927696 77.0405047,24.2986956 C75.7790011,26.6046216 74.0029426,28.3917143 71.7123294,29.6599736 C69.4217161,30.9282329 66.7327451,31.5623626 63.6454164,31.5623626 L52.1851442,31.5623626 Z M71.7332719,16.1703063 C71.7332719,14.372855 71.4148559,12.7891072 70.778024,11.4190628 C70.1411921,10.0490185 69.2191594,8.98162694 68.0119261,8.21688819 C66.8046927,7.45214944 65.3491895,7.06978006 63.6454164,7.06978006 L59.2805957,7.06978006 L59.2805957,25.3573048 L63.6454164,25.3573048 C65.3780136,25.3573048 66.8428621,24.9583841 68.039962,24.1605427 C69.2370619,23.3627013 70.1518885,22.2664857 70.7844418,20.8718958 C71.4169952,19.477306 71.7332719,17.9101095 71.7332719,16.1703063 Z M105.754238,31.5623626 L105.754238,13.2552465 L99.1458683,26.5848051 L95.2728584,26.5848051 L88.6523286,13.2552465 L88.6523286,31.5623626 L81.5568771,31.5623626 L81.5568771,0.864722263 L89.2650654,0.864722263 L97.2029455,16.9208582 L105.184062,0.864722263 L112.84969,0.864722263 L112.84969,31.5623626 L105.754238,31.5623626 Z M117.149596,31.5623626 L117.149596,0.864722263 L130.252841,0.864722263 C131.708907,0.864722263 133.05024,1.16219573 134.276839,1.75714266 C135.503439,2.35208959 136.564863,3.14734133 137.461111,4.14289787 C138.35736,5.13845442 139.05139,6.25549993 139.5432,7.49403442 C140.035011,8.73256892 140.280917,9.99137033 140.280917,11.2704387 C140.280917,13.0309592 139.870624,14.7047822 139.050038,16.2919079 C138.229453,17.8790335 137.088312,19.1715006 135.626617,20.169309 C134.164921,21.1671174 132.449776,21.6660216 130.481181,21.6660216 L124.245048,21.6660216 L124.245048,31.5623626 L117.149596,31.5623626 Z M124.245048,15.4609638 L130.021122,15.4609638 C130.579138,15.4609638 131.0866,15.3049085 131.543506,14.9927978 C132.000413,14.6806871 132.370847,14.2075669 132.654809,13.5734373 C132.938772,12.9393076 133.080753,12.1666873 133.080753,11.2555763 C133.080753,10.2913209 132.918054,9.49933436 132.592657,8.87961674 C132.267261,8.25989912 131.854378,7.80333026 131.35401,7.50991018 C130.853642,7.2164901 130.333008,7.06978006 129.792106,7.06978006 L124.245048,7.06978006 L124.245048,15.4609638 Z" id="Combined-Shape" fill="url(#linearGradient-1)" fill-rule="nonzero"></path>
                <g id="Group-2" transform="translate(147.803156, 0.000000)" fill="#444444" fill-rule="nonzero">
                    <polygon id="Path" points="25.0769456 4.32361131 14.4840979 4.32361131 14.4840979 31.5623626 10.5928477 31.5623626 10.5928477 4.32361131 0 4.32361131 0 0.864722263 25.0769456 0.864722263"></polygon>
                    <path d="M32.6432654,31.9947237 C30.942645,31.9947237 29.4005569,31.6848649 28.0170013,31.0651473 C26.6334457,30.4454297 25.4372466,29.5951194 24.4284039,28.5142166 C23.4195613,27.4333138 22.6413113,26.1892622 22.0936538,24.7820618 C21.5459964,23.3748615 21.2721677,21.8878319 21.2721677,20.3209732 C21.2721677,18.7252904 21.5459964,17.2238488 22.0936538,15.8166484 C22.6413113,14.4094481 23.4195613,13.1653965 24.4284039,12.0844936 C25.4372466,11.0035908 26.6406517,10.1532806 28.0386194,9.53356295 C29.436587,8.91384533 30.9786751,8.60398652 32.6648835,8.60398652 C34.3510919,8.60398652 35.8859739,8.91384533 37.2695295,9.53356295 C38.6530852,10.1532806 39.8564903,11.0035908 40.879745,12.0844936 C41.9029997,13.1653965 42.6884557,14.4094481 43.2361131,15.8166484 C43.7837706,17.2238488 44.0575993,18.7252904 44.0575993,20.3209732 C44.0575993,21.8878319 43.7837706,23.3748615 43.2361131,24.7820618 C42.6884557,26.1892622 41.9102057,27.4333138 40.901363,28.5142166 C39.8925204,29.5951194 38.6891152,30.4454297 37.2911476,31.0651473 C35.8931799,31.6848649 34.3438859,31.9947237 32.6432654,31.9947237 Z M25.1634179,20.3601559 C25.1634179,21.9193582 25.5021007,23.3330891 26.1794665,24.6013484 C26.8568323,25.8696077 27.7575846,26.8712443 28.8817236,27.6062582 C30.0058625,28.3412722 31.2597098,28.7087791 32.6432654,28.7087791 C34.026821,28.7087791 35.2878743,28.3340661 36.4264253,27.5846402 C37.5649763,26.8352142 38.4729347,25.8191656 39.1503005,24.5364942 C39.8276662,23.2538229 40.1663491,21.8342371 40.1663491,20.2777371 C40.1663491,18.721237 39.8276662,17.3088573 39.1503005,16.040598 C38.4729347,14.7723387 37.5629496,13.763496 36.4203452,13.0140701 C35.2777409,12.2646441 34.0187143,11.8899311 32.6432654,11.8899311 C31.2597098,11.8899311 30.0036106,12.2729761 28.8749679,13.0390659 C27.7463252,13.8051558 26.8455729,14.8212045 26.1727109,16.0872119 C25.4998489,17.3532193 25.1634179,18.777534 25.1634179,20.3601559 Z" id="Shape"></path>
                    <path d="M57.2446138,31.9947237 C55.5439934,31.9947237 54.0019053,31.6848649 52.6183497,31.0651473 C51.2347941,30.4454297 50.0385949,29.5951194 49.0297523,28.5142166 C48.0209097,27.4333138 47.2426596,26.1892622 46.6950022,24.7820618 C46.1473448,23.3748615 45.873516,21.8878319 45.873516,20.3209732 C45.873516,18.7252904 46.1473448,17.2238488 46.6950022,15.8166484 C47.2426596,14.4094481 48.0209097,13.1653965 49.0297523,12.0844936 C50.0385949,11.0035908 51.2420001,10.1532806 52.6399678,9.53356295 C54.0379354,8.91384533 55.5800235,8.60398652 57.2662319,8.60398652 C58.9524403,8.60398652 60.4873223,8.91384533 61.8708779,9.53356295 C63.2544335,10.1532806 64.4578387,11.0035908 65.4810934,12.0844936 C66.504348,13.1653965 67.2898041,14.4094481 67.8374615,15.8166484 C68.385119,17.2238488 68.6589477,18.7252904 68.6589477,20.3209732 C68.6589477,21.8878319 68.385119,23.3748615 67.8374615,24.7820618 C67.2898041,26.1892622 66.5115541,27.4333138 65.5027114,28.5142166 C64.4938688,29.5951194 63.2904636,30.4454297 61.892496,31.0651473 C60.4945283,31.6848649 58.9452343,31.9947237 57.2446138,31.9947237 Z M49.7647662,20.3601559 C49.7647662,21.9193582 50.1034491,23.3330891 50.7808149,24.6013484 C51.4581807,25.8696077 52.358933,26.8712443 53.483072,27.6062582 C54.6072109,28.3412722 55.8610582,28.7087791 57.2446138,28.7087791 C58.6281694,28.7087791 59.8892227,28.3340661 61.0277737,27.5846402 C62.1663247,26.8352142 63.0742831,25.8191656 63.7516488,24.5364942 C64.4290146,23.2538229 64.7676975,21.8342371 64.7676975,20.2777371 C64.7676975,18.721237 64.4290146,17.3088573 63.7516488,16.040598 C63.0742831,14.7723387 62.164298,13.763496 61.0216936,13.0140701 C59.8790893,12.2646441 58.6200627,11.8899311 57.2446138,11.8899311 C55.8610582,11.8899311 54.604959,12.2729761 53.4763163,13.0390659 C52.3476736,13.8051558 51.4469213,14.8212045 50.7740592,16.0872119 C50.1011972,17.3532193 49.7647662,18.777534 49.7647662,20.3601559 Z" id="Shape"></path>
                    <path d="M72.0746006,0 L75.8793786,0 L75.8793786,25.7254873 C75.8793786,26.9649226 76.052323,27.7287606 76.3982119,28.0170013 C76.7441008,28.3052421 77.1620499,28.4493625 77.6520592,28.4493625 C78.2573648,28.4493625 78.8338463,28.3845083 79.3815037,28.2547999 C79.9291612,28.1250916 80.3903464,27.9881772 80.7650594,27.8440569 L81.3703649,30.957057 C80.7362353,31.2164737 79.9868093,31.4326543 79.1220871,31.6055987 C78.2573648,31.7785432 77.4935268,31.8650154 76.8305731,31.8650154 C75.3605452,31.8650154 74.2003762,31.4470663 73.350066,30.6111681 C72.4997557,29.7752699 72.0746006,28.6078949 72.0746006,27.1090429 L72.0746006,0 Z" id="Path"></path>
                </g>
                <g id="Making-best-practice" transform="translate(52.304669, 44.223824)" fill="#3F3F3F" fill-rule="nonzero">
                    <polygon id="Path" points="9.06848649 0.885043236 9.06848649 9.76112902 7.90125556 9.76112902 7.90125556 3.14254482 4.95111144 9.76112902 4.13020177 9.76112902 1.16723093 3.12971811 1.16723093 9.76112902 0 9.76112902 0 0.885043236 1.25701793 0.885043236 4.5406566 8.2219234 7.82429528 0.885043236"></polygon>
                    <path d="M10.6076921,6.22095608 C10.6076921,5.50266012 10.7530615,4.87201337 11.0438004,4.32901583 C11.3345392,3.78601829 11.7343051,3.36487453 12.2430981,3.06558454 C12.7518911,2.76629456 13.3184043,2.61664957 13.9426376,2.61664957 C14.5583199,2.61664957 15.0927663,2.74919227 15.5459768,3.01427769 C15.9991874,3.2793631 16.3369575,3.61285765 16.5592872,4.01476135 L16.5592872,2.73208999 L17.7393449,2.73208999 L17.7393449,9.76112902 L16.5592872,9.76112902 L16.5592872,8.45280424 C16.3284064,8.86325907 15.9842229,9.20316698 15.5267368,9.47252797 C15.0692507,9.74188895 14.536942,9.87656945 13.9298109,9.87656945 C13.3055775,9.87656945 12.7412021,9.72264888 12.2366847,9.41480776 C11.7321673,9.10696663 11.3345392,8.67513394 11.0438004,8.11930969 C10.7530615,7.56348543 10.6076921,6.9307009 10.6076921,6.22095608 Z M16.5592872,6.23378279 C16.5592872,5.70361197 16.4523979,5.24185028 16.2386194,4.84849773 C16.0248408,4.45514518 15.7362398,4.15371741 15.3728162,3.94421442 C15.0093927,3.73471143 14.6096268,3.62995994 14.1735185,3.62995994 C13.7374102,3.62995994 13.3397821,3.73257365 12.9806341,3.93780107 C12.6214861,4.14302848 12.3350229,4.44231847 12.1212443,4.83567101 C11.9074658,5.22902356 11.8005765,5.69078525 11.8005765,6.22095608 C11.8005765,6.75967805 11.9074658,7.22785309 12.1212443,7.62548122 C12.3350229,8.02310934 12.6214861,8.32667489 12.9806341,8.53617788 C13.3397821,8.74568087 13.7374102,8.85043236 14.1735185,8.85043236 C14.6096268,8.85043236 15.0093927,8.74568087 15.3728162,8.53617788 C15.7362398,8.32667489 16.0248408,8.02310934 16.2386194,7.62548122 C16.4523979,7.22785309 16.5592872,6.76395362 16.5592872,6.23378279 Z" id="Shape"></path>
                    <polygon id="Path" points="23.6396331 9.76112902 20.8818897 6.65706434 20.8818897 9.76112902 19.7146588 9.76112902 19.7146588 0.269360985 20.8818897 0.269360985 20.8818897 5.84898139 23.5883262 2.73208999 25.2173189 2.73208999 21.9080268 6.23378279 25.2301456 9.76112902"></polygon>
                    <path d="M26.9232718,1.59051248 C26.7009421,1.59051248 26.5128169,1.5135522 26.3588964,1.35963164 C26.2049758,1.20571108 26.1280155,1.01758594 26.1280155,0.795256241 C26.1280155,0.572926539 26.2049758,0.384801407 26.3588964,0.230880844 C26.5128169,0.0769602814 26.7009421,0 26.9232718,0 C27.1370503,0 27.3187621,0.0769602814 27.4684071,0.230880844 C27.6180521,0.384801407 27.6928746,0.572926539 27.6928746,0.795256241 C27.6928746,1.01758594 27.6180521,1.20571108 27.4684071,1.35963164 C27.3187621,1.5135522 27.1370503,1.59051248 26.9232718,1.59051248 Z M27.4876472,2.73208999 L27.4876472,9.76112902 L26.3204162,9.76112902 L26.3204162,2.73208999 L27.4876472,2.73208999 Z" id="Shape"></path>
                    <path d="M32.9005203,2.60382285 C33.7556345,2.60382285 34.4482771,2.86249491 34.9784479,3.37983902 C35.5086187,3.89718314 35.7737041,4.64327031 35.7737041,5.61810054 L35.7737041,9.76112902 L34.6192999,9.76112902 L34.6192999,5.78484782 C34.6192999,5.08365414 34.4440015,4.54706996 34.0934047,4.17509527 C33.7428078,3.80312057 33.2639439,3.61713323 32.6568127,3.61713323 C32.0411305,3.61713323 31.5515776,3.80953393 31.188154,4.19433534 C30.8247305,4.57913674 30.6430187,5.13923657 30.6430187,5.87463481 L30.6430187,9.76112902 L29.4757878,9.76112902 L29.4757878,2.73208999 L30.6430187,2.73208999 L30.6430187,3.73257365 C30.8738996,3.37342567 31.188154,3.09551354 31.5857822,2.89883727 C31.9834103,2.70216099 32.4216563,2.60382285 32.9005203,2.60382285 Z" id="Path"></path>
                    <path d="M40.5837217,2.61664957 C41.1908528,2.61664957 41.7231614,2.74919227 42.1806476,3.01427769 C42.6381337,3.2793631 42.9780416,3.61285765 43.2003713,4.01476135 L43.2003713,2.73208999 L44.3804289,2.73208999 L44.3804289,9.91504959 C44.3804289,10.5563853 44.2436107,11.127174 43.9699741,11.6274158 C43.6963376,12.1276577 43.3051228,12.5188724 42.7963298,12.8010601 C42.2875368,13.0832478 41.6953702,13.2243417 41.01983,13.2243417 C40.0963066,13.2243417 39.3267038,13.0062876 38.7110215,12.5701793 C38.0953393,12.134071 37.7319157,11.5397666 37.6207509,10.7872661 L38.7751551,10.7872661 C38.9034222,11.2148232 39.1685077,11.5590067 39.5704114,11.8198166 C39.972315,12.0806264 40.4554546,12.2110313 41.01983,12.2110313 C41.6611657,12.2110313 42.1849231,12.0100795 42.5911024,11.6081758 C42.9972817,11.2062721 43.2003713,10.6418967 43.2003713,9.91504959 L43.2003713,8.43997753 C42.9694904,8.85043236 42.6274448,9.19247806 42.1742342,9.46611461 C41.7210237,9.73975117 41.1908528,9.87656945 40.5837217,9.87656945 C39.9594883,9.87656945 39.3929751,9.72264888 38.8841822,9.41480776 C38.3753892,9.10696663 37.9756233,8.67513394 37.6848845,8.11930969 C37.3941456,7.56348543 37.2487762,6.9307009 37.2487762,6.22095608 C37.2487762,5.50266012 37.3941456,4.87201337 37.6848845,4.32901583 C37.9756233,3.78601829 38.3753892,3.36487453 38.8841822,3.06558454 C39.3929751,2.76629456 39.9594883,2.61664957 40.5837217,2.61664957 Z M43.2003713,6.23378279 C43.2003713,5.70361197 43.093482,5.24185028 42.8797035,4.84849773 C42.6659249,4.45514518 42.3773238,4.15371741 42.0139003,3.94421442 C41.6504767,3.73471143 41.2507108,3.62995994 40.8146026,3.62995994 C40.3784943,3.62995994 39.9808662,3.73257365 39.6217182,3.93780107 C39.2625702,4.14302848 38.976107,4.44231847 38.7623284,4.83567101 C38.5485498,5.22902356 38.4416606,5.69078525 38.4416606,6.22095608 C38.4416606,6.75967805 38.5485498,7.22785309 38.7623284,7.62548122 C38.976107,8.02310934 39.2625702,8.32667489 39.6217182,8.53617788 C39.9808662,8.74568087 40.3784943,8.85043236 40.8146026,8.85043236 C41.2507108,8.85043236 41.6504767,8.74568087 42.0139003,8.53617788 C42.3773238,8.32667489 42.6659249,8.02310934 42.8797035,7.62548122 C43.093482,7.22785309 43.2003713,6.76395362 43.2003713,6.23378279 Z" id="Shape"></path>
                    <path d="M50.9477063,4.04041477 C51.1871383,3.6214088 51.5377351,3.2793631 51.9994968,3.01427769 C52.4612585,2.74919227 52.9871537,2.61664957 53.5771826,2.61664957 C54.2099671,2.61664957 54.7786181,2.76629456 55.2831355,3.06558454 C55.7876529,3.36487453 56.185281,3.78601829 56.4760198,4.32901583 C56.7667587,4.87201337 56.9121281,5.50266012 56.9121281,6.22095608 C56.9121281,6.9307009 56.7667587,7.56348543 56.4760198,8.11930969 C56.185281,8.67513394 55.7855151,9.10696663 55.2767221,9.41480776 C54.7679291,9.72264888 54.201416,9.87656945 53.5771826,9.87656945 C52.9700515,9.87656945 52.4377428,9.74402674 51.9802567,9.47894133 C51.5227706,9.21385591 51.1785871,8.87608579 50.9477063,8.46563095 L50.9477063,9.76112902 L49.7804754,9.76112902 L49.7804754,0.269360985 L50.9477063,0.269360985 L50.9477063,4.04041477 Z M55.7192437,6.22095608 C55.7192437,5.69078525 55.6123545,5.22902356 55.3985759,4.83567101 C55.1847973,4.44231847 54.8961963,4.14302848 54.5327727,3.93780107 C54.1693492,3.73257365 53.7695833,3.62995994 53.333475,3.62995994 C52.9059179,3.62995994 52.5104276,3.73471143 52.147004,3.94421442 C51.7835805,4.15371741 51.4928416,4.45728296 51.2747875,4.85491109 C51.0567334,5.25253921 50.9477063,5.71216311 50.9477063,6.23378279 C50.9477063,6.76395362 51.0567334,7.22785309 51.2747875,7.62548122 C51.4928416,8.02310934 51.7835805,8.32667489 52.147004,8.53617788 C52.5104276,8.74568087 52.9059179,8.85043236 53.333475,8.85043236 C53.7695833,8.85043236 54.1693492,8.74568087 54.5327727,8.53617788 C54.8961963,8.32667489 55.1847973,8.02310934 55.3985759,7.62548122 C55.6123545,7.22785309 55.7192437,6.75967805 55.7192437,6.22095608 Z" id="Shape"></path>
                    <path d="M64.8646905,5.97724852 C64.8646905,6.19957822 64.8518638,6.43473464 64.8262104,6.68271777 L59.2081098,6.68271777 C59.2508655,7.3753603 59.4881597,7.91622006 59.9199924,8.30529703 C60.3518251,8.69437401 60.8755826,8.8889125 61.4912648,8.8889125 C61.9957822,8.8889125 62.416926,8.77133429 62.7546961,8.53617788 C63.0924662,8.30102146 63.3297605,7.98676698 63.4665787,7.59341443 L64.7235967,7.59341443 C64.5354715,8.26895468 64.1592213,8.81836558 63.5948459,9.24164712 C63.0304705,9.66492867 62.3292768,9.87656945 61.4912648,9.87656945 C60.8242757,9.87656945 60.2278336,9.72692445 59.7019383,9.42763447 C59.176043,9.12834449 58.7634504,8.70292516 58.4641604,8.15137647 C58.1648705,7.59982779 58.0152255,6.9606299 58.0152255,6.23378279 C58.0152255,5.50693569 58.1605949,4.86987558 58.4513337,4.32260247 C58.7420726,3.77532936 59.1503896,3.3541856 59.6762849,3.05917119 C60.2021801,2.76415677 60.8071734,2.61664957 61.4912648,2.61664957 C62.1582539,2.61664957 62.7482828,2.76201899 63.2613513,3.05275783 C63.7744199,3.34349667 64.1699102,3.74326258 64.4478223,4.25205555 C64.7257344,4.76084852 64.8646905,5.33591284 64.8646905,5.97724852 Z M63.6589794,5.73354096 C63.6589794,5.28888156 63.5606413,4.90621794 63.363965,4.5855501 C63.1672887,4.26488226 62.9000655,4.0211747 62.5622954,3.85442743 C62.2245253,3.68768015 61.8504128,3.60430651 61.439958,3.60430651 C60.8499292,3.60430651 60.3475495,3.79243164 59.9328191,4.16868191 C59.5180887,4.54493217 59.2807945,5.06655186 59.2209365,5.73354096 L63.6589794,5.73354096 Z" id="Shape"></path>
                    <path d="M68.8922786,9.87656945 C68.3535566,9.87656945 67.8704171,9.78464467 67.4428599,9.6007951 C67.0153028,9.41694554 66.6775327,9.16041127 66.4295496,8.83119229 C66.1815664,8.50197331 66.0447482,8.12358526 66.0190947,7.69602814 L67.2248058,7.69602814 C67.2590104,8.04662498 67.4236199,8.33308825 67.7186343,8.55541795 C68.0136487,8.77774765 68.4005879,8.8889125 68.8794519,8.8889125 C69.3241113,8.8889125 69.6747081,8.79057436 69.9312424,8.59389809 C70.1877766,8.39722182 70.3160438,8.14923869 70.3160438,7.8499487 C70.3160438,7.54210758 70.1792255,7.31336452 69.9055889,7.16371953 C69.6319524,7.01407454 69.2086708,6.86656733 68.6357443,6.72119791 C68.1141246,6.58437963 67.6887053,6.44542357 67.3594863,6.30432972 C67.0302673,6.16323587 66.7480796,5.95373288 66.5129232,5.67582075 C66.2777668,5.39790863 66.1601886,5.03234729 66.1601886,4.57913674 C66.1601886,4.21998876 66.2670779,3.89076978 66.4808564,3.5914798 C66.694635,3.29218982 66.9982005,3.05489561 67.3915531,2.8795972 C67.7849056,2.70429878 68.2338406,2.61664957 68.738358,2.61664957 C69.516512,2.61664957 70.1450209,2.81332584 70.6238849,3.20667839 C71.1027489,3.60003094 71.3592831,4.13875291 71.3934877,4.8228443 L70.2262568,4.8228443 C70.2006034,4.45514518 70.0530961,4.16013077 69.7837352,3.93780107 C69.5143742,3.71547136 69.1530884,3.60430651 68.6998779,3.60430651 C68.2808719,3.60430651 67.9473773,3.69409351 67.6993942,3.8736675 C67.4514111,4.05324149 67.3274195,4.2883979 67.3274195,4.57913674 C67.3274195,4.81001759 67.402242,5.00028051 67.551887,5.1499255 C67.701532,5.29957049 67.8896571,5.41928648 68.1162624,5.50907348 C68.3428677,5.59886047 68.6571222,5.69933639 69.0590258,5.81050125 C69.5635432,5.94731952 69.9739981,6.08200002 70.2903903,6.21454272 C70.6067826,6.34708543 70.8782814,6.54589949 71.1048867,6.8109849 C71.3314919,7.07607032 71.4490701,7.42239158 71.4576213,7.8499487 C71.4576213,8.23475011 71.350732,8.58107138 71.1369534,8.8889125 C70.9231749,9.19675363 70.6217471,9.4383234 70.2326701,9.61362182 C69.8435932,9.78892024 69.396796,9.87656945 68.8922786,9.87656945 Z" id="Path"></path>
                    <path d="M74.5232058,3.69409351 L74.5232058,7.83712199 C74.5232058,8.17916768 74.5958905,8.42073746 74.74126,8.56183131 C74.8866294,8.70292516 75.1388881,8.77347208 75.4980361,8.77347208 L76.3574259,8.77347208 L76.3574259,9.76112902 L75.3056354,9.76112902 C74.6557485,9.76112902 74.1683334,9.61148403 73.84339,9.31219405 C73.5184466,9.01290407 73.3559749,8.52121338 73.3559749,7.83712199 L73.3559749,3.69409351 L72.4452782,3.69409351 L72.4452782,2.73208999 L73.3559749,2.73208999 L73.3559749,0.962003518 L74.5232058,0.962003518 L74.5232058,2.73208999 L76.3574259,2.73208999 L76.3574259,3.69409351 L74.5232058,3.69409351 Z" id="Path"></path>
                    <path d="M82.3603278,4.02758806 C82.5912087,3.62568437 82.9353921,3.29005203 83.3928783,3.02069104 C83.8503644,2.75133006 84.382673,2.61664957 84.9898041,2.61664957 C85.6140375,2.61664957 86.1805507,2.76629456 86.6893436,3.06558454 C87.1981366,3.36487453 87.5979025,3.78601829 87.8886414,4.32901583 C88.1793802,4.87201337 88.3247496,5.50266012 88.3247496,6.22095608 C88.3247496,6.9307009 88.1793802,7.56348543 87.8886414,8.11930969 C87.5979025,8.67513394 87.1981366,9.10696663 86.6893436,9.41480776 C86.1805507,9.72264888 85.6140375,9.87656945 84.9898041,9.87656945 C84.3912241,9.87656945 83.8631911,9.74188895 83.405705,9.47252797 C82.9482189,9.20316698 82.5997598,8.86753465 82.3603278,8.46563095 L82.3603278,13.0960746 L81.1930969,13.0960746 L81.1930969,2.73208999 L82.3603278,2.73208999 L82.3603278,4.02758806 Z M87.1318653,6.22095608 C87.1318653,5.69078525 87.024976,5.22902356 86.8111974,4.83567101 C86.5974189,4.44231847 86.3088178,4.14302848 85.9453943,3.93780107 C85.5819707,3.73257365 85.1822048,3.62995994 84.7460965,3.62995994 C84.3185394,3.62995994 83.9230491,3.73471143 83.5596255,3.94421442 C83.196202,4.15371741 82.9054631,4.45728296 82.687409,4.85491109 C82.4693549,5.25253921 82.3603278,5.71216311 82.3603278,6.23378279 C82.3603278,6.76395362 82.4693549,7.22785309 82.687409,7.62548122 C82.9054631,8.02310934 83.196202,8.32667489 83.5596255,8.53617788 C83.9230491,8.74568087 84.3185394,8.85043236 84.7460965,8.85043236 C85.1822048,8.85043236 85.5819707,8.74568087 85.9453943,8.53617788 C86.3088178,8.32667489 86.5974189,8.02310934 86.8111974,7.62548122 C87.024976,7.22785309 87.1318653,6.75967805 87.1318653,6.22095608 Z" id="Shape"></path>
                    <path d="M91.0311862,3.8736675 C91.2364136,3.47176381 91.5292902,3.15964711 91.9098161,2.93731741 C92.2903419,2.7149877 92.7542414,2.60382285 93.3015145,2.60382285 L93.3015145,3.80953393 L92.9936734,3.80953393 C91.6853486,3.80953393 91.0311862,4.51927875 91.0311862,5.93876838 L91.0311862,9.76112902 L89.8639552,9.76112902 L89.8639552,2.73208999 L91.0311862,2.73208999 L91.0311862,3.8736675 Z" id="Path"></path>
                    <path d="M94.2122111,6.22095608 C94.2122111,5.50266012 94.3575806,4.87201337 94.6483194,4.32901583 C94.9390583,3.78601829 95.3388242,3.36487453 95.8476171,3.06558454 C96.3564101,2.76629456 96.9229233,2.61664957 97.5471567,2.61664957 C98.1628389,2.61664957 98.6972853,2.74919227 99.1504959,3.01427769 C99.6037064,3.2793631 99.9414765,3.61285765 100.163806,4.01476135 L100.163806,2.73208999 L101.343864,2.73208999 L101.343864,9.76112902 L100.163806,9.76112902 L100.163806,8.45280424 C99.9329254,8.86325907 99.5887419,9.20316698 99.1312558,9.47252797 C98.6737697,9.74188895 98.1414611,9.87656945 97.53433,9.87656945 C96.9100966,9.87656945 96.3457212,9.72264888 95.8412038,9.41480776 C95.3366864,9.10696663 94.9390583,8.67513394 94.6483194,8.11930969 C94.3575806,7.56348543 94.2122111,6.9307009 94.2122111,6.22095608 Z M100.163806,6.23378279 C100.163806,5.70361197 100.056917,5.24185028 99.8431384,4.84849773 C99.6293598,4.45514518 99.3407588,4.15371741 98.9773352,3.94421442 C98.6139117,3.73471143 98.2141458,3.62995994 97.7780375,3.62995994 C97.3419293,3.62995994 96.9443011,3.73257365 96.5851532,3.93780107 C96.2260052,4.14302848 95.9395419,4.44231847 95.7257633,4.83567101 C95.5119848,5.22902356 95.4050955,5.69078525 95.4050955,6.22095608 C95.4050955,6.75967805 95.5119848,7.22785309 95.7257633,7.62548122 C95.9395419,8.02310934 96.2260052,8.32667489 96.5851532,8.53617788 C96.9443011,8.74568087 97.3419293,8.85043236 97.7780375,8.85043236 C98.2141458,8.85043236 98.6139117,8.74568087 98.9773352,8.53617788 C99.3407588,8.32667489 99.6293598,8.02310934 99.8431384,7.62548122 C100.056917,7.22785309 100.163806,6.76395362 100.163806,6.23378279 Z" id="Shape"></path>
                    <path d="M102.88307,6.23378279 C102.88307,5.50693569 103.028439,4.87201337 103.319178,4.32901583 C103.609917,3.78601829 104.013958,3.36487453 104.531302,3.06558454 C105.048646,2.76629456 105.640813,2.61664957 106.307802,2.61664957 C107.171467,2.61664957 107.88335,2.82615256 108.44345,3.24515853 C109.00355,3.66416451 109.373387,4.24564219 109.552961,4.98959158 L108.295943,4.98959158 C108.176227,4.56203446 107.943208,4.22426433 107.596887,3.97628121 C107.250565,3.72829808 106.820871,3.60430651 106.307802,3.60430651 C105.640813,3.60430651 105.102091,3.83304957 104.691636,4.29053569 C104.281181,4.74802181 104.075954,5.39577084 104.075954,6.23378279 C104.075954,7.08034589 104.281181,7.73450828 104.691636,8.19626997 C105.102091,8.65803166 105.640813,8.8889125 106.307802,8.8889125 C106.820871,8.8889125 107.248428,8.76919651 107.590473,8.52976452 C107.932519,8.29033254 108.167676,7.94828684 108.295943,7.50362744 L109.552961,7.50362744 C109.364835,8.2219234 108.988585,8.79698772 108.42421,9.22882041 C107.859834,9.6606531 107.154365,9.87656945 106.307802,9.87656945 C105.640813,9.87656945 105.048646,9.72692445 104.531302,9.42763447 C104.013958,9.12834449 103.609917,8.70506294 103.319178,8.15778983 C103.028439,7.61051672 102.88307,6.96918104 102.88307,6.23378279 Z" id="Path"></path>
                    <path d="M112.528758,3.69409351 L112.528758,7.83712199 C112.528758,8.17916768 112.601443,8.42073746 112.746812,8.56183131 C112.892182,8.70292516 113.14444,8.77347208 113.503588,8.77347208 L114.362978,8.77347208 L114.362978,9.76112902 L113.311188,9.76112902 C112.661301,9.76112902 112.173886,9.61148403 111.848942,9.31219405 C111.523999,9.01290407 111.361527,8.52121338 111.361527,7.83712199 L111.361527,3.69409351 L110.450831,3.69409351 L110.450831,2.73208999 L111.361527,2.73208999 L111.361527,0.962003518 L112.528758,0.962003518 L112.528758,2.73208999 L114.362978,2.73208999 L114.362978,3.69409351 L112.528758,3.69409351 Z" id="Path"></path>
                    <path d="M116.376772,1.59051248 C116.154442,1.59051248 115.966317,1.5135522 115.812397,1.35963164 C115.658476,1.20571108 115.581516,1.01758594 115.581516,0.795256241 C115.581516,0.572926539 115.658476,0.384801407 115.812397,0.230880844 C115.966317,0.0769602814 116.154442,0 116.376772,0 C116.590551,0 116.772263,0.0769602814 116.921908,0.230880844 C117.071553,0.384801407 117.146375,0.572926539 117.146375,0.795256241 C117.146375,1.01758594 117.071553,1.20571108 116.921908,1.35963164 C116.772263,1.5135522 116.590551,1.59051248 116.376772,1.59051248 Z M116.941148,2.73208999 L116.941148,9.76112902 L115.773917,9.76112902 L115.773917,2.73208999 L116.941148,2.73208999 Z" id="Shape"></path>
                    <path d="M118.49318,6.23378279 C118.49318,5.50693569 118.638549,4.87201337 118.929288,4.32901583 C119.220027,3.78601829 119.624069,3.36487453 120.141413,3.06558454 C120.658757,2.76629456 121.250923,2.61664957 121.917912,2.61664957 C122.781578,2.61664957 123.49346,2.82615256 124.05356,3.24515853 C124.61366,3.66416451 124.983497,4.24564219 125.163071,4.98959158 L123.906053,4.98959158 C123.786337,4.56203446 123.553318,4.22426433 123.206997,3.97628121 C122.860676,3.72829808 122.430981,3.60430651 121.917912,3.60430651 C121.250923,3.60430651 120.712201,3.83304957 120.301747,4.29053569 C119.891292,4.74802181 119.686064,5.39577084 119.686064,6.23378279 C119.686064,7.08034589 119.891292,7.73450828 120.301747,8.19626997 C120.712201,8.65803166 121.250923,8.8889125 121.917912,8.8889125 C122.430981,8.8889125 122.858538,8.76919651 123.200584,8.52976452 C123.54263,8.29033254 123.777786,7.94828684 123.906053,7.50362744 L125.163071,7.50362744 C124.974946,8.2219234 124.598696,8.79698772 124.03432,9.22882041 C123.469945,9.6606531 122.764476,9.87656945 121.917912,9.87656945 C121.250923,9.87656945 120.658757,9.72692445 120.141413,9.42763447 C119.624069,9.12834449 119.220027,8.70506294 118.929288,8.15778983 C118.638549,7.61051672 118.49318,6.96918104 118.49318,6.23378279 Z" id="Path"></path>
                    <path d="M133.12846,5.97724852 C133.12846,6.19957822 133.115633,6.43473464 133.08998,6.68271777 L127.471879,6.68271777 C127.514635,7.3753603 127.751929,7.91622006 128.183762,8.30529703 C128.615595,8.69437401 129.139352,8.8889125 129.755034,8.8889125 C130.259552,8.8889125 130.680696,8.77133429 131.018466,8.53617788 C131.356236,8.30102146 131.59353,7.98676698 131.730348,7.59341443 L132.987366,7.59341443 C132.799241,8.26895468 132.422991,8.81836558 131.858615,9.24164712 C131.29424,9.66492867 130.593046,9.87656945 129.755034,9.87656945 C129.088045,9.87656945 128.491603,9.72692445 127.965708,9.42763447 C127.439813,9.12834449 127.02722,8.70292516 126.72793,8.15137647 C126.42864,7.59982779 126.278995,6.9606299 126.278995,6.23378279 C126.278995,5.50693569 126.424364,4.86987558 126.715103,4.32260247 C127.005842,3.77532936 127.414159,3.3541856 127.940054,3.05917119 C128.46595,2.76415677 129.070943,2.61664957 129.755034,2.61664957 C130.422024,2.61664957 131.012052,2.76201899 131.525121,3.05275783 C132.038189,3.34349667 132.43368,3.74326258 132.711592,4.25205555 C132.989504,4.76084852 133.12846,5.33591284 133.12846,5.97724852 Z M131.922749,5.73354096 C131.922749,5.28888156 131.824411,4.90621794 131.627735,4.5855501 C131.431058,4.26488226 131.163835,4.0211747 130.826065,3.85442743 C130.488295,3.68768015 130.114182,3.60430651 129.703728,3.60430651 C129.113699,3.60430651 128.611319,3.79243164 128.196589,4.16868191 C127.781858,4.54493217 127.544564,5.06655186 127.484706,5.73354096 L131.922749,5.73354096 Z" id="Shape"></path>
                    <path d="M144.505755,5.97724852 C144.505755,6.19957822 144.492928,6.43473464 144.467275,6.68271777 L138.849174,6.68271777 C138.89193,7.3753603 139.129224,7.91622006 139.561057,8.30529703 C139.99289,8.69437401 140.516647,8.8889125 141.132329,8.8889125 C141.636847,8.8889125 142.057991,8.77133429 142.395761,8.53617788 C142.733531,8.30102146 142.970825,7.98676698 143.107643,7.59341443 L144.364661,7.59341443 C144.176536,8.26895468 143.800286,8.81836558 143.23591,9.24164712 C142.671535,9.66492867 141.970341,9.87656945 141.132329,9.87656945 C140.46534,9.87656945 139.868898,9.72692445 139.343003,9.42763447 C138.817108,9.12834449 138.404515,8.70292516 138.105225,8.15137647 C137.805935,7.59982779 137.65629,6.9606299 137.65629,6.23378279 C137.65629,5.50693569 137.801659,4.86987558 138.092398,4.32260247 C138.383137,3.77532936 138.791454,3.3541856 139.317349,3.05917119 C139.843245,2.76415677 140.448238,2.61664957 141.132329,2.61664957 C141.799318,2.61664957 142.389347,2.76201899 142.902416,3.05275783 C143.415484,3.34349667 143.810975,3.74326258 144.088887,4.25205555 C144.366799,4.76084852 144.505755,5.33591284 144.505755,5.97724852 Z M143.300044,5.73354096 C143.300044,5.28888156 143.201706,4.90621794 143.00503,4.5855501 C142.808353,4.26488226 142.54113,4.0211747 142.20336,3.85442743 C141.86559,3.68768015 141.491477,3.60430651 141.081023,3.60430651 C140.490994,3.60430651 139.988614,3.79243164 139.573884,4.16868191 C139.159153,4.54493217 138.921859,5.06655186 138.862001,5.73354096 L143.300044,5.73354096 Z" id="Shape"></path>
                    <path d="M145.608852,6.22095608 C145.608852,5.50266012 145.754222,4.87201337 146.044961,4.32901583 C146.3357,3.78601829 146.735465,3.36487453 147.244258,3.06558454 C147.753051,2.76629456 148.319565,2.61664957 148.943798,2.61664957 C149.55948,2.61664957 150.093927,2.74919227 150.547137,3.01427769 C151.000348,3.2793631 151.338118,3.61285765 151.560448,4.01476135 L151.560448,2.73208999 L152.740505,2.73208999 L152.740505,9.76112902 L151.560448,9.76112902 L151.560448,8.45280424 C151.329567,8.86325907 150.985383,9.20316698 150.527897,9.47252797 C150.070411,9.74188895 149.538102,9.87656945 148.930971,9.87656945 C148.306738,9.87656945 147.742362,9.72264888 147.237845,9.41480776 C146.733328,9.10696663 146.3357,8.67513394 146.044961,8.11930969 C145.754222,7.56348543 145.608852,6.9307009 145.608852,6.22095608 Z M151.560448,6.23378279 C151.560448,5.70361197 151.453558,5.24185028 151.23978,4.84849773 C151.026001,4.45514518 150.7374,4.15371741 150.373977,3.94421442 C150.010553,3.73471143 149.610787,3.62995994 149.174679,3.62995994 C148.738571,3.62995994 148.340942,3.73257365 147.981794,3.93780107 C147.622646,4.14302848 147.336183,4.44231847 147.122405,4.83567101 C146.908626,5.22902356 146.801737,5.69078525 146.801737,6.22095608 C146.801737,6.75967805 146.908626,7.22785309 147.122405,7.62548122 C147.336183,8.02310934 147.622646,8.32667489 147.981794,8.53617788 C148.340942,8.74568087 148.738571,8.85043236 149.174679,8.85043236 C149.610787,8.85043236 150.010553,8.74568087 150.373977,8.53617788 C150.7374,8.32667489 151.026001,8.02310934 151.23978,7.62548122 C151.453558,7.22785309 151.560448,6.76395362 151.560448,6.23378279 Z" id="Shape"></path>
                    <path d="M157.204201,9.87656945 C156.66548,9.87656945 156.18234,9.78464467 155.754783,9.6007951 C155.327226,9.41694554 154.989456,9.16041127 154.741472,8.83119229 C154.493489,8.50197331 154.356671,8.12358526 154.331018,7.69602814 L155.536729,7.69602814 C155.570933,8.04662498 155.735543,8.33308825 156.030557,8.55541795 C156.325572,8.77774765 156.712511,8.8889125 157.191375,8.8889125 C157.636034,8.8889125 157.986631,8.79057436 158.243165,8.59389809 C158.4997,8.39722182 158.627967,8.14923869 158.627967,7.8499487 C158.627967,7.54210758 158.491148,7.31336452 158.217512,7.16371953 C157.943875,7.01407454 157.520594,6.86656733 156.947667,6.72119791 C156.426048,6.58437963 156.000628,6.44542357 155.671409,6.30432972 C155.34219,6.16323587 155.060003,5.95373288 154.824846,5.67582075 C154.58969,5.39790863 154.472111,5.03234729 154.472111,4.57913674 C154.472111,4.21998876 154.579001,3.89076978 154.792779,3.5914798 C155.006558,3.29218982 155.310123,3.05489561 155.703476,2.8795972 C156.096829,2.70429878 156.545764,2.61664957 157.050281,2.61664957 C157.828435,2.61664957 158.456944,2.81332584 158.935808,3.20667839 C159.414672,3.60003094 159.671206,4.13875291 159.705411,4.8228443 L158.53818,4.8228443 C158.512526,4.45514518 158.365019,4.16013077 158.095658,3.93780107 C157.826297,3.71547136 157.465011,3.60430651 157.011801,3.60430651 C156.592795,3.60430651 156.2593,3.69409351 156.011317,3.8736675 C155.763334,4.05324149 155.639342,4.2883979 155.639342,4.57913674 C155.639342,4.81001759 155.714165,5.00028051 155.86381,5.1499255 C156.013455,5.29957049 156.20158,5.41928648 156.428185,5.50907348 C156.654791,5.59886047 156.969045,5.69933639 157.370949,5.81050125 C157.875466,5.94731952 158.285921,6.08200002 158.602313,6.21454272 C158.918706,6.34708543 159.190204,6.54589949 159.41681,6.8109849 C159.643415,7.07607032 159.760993,7.42239158 159.769544,7.8499487 C159.769544,8.23475011 159.662655,8.58107138 159.448876,8.8889125 C159.235098,9.19675363 158.93367,9.4383234 158.544593,9.61362182 C158.155516,9.78892024 157.708719,9.87656945 157.204201,9.87656945 Z" id="Path"></path>
                    <path d="M162.014219,1.59051248 C161.791889,1.59051248 161.603764,1.5135522 161.449844,1.35963164 C161.295923,1.20571108 161.218963,1.01758594 161.218963,0.795256241 C161.218963,0.572926539 161.295923,0.384801407 161.449844,0.230880844 C161.603764,0.0769602814 161.791889,0 162.014219,0 C162.227998,0 162.409709,0.0769602814 162.559354,0.230880844 C162.708999,0.384801407 162.783822,0.572926539 162.783822,0.795256241 C162.783822,1.01758594 162.708999,1.20571108 162.559354,1.35963164 C162.409709,1.5135522 162.227998,1.59051248 162.014219,1.59051248 Z M162.578594,2.73208999 L162.578594,9.76112902 L161.411364,9.76112902 L161.411364,2.73208999 L162.578594,2.73208999 Z" id="Shape"></path>
                    <path d="M170.980092,5.97724852 C170.980092,6.19957822 170.967265,6.43473464 170.941612,6.68271777 L165.323511,6.68271777 C165.366267,7.3753603 165.603561,7.91622006 166.035394,8.30529703 C166.467226,8.69437401 166.990984,8.8889125 167.606666,8.8889125 C168.111184,8.8889125 168.532327,8.77133429 168.870097,8.53617788 C169.207868,8.30102146 169.445162,7.98676698 169.58198,7.59341443 L170.838998,7.59341443 C170.650873,8.26895468 170.274623,8.81836558 169.710247,9.24164712 C169.145872,9.66492867 168.444678,9.87656945 167.606666,9.87656945 C166.939677,9.87656945 166.343235,9.72692445 165.81734,9.42763447 C165.291444,9.12834449 164.878852,8.70292516 164.579562,8.15137647 C164.280272,7.59982779 164.130627,6.9606299 164.130627,6.23378279 C164.130627,5.50693569 164.275996,4.86987558 164.566735,4.32260247 C164.857474,3.77532936 165.265791,3.3541856 165.791686,3.05917119 C166.317581,2.76415677 166.922575,2.61664957 167.606666,2.61664957 C168.273655,2.61664957 168.863684,2.76201899 169.376753,3.05275783 C169.889821,3.34349667 170.285312,3.74326258 170.563224,4.25205555 C170.841136,4.76084852 170.980092,5.33591284 170.980092,5.97724852 Z M169.774381,5.73354096 C169.774381,5.28888156 169.676043,4.90621794 169.479366,4.5855501 C169.28269,4.26488226 169.015467,4.0211747 168.677697,3.85442743 C168.339927,3.68768015 167.965814,3.60430651 167.555359,3.60430651 C166.96533,3.60430651 166.462951,3.79243164 166.04822,4.16868191 C165.63349,4.54493217 165.396196,5.06655186 165.336338,5.73354096 L169.774381,5.73354096 Z" id="Shape"></path>
                    <path d="M173.686528,3.8736675 C173.891756,3.47176381 174.184632,3.15964711 174.565158,2.93731741 C174.945684,2.7149877 175.409584,2.60382285 175.956857,2.60382285 L175.956857,3.80953393 L175.649016,3.80953393 C174.340691,3.80953393 173.686528,4.51927875 173.686528,5.93876838 L173.686528,9.76112902 L172.519297,9.76112902 L172.519297,2.73208999 L173.686528,2.73208999 L173.686528,3.8736675 Z" id="Path"></path>
                </g>
                <polyline id="Path-4" stroke="url(#linearGradient-2)" stroke-width="3.44040919" stroke-linecap="round" stroke-linejoin="round" points="0 2.91473215 13.6914358 16.606168 0 30.2976038 13.6914358 30.2976038 27.3828717 16.606168 13.6914358 2.91473215 27.3828717 2.91473215 41.0743075 16.606168 27.3828717 30.2976038"></polyline>
            </g>
        </g>
    </g>
</svg>