<svg version="1.1" id="Layer_1" xmlns="http://www.w3.org/2000/svg" x="0" y="0" viewBox="0 0 229 40.6" xml:space="preserve"><style>.st0{fill:#273572}</style><path class="st0" d="M163.1 8.9h9.6v25.3h2.6V8.9h9.6V6.6h-21.8v2.3zm28 4.8c-6.1 0-9.4 4.8-9.4 10.5s3.3 10.5 9.4 10.5 9.4-4.8 9.4-10.5-3.3-10.5-9.4-10.5zm0 2c4.7 0 7 4.2 7 8.5s-2.3 8.5-7 8.5-7-4.2-7-8.5 2.3-8.5 7-8.5zm21.4-2c-6.1 0-9.4 4.8-9.4 10.5s3.3 10.5 9.4 10.5 9.4-4.8 9.4-10.5-3.3-10.5-9.4-10.5zm0 2c4.7 0 7 4.2 7 8.5s-2.3 8.5-7 8.5-7-4.2-7-8.5 2.3-8.5 7-8.5zm13.1 18.4h2.4V6.6h-2.4v27.5z"/><path d="M76.8 34.4h11.9c8.4 0 12.5-5.9 12.5-13.9 0-9.1-5.4-13.6-12.5-13.6H76.8v27.5zm6-22.4h4.3c6 0 7.9 3.6 7.9 9.1 0 6.1-3.3 8.2-6.9 8.2h-5.3V12zm22.5 22.4h5.7V15.1l6.7 19.3h4.7l6.7-19.5h.1v19.5h5.7V6.9h-8.5l-6.1 18.9h-.1l-6.4-18.9h-8.5v27.5zm34.9 0h6v-9.9h6.4c6.9 0 9.5-4.4 9.5-8.8s-2.7-8.8-9.5-8.8h-12.4v27.5zm6-22.8h4.8c2.8 0 5.3.6 5.3 4.1s-2.5 4.1-5.3 4.1h-4.7v-8.2h-.1z" fill="#4d4c4e"/><path class="st0" d="M2.2 23l1.1-.4 35 14.4 25.2-11.5.9.3c.6.2 1.1.7 1.2 1.3 0 .6-.4 1.2-1 1.4L39.6 40c-.8.3-1.7.3-2.5 0l-35-14.3C1.5 25.5 1 25 1 24.4c.1-.7.6-1.2 1.2-1.4z"/><path d="M2.2 16.8l1.3-.5c2.9 1.3 34.8 13.9 34.8 13.9l24.9-11 1.2.4c.6.2 1.1.7 1.2 1.3 0 .6-.4 1.2-1 1.4l-25 11.1c-.4.2-.8.3-1.2.2-.4 0-.8-.1-1.1-.2L2.1 19.5c-.6-.2-1.1-.7-1.1-1.4.1-.6.6-1.1 1.2-1.3z" fill="#3576bc"/><path d="M64.7 15.8c-.1 0-2.2 1.1-8.8 4-1.4.6-3 1-4.5 1H24.2c-2 0-3.9-.3-5.8-1C9.5 16.4 2.3 13.1 2 13c-.6-.2-1-.8-1-1.4.1-.6.6-1.1 1.2-1.3l25.5-9.2c.7-.2 1.4-.2 2.1 0l34.6 12c.6.2 1.1.6 1.2 1.3.1.7-.3 1.2-.9 1.4zM28.8 4.3l-21 7.5c2.9 1.3 7.6 3.2 12.8 5.2 1.2.4 2.4.6 3.6.6 6.3 0 12.5-4.7 12.5-4.8.5-.4 1.1-.5 1.7-.5.6 0 1.2.2 1.7.5 1.7 1.3 7 4.7 11.1 4.7.8 0 1.5-.1 2.2-.4 2.4-1 4.2-1.8 5.5-2.4L28.8 4.3z" fill="#70a9db"/></svg>